<?xml version="1.0" standalone="no"?>
<!DOCTYPE svg PUBLIC "-//W3C//DTD SVG 20010904//EN"
 "http://www.w3.org/TR/2001/REC-SVG-20010904/DTD/svg10.dtd">
<svg version="1.0" xmlns="http://www.w3.org/2000/svg"
 width="64.000000pt" height="64.000000pt" viewBox="0 0 64.000000 64.000000"
 preserveAspectRatio="xMidYMid meet">
<metadata>
Created by potrace 1.15, written by Peter Selinger 2001-2017
</metadata>
<g transform="translate(0.000000,64.000000) scale(0.100000,-0.100000)"
fill="#FFFFFF" stroke="none">
<path d="M89 533 c-104 -101 -107 -113 -55 -210 28 -52 31 -64 20 -74 -17 -14
-18 -61 -2 -77 7 -7 17 -27 22 -44 8 -23 19 -34 36 -38 14 -3 37 -13 52 -23
15 -11 33 -17 40 -14 7 2 20 -1 28 -8 8 -7 43 -16 76 -20 54 -6 63 -4 75 13 8
10 24 22 37 26 12 4 27 16 32 27 6 11 21 19 36 19 16 0 28 8 35 24 6 13 23 29
36 35 24 11 25 15 20 61 -3 28 -2 52 4 55 18 11 59 104 59 133 0 23 -18 46
-89 115 -49 48 -95 87 -103 87 -9 0 -32 -7 -51 -15 -45 -19 -124 -19 -157 0
-14 8 -33 14 -44 15 -10 0 -58 -39 -107 -87z m131 47 c11 -7 12 -12 4 -17 -7
-5 -35 -26 -63 -48 -104 -82 -39 -139 95 -84 32 14 61 19 77 15 28 -7 217
-208 217 -230 0 -24 -15 -26 -46 -5 -49 32 -60 18 -24 -29 28 -35 11 -53 -29
-29 -48 28 -70 14 -36 -23 13 -15 13 -19 2 -29 -11 -8 -20 -7 -40 9 -14 11
-30 20 -36 20 -16 0 -13 -26 4 -40 19 -16 19 -40 0 -40 -8 0 -61 41 -117 91
-84 73 -112 105 -150 172 -27 45 -48 89 -48 97 0 13 157 180 170 180 3 0 12
-5 20 -10z m307 -72 c46 -46 83 -89 83 -98 0 -19 -58 -120 -68 -119 -4 0 -38
36 -77 80 -100 115 -136 129 -224 89 -43 -20 -101 -27 -101 -12 0 11 104 90
135 102 14 5 41 10 58 11 18 0 48 6 67 13 19 8 37 14 40 15 2 0 42 -36 87 -81z"/>
</g>
</svg>
