<?xml version="1.0" standalone="no"?>
<!DOCTYPE svg PUBLIC "-//W3C//DTD SVG 20010904//EN"
 "http://www.w3.org/TR/2001/REC-SVG-20010904/DTD/svg10.dtd">
<svg version="1.0" xmlns="http://www.w3.org/2000/svg"
 width="64.000000pt" height="64.000000pt" viewBox="0 0 64.000000 64.000000"
 preserveAspectRatio="xMidYMid meet">
<metadata>
Created by potrace 1.15, written by Peter Selinger 2001-2017
</metadata>
<g transform="translate(0.000000,64.000000) scale(0.100000,-0.100000)"
fill="#FFFFFF" stroke="none">
<path d="M120 530 l0 -50 -40 0 -40 0 0 -50 c0 -43 -3 -50 -20 -50 -17 0 -20
-7 -20 -50 0 -43 3 -50 20 -50 17 0 20 -7 20 -50 l0 -50 40 0 40 0 0 -50 0
-50 60 0 60 0 0 100 0 100 80 0 80 0 0 -100 0 -100 60 0 60 0 0 50 0 50 40 0
40 0 0 50 c0 43 3 50 20 50 17 0 20 7 20 50 0 43 -3 50 -20 50 -17 0 -20 7
-20 50 l0 50 -40 0 -40 0 0 50 0 50 -60 0 -60 0 0 -100 0 -100 -80 0 -80 0 0
100 0 100 -60 0 -60 0 0 -50z m95 -200 l0 -225 -35 0 -35 0 -3 215 c-1 118 0
221 3 228 3 8 17 12 37 10 l33 -3 0 -225z m280 0 l0 -225 -35 0 -35 0 -3 215
c-1 118 0 221 3 228 3 8 17 12 37 10 l33 -3 0 -225z m-380 0 l0 -125 -25 0
-25 0 -3 114 c-1 63 0 121 3 129 3 7 15 12 27 10 22 -3 23 -6 23 -128z m460 0
l0 -125 -25 0 -25 0 -3 114 c-1 63 0 121 3 129 3 7 15 12 27 10 22 -3 23 -6
23 -128z"/>
</g>
</svg>
