<?xml version="1.0" standalone="no"?>
<!DOCTYPE svg PUBLIC "-//W3C//DTD SVG 20010904//EN"
 "http://www.w3.org/TR/2001/REC-SVG-20010904/DTD/svg10.dtd">
<svg version="1.0" xmlns="http://www.w3.org/2000/svg"
 width="80.000000pt" height="80.000000pt" viewBox="0 0 80.000000 80.000000"
 preserveAspectRatio="xMidYMid meet">
<metadata>
Created by potrace 1.15, written by Peter Selinger 2001-2017
</metadata>
<g transform="translate(0.000000,80.000000) scale(0.100000,-0.100000)"
fill="#FFFFFF" stroke="none">
<path d="M140 706 c0 -3 9 -21 21 -40 15 -26 24 -71 35 -173 8 -76 18 -145 23
-154 5 -9 5 -22 0 -32 -5 -9 -18 -62 -28 -117 l-18 -100 227 0 227 0 -18 100
c-10 55 -23 108 -28 118 -6 11 -6 23 -1 28 4 5 13 56 19 113 6 58 14 107 16
110 16 15 31 -30 35 -107 l5 -87 30 0 30 0 3 108 c3 108 3 108 -27 137 -16 17
-39 30 -51 30 -19 0 -22 4 -18 35 l4 35 -243 0 c-134 0 -243 -2 -243 -4z m450
-51 c0 -31 4 -36 29 -41 16 -4 40 -17 52 -31 20 -20 23 -35 24 -101 0 -107
-19 -109 -23 -2 -2 46 -8 90 -14 97 -6 7 -25 13 -43 13 l-32 0 -12 -110 c-13
-124 -17 -140 -37 -140 -21 0 -17 -28 5 -40 19 -9 27 -35 47 -152 l6 -38 -192
0 -192 0 6 37 c20 118 28 144 47 153 22 12 26 40 5 40 -8 0 -17 7 -20 16 -12
31 -6 44 19 44 14 0 25 5 25 10 0 6 -13 10 -30 10 -23 0 -30 4 -30 20 0 16 7
20 30 20 17 0 30 5 30 10 0 6 -13 10 -29 10 -20 0 -30 6 -34 20 -4 17 0 20 29
20 19 0 34 5 34 10 0 6 -16 10 -35 10 -28 0 -35 4 -35 20 0 16 7 20 35 20 46
0 45 18 -1 22 -32 3 -38 7 -50 43 -7 22 -14 41 -14 43 0 1 90 2 200 2 l200 0
0 -35z"/>
</g>
</svg>
