<svg xmlns="http://www.w3.org/2000/svg" viewBox="0 0 147.5 147.5"><defs><style>.cls-1{fill:#fff;}</style></defs><title>messageРесурс 21</title><g id="Слой_2" data-name="Слой 2"><g id="Слой_3" data-name="Слой 3"><path class="cls-1" d="M73.75,147.5A73.75,73.75,0,1,1,147.5,73.75,73.83,73.83,0,0,1,73.75,147.5ZM73.75,5A68.75,68.75,0,1,0,142.5,73.75,68.83,68.83,0,0,0,73.75,5Z"/><path class="cls-1" d="M106.08,41.42a44.31,44.31,0,0,0-65.6,59.43c-2,4.07-4.33,6.78-7,8.08a4.13,4.13,0,0,0,1.19,7.8,22.21,22.21,0,0,0,3.13.24h0a28.71,28.71,0,0,0,15.93-5.16,44.33,44.33,0,0,0,52.33-70.39Zm-3.54,59.12a39.33,39.33,0,0,1-47.69,6.11,2.54,2.54,0,0,0-1.27-.36,2.67,2.67,0,0,0-1.54.52,23.89,23.89,0,0,1-13.9,5.11c3-2.23,5.49-5.68,7.59-10.49a2.51,2.51,0,0,0-.42-2.67,39.31,39.31,0,1,1,57.23,1.78Z"/><path class="cls-1" d="M92.81,71.07H56.23a2.84,2.84,0,0,0,0,5.63H92.81a2.84,2.84,0,0,0,0-5.63Z"/><path class="cls-1" d="M94.39,57.94H57.26a2.51,2.51,0,0,0,0,5H94.39a2.51,2.51,0,0,0,0-5Z"/><rect class="cls-1" x="53.76" y="57.94" width="47.28" height="5.62" rx="2.51" ry="2.51"/><rect class="cls-1" x="53.76" y="84.21" width="22.43" height="5.62" rx="2.81" ry="2.81"/></g></g></svg>