<svg xmlns="http://www.w3.org/2000/svg" viewBox="0 0 109.25 69.8"><defs><style>.cls-1{fill:#fff;}</style></defs><title>subscribРесурс 5</title><g id="Слой_2" data-name="Слой 2"><g id="Слой_1-2" data-name="Слой 1"><path class="cls-1" d="M109.24,58.92a6.57,6.57,0,0,0-3.9-6.25l-5-2.17-2.71-2.32A.86.86,0,0,0,97,48V45.79A10.3,10.3,0,0,0,101.57,39h1.16c1.52,0,2-7.83.86-8.2,0-.22,0-.44,0-.66A11.58,11.58,0,0,0,98,20.26h0a6.52,6.52,0,0,0-13,0h0a11.6,11.6,0,0,0-5.64,9.86q0,.33,0,.66c-1.11.37-.67,8.2.85,8.2h1.17a10.29,10.29,0,0,0,4.53,6.81V48a.86.86,0,0,0-.63.2L82.53,50.5l-2.34,1c.4.41.8.83,1.19,1.26l2.71-1.3,1.21-1a9.51,9.51,0,0,0,12.39.07l1.12,1,5.82,2.8a4.48,4.48,0,0,1,.9.52l-2.89,3.46A7.47,7.47,0,0,0,100.91,63v3h8ZM91.45,15.49a4.76,4.76,0,0,1,4.67,3.84,12.57,12.57,0,0,0-9.34,0A4.76,4.76,0,0,1,91.45,15.49ZM82.93,37.16V32.4h1.94a.87.87,0,0,0,.82-.55l1.06-2.66,1.07,2.66a.86.86,0,0,0,.81.55h6.58a.88.88,0,1,0,0-1.75h-6L87.57,26.5a.89.89,0,0,0-.82-.55.87.87,0,0,0-.81.55l-1.66,4.15H81.07c0-.18,0-.36,0-.53a10.41,10.41,0,0,1,20.8,0c0,.17,0,.35,0,.53H99a.88.88,0,1,0,0,1.75h1v3.82c0,2.58-.41,4-.67,4.25a8.52,8.52,0,0,1-16.37-3.31ZM95.27,49.63a7.25,7.25,0,0,1-7.64-.05V46.7a10.23,10.23,0,0,0,7.64,0Z"/><path class="cls-1" d="M29.93,30.78c0-.22,0-.44,0-.66a11.58,11.58,0,0,0-5.64-9.86h0a6.52,6.52,0,1,0-13,0h0a11.58,11.58,0,0,0-5.64,9.86c0,.22,0,.44,0,.66-1.1.37-.66,8.2.86,8.2H7.68a10.3,10.3,0,0,0,4.54,6.81V48a.84.84,0,0,0-.63.2L8.87,50.5l-5,2.17A6.54,6.54,0,0,0,0,58.92l.3,7.13h8V63a7.52,7.52,0,0,0-1.73-4.78L3.72,54.8a4.15,4.15,0,0,1,.89-.52l5.82-2.8,1.13-1a10.17,10.17,0,0,0,6.15,2.26A10.23,10.23,0,0,0,24,50.45l1.21,1,2.7,1.3q.59-.64,1.2-1.26l-2.34-1L24,48.18a.84.84,0,0,0-.63-.2V45.79A10.3,10.3,0,0,0,27.91,39h1.16C30.59,39,31,31.15,29.93,30.78ZM17.79,15.49a4.76,4.76,0,0,1,4.67,3.84,12.54,12.54,0,0,0-9.33,0A4.76,4.76,0,0,1,17.79,15.49Zm3.82,34.09a7.23,7.23,0,0,1-7.63.05V46.7a10.2,10.2,0,0,0,7.63,0Zm6.57-18.93H25L23.31,26.5a.88.88,0,0,0-.82-.55.87.87,0,0,0-.81.55L20,30.65H14a.88.88,0,1,0,0,1.75h6.57a.87.87,0,0,0,.82-.55l1.06-2.66,1.07,2.66a.86.86,0,0,0,.81.55h1.94v4.76A8.51,8.51,0,0,1,10,40.47c-.26-.23-.67-1.67-.67-4.25V32.4h1a.88.88,0,1,0,0-1.75H7.41c0-.18,0-.36,0-.53a10.18,10.18,0,0,1,10.39-9.93,10.18,10.18,0,0,1,10.4,9.93C28.19,30.29,28.19,30.47,28.18,30.65Z"/><path class="cls-1" d="M87.12,55.4c.16-4-5.21-7.56-9-8.9L71.07,44a1.17,1.17,0,0,0-.32-.53l-3.91-3.92a1.23,1.23,0,0,0-.94-.36h0V35.85a14.2,14.2,0,0,0,3.69-7.28H71.2a2.06,2.06,0,0,0,2-2.06V19.12A2.14,2.14,0,0,0,71.11,17V12.07a10.85,10.85,0,0,0-4.69-8.65A18.2,18.2,0,0,0,55.52,0,18.15,18.15,0,0,0,44.63,3.42a10.86,10.86,0,0,0-4.7,8.65V17h-.08A2.06,2.06,0,0,0,37.79,19v5.85a3.68,3.68,0,0,0,3.67,3.68,14.29,14.29,0,0,0,3.7,7.28v3.34h0a1.22,1.22,0,0,0-.93.36l-3.92,3.92A1.3,1.3,0,0,0,40,44L32.91,46.5c-3.76,1.34-9.14,4.92-9,8.9l.58,14.4h14V62a9.05,9.05,0,0,0-2.65-6.41L30.94,50.7a6.57,6.57,0,0,1,2.79-1.89l7.19-2.56L45.14,53a3.85,3.85,0,0,0,5.56,1L53,52.3l.48.6a2.68,2.68,0,0,0,1.46.94A2.53,2.53,0,0,0,57.5,53L58,52.3,60.35,54a3.85,3.85,0,0,0,4.84-.18,4,4,0,0,0,.72-.86l4.22-6.75,7.2,2.56a6.57,6.57,0,0,1,2.79,1.89l-4.87,4.87A9.06,9.06,0,0,0,72.59,62V69.8h14ZM63.45,41.6l-7.86,9.83a.09.09,0,0,1-.07,0,.07.07,0,0,1-.06,0L47.6,41.61V37.92a14.26,14.26,0,0,0,15.85,0Zm-7.93-3.72A11.86,11.86,0,0,1,43.68,26V19.42h.51a2.52,2.52,0,0,0,2.35-1.59,1.22,1.22,0,0,0-2.27-.9.08.08,0,0,1-.08.05H42.38V12.07c0-5.31,5.9-9.63,13.14-9.63s13.15,4.32,13.15,9.63V17H66.86a.08.08,0,0,1-.08-.05l-1.63-4.07a3.8,3.8,0,0,0-3.56-2.41H49.46a3.83,3.83,0,0,0-3.31,1.89,1.22,1.22,0,0,0,2.11,1.24,1.39,1.39,0,0,1,1.2-.69H61.59a1.39,1.39,0,0,1,1.29.88l1.63,4.06a2.51,2.51,0,0,0,2.35,1.59h.5v5.31a16.7,16.7,0,0,1-.93,5.91A11.86,11.86,0,0,1,55.52,37.88Z"/></g></g></svg>