<?xml version="1.0" standalone="no"?>
<!DOCTYPE svg PUBLIC "-//W3C//DTD SVG 20010904//EN"
 "http://www.w3.org/TR/2001/REC-SVG-20010904/DTD/svg10.dtd">
<svg version="1.0" xmlns="http://www.w3.org/2000/svg"
 width="64.000000pt" height="64.000000pt" viewBox="0 0 64.000000 64.000000"
 preserveAspectRatio="xMidYMid meet">
<metadata>
Created by potrace 1.15, written by Peter Selinger 2001-2017
</metadata>
<g transform="translate(0.000000,64.000000) scale(0.100000,-0.100000)"
fill="#FFFFFF" stroke="none">
<path d="M250 530 c0 -20 5 -30 15 -30 8 0 15 -4 15 -10 0 -5 -8 -10 -18 -10
-32 0 -140 -60 -168 -93 -65 -76 -95 -193 -54 -204 27 -7 27 -43 0 -43 -16 0
-20 -7 -20 -30 l0 -30 300 0 300 0 0 30 c0 23 -4 30 -20 30 -27 0 -27 36 0 43
25 6 27 46 5 108 -30 85 -109 157 -199 181 -44 12 -62 28 -31 28 10 0 15 10
15 30 l0 30 -70 0 -70 0 0 -30z m180 -101 c25 -11 60 -35 78 -52 41 -39 80
-109 63 -115 -13 -4 -15 -42 -2 -42 5 0 12 8 15 18 3 10 4 6 3 -8 l-2 -25
-265 0 -265 0 -2 25 c-1 14 0 18 3 8 3 -10 10 -18 15 -18 13 0 11 38 -3 42
-17 6 33 89 74 123 79 67 197 85 288 44z m130 -269 c0 -19 -7 -20 -240 -20
-233 0 -240 1 -240 20 0 19 7 20 240 20 233 0 240 -1 240 -20z"/>
</g>
</svg>
