<?xml version="1.0" standalone="no"?>
<!DOCTYPE svg PUBLIC "-//W3C//DTD SVG 20010904//EN"
 "http://www.w3.org/TR/2001/REC-SVG-20010904/DTD/svg10.dtd">
<svg version="1.0" xmlns="http://www.w3.org/2000/svg"
 width="100.000000pt" height="100.000000pt" viewBox="0 0 100.000000 100.000000"
 preserveAspectRatio="xMidYMid meet">
<metadata>
Created by potrace 1.15, written by Peter Selinger 2001-2017
</metadata>
<g transform="translate(0.000000,100.000000) scale(0.100000,-0.100000)"
fill="#FFFFFF" stroke="none">
<path d="M662 887 c-93 -94 -112 -127 -69 -127 15 0 52 30 115 93 93 94 112
127 69 127 -15 0 -52 -30 -115 -93z"/>
<path d="M23 695 c-22 -15 -23 -23 -23 -130 0 -90 3 -117 16 -129 22 -22 64
-20 91 6 21 20 26 20 77 9 72 -16 139 -61 179 -118 101 -150 208 -198 347
-157 63 19 150 99 169 155 10 31 15 35 39 31 42 -6 76 27 76 73 0 46 -34 79
-76 73 -24 -4 -29 0 -38 28 -16 47 -83 119 -137 145 -35 17 -70 23 -144 27
l-97 5 -18 -34 -18 -34 -6 30 -5 30 -205 3 c-173 2 -208 0 -227 -13z m389
-102 c3 -59 6 -68 23 -71 16 -2 29 13 59 69 l38 71 79 -4 c98 -6 158 -39 204
-112 62 -100 30 -232 -72 -296 -112 -71 -235 -40 -315 81 -54 83 -119 135
-196 159 -35 11 -75 20 -88 20 -22 0 -24 4 -24 45 0 33 -5 47 -16 52 -24 9
-34 -15 -34 -80 0 -42 -3 -58 -12 -55 -14 5 -23 125 -13 165 5 23 7 23 185 23
l179 0 3 -67z"/>
</g>
</svg>
