<?xml version="1.0" encoding="UTF-8"?>
<!DOCTYPE svg PUBLIC "-//W3C//DTD SVG 1.1//EN" "http://www.w3.org/Graphics/SVG/1.1/DTD/svg11.dtd">
<!-- Creator: CorelDRAW -->
<svg xmlns="http://www.w3.org/2000/svg" xml:space="preserve" width="8.6668mm" height="8.6666mm" version="1.1" style="shape-rendering:geometricPrecision; text-rendering:geometricPrecision; image-rendering:optimizeQuality; fill-rule:evenodd; clip-rule:evenodd"
viewBox="0 0 90.96 90.95"
 xmlns:xlink="http://www.w3.org/1999/xlink"
 xmlns:xodm="http://www.corel.com/coreldraw/odm/2003">
 <defs>
  <style type="text/css">
   <![CDATA[
    .str0 {stroke:#DE0000;stroke-width:2.1;stroke-miterlimit:22.9256}
    .fil1 {fill:white}
    .fil0 {fill:#DE0000}
   ]]>
  </style>
 </defs>
 <g id="Capa_x0020_1">
  <metadata id="CorelCorpID_0Corel-Layer"/>
  <g id="_105553341040640">
   <circle class="fil0 str0" cx="45.48" cy="45.48" r="44.43"/>
   <g>
    <path class="fil1" d="M33.05 47.02c6.62,0 11.87,-0.57 16.97,-3.88 2.42,-1.57 1.73,-2.29 4.65,-3.07 0.85,3.66 2.52,3.63 2.92,6.36 0.48,3.32 -0.37,2.13 -0.44,3.95 -0.18,4.49 -0.61,2.02 1.39,2.82l0 3.09 -2.32 0c-0.51,6.15 -1.95,9.38 -6.73,11.83l-4.08 1.63c-1.1,-0 -6.13,-2.16 -7.77,-4.15 -1.79,-2.17 -2.73,-5.6 -3.04,-9.31l-2.32 0 0 -3.09c2.54,-1.02 1.46,-0.84 0.77,-6.18zm-1.54 -3.09l-2.32 0c0,2.9 0.5,3.47 0.61,4.89 0.52,6.71 -4.57,0.15 1.3,10.96 0.72,1.32 2.41,5.97 2.72,7.31l-10.04 0c0,-11.75 -3.51,-20.71 0.77,-30.89 4.59,-10.92 14.98,-19.1 26.04,-13.68 3.42,1.68 2.73,2.9 5.11,4.16 2.27,1.2 7.7,1.05 10.48,8.05 4.7,11.84 0.84,22.66 0.84,32.36l-10.04 0c1.88,-8.06 5.4,-9.44 5.4,-13.9 0,-1.42 -1.54,-0.9 -1.54,-2.32 0,-6.87 2.52,-2.77 -1.7,-9.11 -1.77,-2.67 -2.91,-6.01 -3.71,-9.42 -3.3,2.42 -3.65,11.58 -23.94,11.58zm-12.35 0.77c0,12.71 1.37,17.48 1.54,25.48l15.44 0c4.1,0 5.17,3.09 9.27,3.09 4.36,0 4.38,-3 10.76,-3.13 4.56,-0.1 9.35,0.05 13.94,0.05 0.92,-11.04 5.73,-37.54 -6.66,-44.3 -5.05,-2.75 -3.41,0.16 -8.61,-4.52 -4.39,-3.96 -7.71,-3.68 -13.3,-3.68 -11.59,0 -22.39,14.99 -22.39,27.02z"/>
    <polygon class="fil1" points="37.68,54.74 40.77,54.74 40.77,51.66 37.68,51.66 "/>
    <polygon class="fil1" points="50.04,54.74 53.13,54.74 53.13,51.66 50.04,51.66 "/>
   </g>
  </g>
 </g>
</svg>
