<?xml version="1.0" encoding="UTF-8"?>
<!DOCTYPE svg PUBLIC "-//W3C//DTD SVG 1.1//EN" "http://www.w3.org/Graphics/SVG/1.1/DTD/svg11.dtd">
<!-- Creator: CorelDRAW -->
<svg xmlns="http://www.w3.org/2000/svg" xml:space="preserve" width="8.6668mm" height="8.6666mm" version="1.1" style="shape-rendering:geometricPrecision; text-rendering:geometricPrecision; image-rendering:optimizeQuality; fill-rule:evenodd; clip-rule:evenodd"
viewBox="0 0 85.75 85.75"
 xmlns:xlink="http://www.w3.org/1999/xlink"
 xmlns:xodm="http://www.corel.com/coreldraw/odm/2003">
 <defs>
  <style type="text/css">
   <![CDATA[
    .str0 {stroke:#D2D4D5;stroke-width:1.98;stroke-miterlimit:22.9256}
    .fil0 {fill:#D2D4D5}
    .fil1 {fill:#96989B}
   ]]>
  </style>
 </defs>
 <g id="Capa_x0020_1">
  <metadata id="CorelCorpID_0Corel-Layer"/>
  <g id="_105553341643072">
   <circle class="fil0 str0" cx="42.87" cy="42.87" r="41.88"/>
   <g>
    <path class="fil1" d="M31.16 44.33c6.24,0 11.19,-0.53 15.99,-3.66 2.28,-1.48 1.63,-2.16 4.39,-2.89 0.8,3.45 2.38,3.42 2.75,5.99 0.46,3.13 -0.35,2.01 -0.42,3.72 -0.17,4.24 -0.58,1.9 1.31,2.66l0 2.91 -2.18 0c-0.48,5.8 -1.84,8.84 -6.34,11.15l-3.85 1.54c-1.04,-0 -5.78,-2.04 -7.32,-3.91 -1.69,-2.04 -2.58,-5.28 -2.87,-8.78l-2.18 0 0 -2.91c2.39,-0.97 1.37,-0.8 0.73,-5.82zm-1.46 -2.91l-2.18 0c0,2.73 0.47,3.27 0.57,4.61 0.49,6.33 -4.3,0.14 1.22,10.33 0.68,1.25 2.27,5.63 2.57,6.89l-9.46 0c0,-11.07 -3.31,-19.52 0.72,-29.12 4.33,-10.29 14.12,-18.01 24.55,-12.9 3.22,1.58 2.57,2.73 4.81,3.92 2.14,1.13 7.26,0.99 9.88,7.59 4.43,11.16 0.79,21.36 0.79,30.51l-9.46 0c1.77,-7.59 5.1,-8.9 5.1,-13.1 0,-1.33 -1.46,-0.85 -1.46,-2.18 0,-6.47 2.37,-2.61 -1.6,-8.59 -1.67,-2.52 -2.75,-5.67 -3.5,-8.88 -3.11,2.28 -3.44,10.92 -22.57,10.92zm-11.65 0.73c0,11.98 1.29,16.48 1.46,24.02l14.56 0c3.86,0 4.87,2.91 8.74,2.91 4.11,0 4.13,-2.83 10.15,-2.96 4.3,-0.09 8.82,0.04 13.14,0.04 0.87,-10.41 5.4,-35.39 -6.28,-41.76 -4.76,-2.6 -3.21,0.16 -8.11,-4.26 -4.14,-3.73 -7.27,-3.47 -12.54,-3.47 -10.93,0 -21.11,14.13 -21.11,25.48z"/>
    <polygon class="fil1" points="35.53,51.61 38.44,51.61 38.44,48.7 35.53,48.7 "/>
    <polygon class="fil1" points="47.17,51.61 50.09,51.61 50.09,48.7 47.17,48.7 "/>
   </g>
  </g>
 </g>
</svg>
