<?xml version="1.0" encoding="UTF-8"?>
<!DOCTYPE svg PUBLIC "-//W3C//DTD SVG 1.1//EN" "http://www.w3.org/Graphics/SVG/1.1/DTD/svg11.dtd">
<!-- Creator: CorelDRAW -->
<svg xmlns="http://www.w3.org/2000/svg" xml:space="preserve" width="8.6668mm" height="8.6666mm" version="1.1" style="shape-rendering:geometricPrecision; text-rendering:geometricPrecision; image-rendering:optimizeQuality; fill-rule:evenodd; clip-rule:evenodd"
viewBox="0 0 65.58 65.58"
 xmlns:xlink="http://www.w3.org/1999/xlink"
 xmlns:xodm="http://www.corel.com/coreldraw/odm/2003">
 <defs>
  <style type="text/css">
   <![CDATA[
    .str0 {stroke:#D2D4D5;stroke-width:1.51;stroke-miterlimit:22.9256}
    .fil0 {fill:#D2D4D5}
    .fil1 {fill:#96989B}
   ]]>
  </style>
 </defs>
 <g id="Capa_x0020_1">
  <metadata id="CorelCorpID_0Corel-Layer"/>
  <g id="_105553341694208">
   <circle class="fil0 str0" cx="32.79" cy="32.79" r="32.03"/>
   <path class="fil1" d="M22.09 36.28l2.3 0c0,-14.04 7.35,-6.79 16.13,-12.67 5.28,2.8 4.61,5.04 4.61,12.67l2.3 0c-0.73,1.53 -0.53,0.62 -0.58,2.88l-1.73 0c-0.6,7.22 -6.79,11.24 -10.37,11.24 -3.43,0 -9.76,-3.89 -10.37,-11.24l-1.73 0c-0.05,-2.26 0.16,-1.35 -0.58,-2.88zm0 -6.34c0,-4.64 -0.45,-4.72 -2.3,-7.49 2.21,-1.48 3.01,-3.09 5.63,-4.74 8.7,-5.48 11.76,-1.41 14.37,0.29 2.09,1.36 7.65,0.56 7.65,9.06 -0.08,-0.12 -0.18,-0.45 -0.21,-0.36 -0.37,1 -0.28,-4.34 -7.28,-5.97 -1.64,1.1 -1.59,1.69 -3.91,2.42 -2.29,0.73 -8.72,-0.61 -12.55,4.73l-1.39 2.07zm-6.34 -5.76c6.88,0.57 2.81,11.71 4.7,15.46 0.61,1.21 -0.12,-0.15 0.72,1.01 0.9,1.24 0.02,-0.46 0.95,1.35 1.85,3.57 1.45,6.12 6.68,8.87 5.18,2.73 6.64,2.62 11.54,0.2 5.32,-2.63 4.59,-4.58 8.51,-11.07 1.64,-2.72 0.51,-4.64 0.54,-5.95 0.16,-6.45 2.5,-14.25 -5.42,-17.35 -0.64,-0.25 -1.94,-0.59 -2.55,-0.9 -3.15,-1.59 -1.31,-3.14 -9.54,-3.14 -4.65,0 -10.38,4.38 -13.41,7.33 -1.56,1.52 -2.52,1.78 -2.72,4.19z"/>
  </g>
 </g>
</svg>
