<?xml version="1.0" encoding="UTF-8"?>
<!DOCTYPE svg PUBLIC "-//W3C//DTD SVG 1.1//EN" "http://www.w3.org/Graphics/SVG/1.1/DTD/svg11.dtd">
<!-- Creator: CorelDRAW -->
<svg xmlns="http://www.w3.org/2000/svg" xml:space="preserve" width="8.6668mm" height="8.6666mm" version="1.1" style="shape-rendering:geometricPrecision; text-rendering:geometricPrecision; image-rendering:optimizeQuality; fill-rule:evenodd; clip-rule:evenodd"
viewBox="0 0 68.59 68.59"
 xmlns:xlink="http://www.w3.org/1999/xlink"
 xmlns:xodm="http://www.corel.com/coreldraw/odm/2003">
 <defs>
  <style type="text/css">
   <![CDATA[
    .str0 {stroke:#DE0000;stroke-width:1.58;stroke-miterlimit:22.9256}
    .fil1 {fill:white}
    .fil0 {fill:#DE0000}
   ]]>
  </style>
 </defs>
 <g id="Capa_x0020_1">
  <metadata id="CorelCorpID_0Corel-Layer"/>
  <g id="_105553340952928">
   <circle class="fil0 str0" cx="34.29" cy="34.29" r="33.5"/>
   <path class="fil1" d="M23.1 37.95l2.41 0c0,-14.68 7.68,-7.1 16.87,-13.25 5.53,2.92 4.82,5.27 4.82,13.25l2.41 0c-0.77,1.6 -0.55,0.64 -0.6,3.01l-1.81 0c-0.63,7.55 -7.1,11.76 -10.84,11.76 -3.58,0 -10.2,-4.07 -10.84,-11.76l-1.81 0c-0.05,-2.37 0.16,-1.41 -0.6,-3.01zm0 -6.63c0,-4.86 -0.47,-4.93 -2.41,-7.83 2.31,-1.55 3.14,-3.23 5.88,-4.96 9.09,-5.73 12.3,-1.47 15.03,0.31 2.18,1.42 8,0.58 8,9.47 -0.08,-0.12 -0.19,-0.47 -0.22,-0.38 -0.39,1.05 -0.3,-4.54 -7.61,-6.24 -1.71,1.15 -1.66,1.76 -4.09,2.53 -2.39,0.76 -9.12,-0.64 -13.13,4.94l-1.45 2.16zm-6.63 -6.02c7.2,0.6 2.94,12.25 4.92,16.17 0.64,1.26 -0.13,-0.15 0.75,1.06 0.94,1.3 0.02,-0.48 1,1.41 1.93,3.73 1.51,6.4 6.98,9.28 5.41,2.85 6.95,2.74 12.06,0.2 5.56,-2.75 4.8,-4.79 8.9,-11.58 1.71,-2.84 0.53,-4.85 0.56,-6.22 0.17,-6.75 2.62,-14.9 -5.67,-18.14 -0.67,-0.26 -2.02,-0.62 -2.67,-0.95 -3.29,-1.66 -1.37,-3.28 -9.97,-3.28 -4.87,0 -10.86,4.58 -14.02,7.67 -1.63,1.59 -2.64,1.87 -2.85,4.38z"/>
  </g>
 </g>
</svg>
