<?xml version="1.0" encoding="UTF-8"?>
<!DOCTYPE svg PUBLIC "-//W3C//DTD SVG 1.1//EN" "http://www.w3.org/Graphics/SVG/1.1/DTD/svg11.dtd">
<!-- Creator: CorelDRAW -->
<svg xmlns="http://www.w3.org/2000/svg" xml:space="preserve" width="28.2572mm" height="74.2693mm" version="1.1" style="shape-rendering:geometricPrecision; text-rendering:geometricPrecision; image-rendering:optimizeQuality; fill-rule:evenodd; clip-rule:evenodd"
viewBox="0 0 409.28 1075.72"
 xmlns:xlink="http://www.w3.org/1999/xlink"
 xmlns:xodm="http://www.corel.com/coreldraw/odm/2003">
 <defs>
  <style type="text/css">
   <![CDATA[
    .str0 {stroke:#96989B;stroke-width:1.1;stroke-miterlimit:22.9256}
    .fil0 {fill:#D2D4D5}
    .fil1 {fill:#96989B}
    .fil2 {fill:#858789}
   ]]>
  </style>
 </defs>
 <g id="Capa_x0020_1">
  <metadata id="CorelCorpID_0Corel-Layer"/>
  <g id="_105553376722592">
   <path class="fil0" d="M323.49 469.63c-7.5,-19.03 0.06,-23.26 -1.26,-41.41 -1.6,-22.05 -22.24,-24.69 -12.45,-78.64 1.07,-5.9 5.83,-36.74 7.2,-39.66 4.26,7.07 3.61,29.17 5.91,39.47 4.33,19.36 4.68,2.84 6.86,37.48 2.24,35.51 8.4,41.55 21.32,67.29 35.64,71.02 11.28,67.39 4.18,79.41 -6.51,11.03 -13.07,32.02 -8.24,44.51 5.69,14.71 8.04,0.65 20.32,5.33 9.01,3.43 8.53,3.58 19.47,1.74 16.76,-2.82 16.71,-8.88 16.53,-25.57 -0.3,-28.09 -0.66,-55.37 -2.14,-82.87 -0.74,-13.73 -1.92,-27.46 -2.14,-41.35 -0.39,-24.28 6.65,-50.51 -8.73,-71.72 -8.39,-11.58 -6.84,-4.42 -15.34,-26.19 -17.46,-44.71 1.98,-117.05 -27.63,-140.91 -18.72,-15.07 -43.83,-12.42 -62.36,-21.9 -5.9,-3.02 -8.2,-5.42 -13.05,-8.47 -16.23,-10.21 -25.58,0.3 -32.74,-30.26 -7.57,8.28 -16.61,20.34 -33.72,21.01 -15.21,0.6 -30.89,-10.09 -34.98,-17.55 -1.08,29.9 0.64,21.61 -44.68,39.4 -10.69,4.2 -19.12,11.84 -28.86,13.15 -12.13,1.63 -20.88,5.86 -29.94,10.93 -21.11,11.8 -25.27,32 -27.55,56.58 -5.67,61.26 -6.24,29.59 -16.77,66.53 -4.6,16.13 1.9,18.94 -8.47,33.92 -14.47,20.91 -9.02,86.81 -8.45,115.5 0.19,9.59 -0.1,32.37 2.27,40.35 2.06,6.94 4.12,7.89 4.41,16.66 0.46,13.57 -2.65,45.91 10.89,50.41 7.56,2.52 18.2,-1.72 27.13,4.46 5.49,3.8 -1.12,2.19 6.37,4.18 10.69,-5.94 9.51,-22.44 9.48,-36.22 -0.03,-13.79 -9.56,-20.26 -16.08,-29.05 -10.72,-14.47 -10.45,-10.37 -6.83,-32.74 9.57,-59.12 30.69,-66.33 23.88,-101.42 -2.1,-10.82 6.53,-24.57 10.11,-33.18l12.31 -30.51c10.81,3.05 9.34,20.28 9.75,31.36 2.01,55.52 -10.81,51.78 -8.42,74.3 0.77,7.24 3.7,9.63 4.15,15.74 0.64,8.68 -3.08,8.68 -3.61,15.63 8.08,5.69 16.19,8.95 25.22,14.37 23.65,14.22 62.11,28.17 88.64,30.36 34.38,2.84 103.75,-20.61 118.07,-40.44z"/>
   <path class="fil0" d="M80.87 573.53c-3.63,26.23 -2.74,52.21 2.11,76.99 2.22,11.35 4.63,22.71 7.46,34.09 2.77,11.09 7.58,19.7 9.64,31.26 11.66,65.21 -1.44,79.08 -3.87,113.5 -1.97,27.86 36.42,132.87 3.99,180.39 -36.13,52.94 -17.49,54.06 29.42,59.54 12.66,1.48 27.39,4.31 28.67,-10.03 1.76,-19.66 -9.22,-22.43 3.17,-55.27 5.57,-14.78 0.54,-41.34 -1.92,-54.76 -5.17,-28.18 17.29,-74.58 14.46,-109.84 -4.43,-55.19 0.07,-34.84 7.11,-72.89 2.37,-12.81 1.14,-27.26 2.56,-40.54l10.15 -72.07c1.88,-12.49 2.2,-25.85 4,-37.69 2.68,-17.71 4.06,-19.26 -12.6,-24.92 -18.22,-6.19 -94.67,-21.35 -104.35,-17.75z"/>
   <path class="fil0" d="M347.55 1064.04c3.62,-16.44 -4.85,-16.58 -15.19,-21.46 -20.38,-9.61 -17.52,-13.29 -30.42,-28.24 -10.18,-11.81 -14.17,-6.62 -15.16,-40.71 -1.9,-64.89 15.94,-80.59 14.51,-138.51 -0.27,-11.02 -1.23,-24.19 -4.51,-33.91 -4.78,-14.2 -5.42,-18.39 -4.42,-34.66 2.08,-33.99 4.57,-33.65 15.54,-60.48 14.95,-36.58 25.33,-82.38 20.88,-128.53 -13.24,-2.4 -101.71,20.97 -117.24,24.04 1.11,48.12 2.12,34.27 7.09,75.09 3.21,26.31 2.96,48.99 4.35,75.69 1.5,28.98 16.67,33.52 5.2,65.32 -20.23,56.05 22.75,100.56 16.37,169.41 -1.44,15.53 5.04,20.84 3.71,33.42 -1.33,12.58 -6.96,23.12 6.69,28.11 4.7,1.72 10.64,2.2 15.06,4.57 6.63,3.54 5.67,7.06 10.44,9.65 16.62,9.02 48.84,8.72 67.11,1.21z"/>
   <path class="fil1 str0" d="M347.55 1064.04c-18.28,7.51 -50.49,7.81 -67.11,-1.21 -4.77,-2.59 -3.81,-6.12 -10.44,-9.65 -4.43,-2.36 -10.36,-2.85 -15.06,-4.57 -13.65,-4.99 -8.02,-15.53 -6.69,-28.11 1.33,-12.58 -5.14,-17.9 -3.71,-33.42 6.38,-68.86 -36.6,-113.37 -16.37,-169.41 11.48,-31.8 -3.69,-36.33 -5.2,-65.32 -1.39,-26.7 -1.14,-49.38 -4.35,-75.69 -4.98,-40.81 -5.99,-26.97 -7.09,-75.09 15.53,-3.06 103.99,-26.43 117.24,-24.04 4.45,46.15 -5.93,91.95 -20.88,128.53 -10.97,26.84 -13.45,26.49 -15.54,60.48 -1,16.27 -0.36,20.47 4.42,34.66 3.27,9.72 4.23,22.89 4.51,33.91 1.43,57.92 -16.41,73.62 -14.51,138.51 1,34.08 4.98,28.9 15.16,40.71 12.9,14.95 10.04,18.63 30.42,28.24 10.35,4.88 18.81,5.02 15.19,21.46zm-266.67 -490.51c9.68,-3.6 86.13,11.56 104.35,17.75 16.67,5.66 15.29,7.21 12.6,24.92 -1.79,11.84 -2.12,25.2 -4,37.69l-10.15 72.07c-1.43,13.29 -0.19,27.74 -2.56,40.54 -7.05,38.06 -11.54,17.7 -7.11,72.89 2.83,35.26 -19.63,81.65 -14.46,109.84 2.46,13.42 7.5,39.98 1.92,54.76 -12.39,32.85 -1.41,35.61 -3.17,55.27 -1.28,14.34 -16.01,11.51 -28.67,10.03 -46.91,-5.48 -65.55,-6.6 -29.42,-59.54 32.43,-47.52 -5.95,-152.53 -3.99,-180.39 2.43,-34.42 15.52,-48.29 3.87,-113.5 -2.07,-11.56 -6.88,-20.17 -9.64,-31.26 -2.84,-11.38 -5.24,-22.74 -7.46,-34.09 -4.86,-24.78 -5.74,-50.76 -2.11,-76.99zm9.25 -102.11c10.24,2.44 52.31,36.5 112.8,43.62 24.26,2.86 46.56,-4.48 67.03,-11.19 9.66,-3.17 19.14,-6.33 28.74,-10.93 10.96,-5.25 15.99,-9.32 25.44,-15.27 1.05,1.63 0.44,-0.68 1.79,4.22 3.82,13.88 6.16,70.9 2.62,84.18 -1.74,6.51 -0.04,1.87 -2.42,4.26 -4.86,4.09 -69.6,14.27 -83.31,17.47 -9.3,2.17 -33.13,11.86 -40.89,6.63 -3.77,-2.54 -2.88,-3.02 -7.68,-5.24 -21.95,-10.14 -69.43,-16.53 -94.62,-19.83 -14.55,-1.9 -16.91,-0.53 -18.39,-6.61 -5.06,-20.77 2.33,-73.09 8.89,-91.32zm233.37 -1.8c-14.32,19.83 -83.69,43.28 -118.07,40.44 -26.53,-2.19 -64.99,-16.14 -88.64,-30.36 -9.03,-5.43 -17.14,-8.68 -25.22,-14.37 0.53,-6.95 4.25,-6.95 3.61,-15.63 -0.45,-6.11 -3.38,-8.5 -4.15,-15.74 -2.4,-22.52 10.43,-18.78 8.42,-74.3 -0.4,-11.08 1.06,-28.31 -9.75,-31.36l-12.31 30.51c-3.58,8.61 -12.21,22.36 -10.11,33.18 6.81,35.09 -14.31,42.31 -23.88,101.42 -3.62,22.37 -3.9,18.26 6.83,32.74 6.52,8.8 16.05,15.26 16.08,29.05 0.03,13.77 1.21,30.27 -9.48,36.22 -7.48,-1.99 -0.88,-0.38 -6.37,-4.18 -8.93,-6.18 -19.57,-1.94 -27.13,-4.46 -13.54,-4.51 -10.43,-36.84 -10.89,-50.41 -0.29,-8.77 -2.35,-9.72 -4.41,-16.66 -2.37,-7.98 -2.08,-30.76 -2.27,-40.35 -0.57,-28.69 -6.02,-94.59 8.45,-115.5 10.37,-14.98 3.88,-17.79 8.47,-33.92 10.53,-36.94 11.1,-5.27 16.77,-66.53 2.28,-24.58 6.44,-44.78 27.55,-56.58 9.06,-5.07 17.81,-9.3 29.94,-10.93 9.74,-1.31 18.17,-8.95 28.86,-13.15 45.32,-17.8 43.61,-9.51 44.68,-39.4 4.1,7.45 19.77,18.14 34.98,17.55 17.11,-0.67 26.16,-12.73 33.72,-21.01 7.16,30.56 16.52,20.06 32.74,30.26 4.86,3.06 7.15,5.45 13.05,8.47 18.53,9.49 43.64,6.83 62.36,21.9 29.61,23.85 10.17,96.2 27.63,140.91 8.5,21.77 6.95,14.61 15.34,26.19 15.37,21.21 8.34,47.45 8.73,71.72 0.22,13.89 1.4,27.62 2.14,41.35 1.48,27.5 1.84,54.78 2.14,82.87 0.18,16.69 0.22,22.75 -16.53,25.57 -10.94,1.84 -10.46,1.7 -19.47,-1.74 -12.27,-4.68 -14.63,9.38 -20.32,-5.33 -4.83,-12.49 1.73,-33.48 8.24,-44.51 7.1,-12.03 31.47,-8.39 -4.18,-79.41 -12.92,-25.74 -19.08,-31.78 -21.32,-67.29 -2.18,-34.64 -2.53,-18.12 -6.86,-37.48 -2.3,-10.3 -1.65,-32.41 -5.91,-39.47 -1.37,2.91 -6.13,33.76 -7.2,39.66 -9.79,53.95 10.85,56.59 12.45,78.64 1.32,18.15 -6.23,22.38 1.26,41.41zm-170.23 -374.07c0.28,-0.28 0.69,-0.62 0.9,-0.8l7.08 -6.26c5.41,-5.4 9.13,-22.17 10.12,-29.98 2.44,-19.27 0.41,-17.96 32.69,-19.41 28.57,-1.28 24.1,0.73 28.69,24.85 0.35,1.84 12.33,39.73 12.51,40l5.98 -21.28c0.75,0.14 6.09,-2.27 6.03,9.97 -0.1,19.55 -9.93,14.89 -13.82,22.3 -0.39,0.75 -1.34,3.9 -1.84,5.18 -5.42,13.94 -16.16,26.55 -28.11,30.38 -27.98,8.96 -42.8,-17.2 -50.02,-35.68 -4.22,-10.79 -7.88,-1.45 -10.2,-19.28zm0.43 -18.57c-9.58,2.48 -5.41,28.09 0.05,34.54 7.38,8.73 4.12,6.1 7.14,17.08 2.12,7.71 4.95,10.37 4.83,19.82 -0.24,19.36 -27.63,15.29 -60.46,35.55 -6.9,4.26 -10.89,2.58 -18.12,4.62 -5.54,1.57 -12.4,4.66 -17.19,7.11 -48.21,24.65 -26.11,66.65 -41.72,103.97 -4.46,10.67 -11.05,21.42 -12.1,35.72 -3.39,46.09 -17.81,-15.58 -15.3,129.94 0.23,13.62 -0.43,33.97 1.21,46.83 0.85,6.65 4.74,10.75 5.51,17.67 1.6,14.38 -4.32,53.47 15.33,58 7.4,1.71 15.62,-1.01 22.16,2.09 8.93,4.23 0.62,7.43 17.48,6.15 6.74,-13.03 7.73,-14.54 8.27,-32.23 1.3,-42.27 -27.5,-33.8 -23.98,-61.11 1.25,-9.67 3.93,-27.28 6.78,-36.37 5.76,-18.38 21.67,-45.51 20.6,-65.33 -0.37,-6.83 -3.43,-10.38 -1.96,-17.48 1.17,-5.64 4.24,-10.1 6.47,-15.03 3.46,-7.63 9.87,-21.62 11.86,-31.08 3.9,4.61 3.61,13.56 3.88,20.77 0.31,8.24 0.12,15.02 -0.59,22.11 -0.74,7.41 0.2,14.57 -1.6,21.9 -1.46,5.96 -4.33,10.29 -5.69,16.96 -3.59,17.58 6.4,28.53 2.7,37.3 -7.38,17.5 -1.67,2.25 -5.24,17.6 -1.48,6.37 -2.98,11.42 -4.33,18.02 -2.73,13.3 -4.65,27.38 -4.96,41.75 -0.32,14.84 2.59,29.73 0.88,43.45 -3.79,30.4 -1.56,55.82 4.72,84.09 2.63,11.86 4.88,26.16 9.3,36.62 10.76,25.47 9.02,53.68 8.9,79.97 -0.08,16.39 -3.71,26.53 -5.93,41.32 -6.16,41.06 25.64,99.63 12.61,162.65 -6.8,32.87 -24.61,36.84 -28.1,63.36 -2.13,16.21 7.15,21.47 20.65,24.63 9.8,2.29 30.75,4.67 41.92,5.16 42.11,1.82 11.85,-37.4 24.08,-64.65 12.23,-27.23 -1.85,-53.98 1.54,-83.2 4.67,-40.23 14.21,-53.19 13.93,-77.85 -0.17,-14.86 -3.07,-28.75 -1.99,-44.22 1.01,-14.45 6.19,-24.75 8.67,-38.02 2.51,-13.42 1.41,-29.65 2.77,-43.3 3,-30.34 9.21,-57.43 11.49,-80.04 1.1,-10.94 1.32,-33.35 5.3,-41.07 3.21,5.83 1.86,28.09 2.62,36.73 1.01,11.54 3.77,23.7 5.33,34.72 3.73,26.36 3.9,49.77 4.71,76.71 0.93,30.91 16.54,34.29 5.11,66.01 -16.78,46.54 10.49,90.06 15.62,137.42 1.71,15.75 0.48,24.43 0.5,39.31 0.01,7.67 2.15,11.21 3.37,17.34 3.26,16.46 -13.18,35.81 14.71,43.38 5.89,1.6 11.19,2.44 14.22,5.89 7.07,8.04 -1.78,5.07 12.62,8.9 14.97,3.98 16.17,5.85 34.19,5.43 10.53,-0.25 25.12,-3.79 34.13,-6.82 4.65,-34.08 -14.68,-18.52 -37.1,-44.17 -5.45,-6.24 -8.27,-11.18 -12.63,-15.91 -6.46,-7 -8.14,-4.59 -10.19,-16.46 -2.96,-17.18 -0.69,-62.41 3.15,-77.35 24.02,-93.47 -0.14,-110.7 1.26,-145.87 2.34,-59.13 26.28,-63.29 35.17,-130.17 1.96,-14.77 2.37,-37.47 1.79,-52.61 -1.83,-48.16 6.81,-45.52 -4.36,-112.77 -1.2,-7.24 -2.04,-5.31 -3.67,-10.36 -2.76,-8.55 0.74,-17.93 1.09,-26.72 1.36,-34.33 -25.24,-28.25 -10.79,-93.58 6.36,28.63 5.62,7.01 8.57,45.98 1.19,15.69 2.89,31.74 9.9,45.45 9.88,19.32 32.59,58.36 29.74,83.49 -1.29,3.23 -16.57,11.21 -21.61,33.27 -11.59,50.7 17.63,36.68 21.81,37.74 1.6,0.4 16.59,8.88 33.62,-1.19 13.78,-8.15 10.04,-22.43 9.64,-45.55 -0.62,-36.17 -3.36,-70.22 -4.18,-105.65 -0.6,-25.88 7.08,-44.19 -7.22,-70.82 -4.09,-7.62 -8.64,-8.91 -11.91,-16.89 -30.52,-74.27 9.82,-144.2 -54.44,-165.38 -12.19,-4.02 -33.1,-7.06 -42.44,-11.7 -6.11,-3.03 -11.04,-7.89 -16.82,-10.55 -12.67,-5.83 -25.89,-2.82 -27.15,-27.92 -0.85,-16.97 15.66,-17.28 17.98,-35.12 1.21,-9.31 -0.74,-18.19 -9.35,-19.21 -5.18,-0.45 -5.44,0.06 -7.99,3.95 -0.96,-8.89 -6.06,-13.91 -7.2,-26.14 -1.02,-10.83 -2.72,-17.01 -11.15,-20.76 -6.46,-2.87 -38.08,-2.27 -46.33,0.44 -12.09,3.97 -11.87,6.24 -13.37,16.41 -2.39,16.18 -5.69,21.89 -6.5,28.68 -2.44,-0.62 -0.61,3.27 -1.93,-3.37 -2.51,-1.6 3.34,-4.36 -4.25,-0.01z"/>
   <path class="fil1" d="M90.12 471.43c-6.56,18.23 -13.96,70.55 -8.89,91.32 1.48,6.09 3.84,4.71 18.39,6.61 25.19,3.3 72.67,9.68 94.62,19.83 4.79,2.21 3.91,2.7 7.68,5.24 7.76,5.23 31.59,-4.46 40.89,-6.63 13.72,-3.2 78.46,-13.38 83.31,-17.47 2.38,-2.39 0.68,2.25 2.42,-4.26 3.54,-13.28 1.2,-70.3 -2.62,-84.18 -1.35,-4.91 -0.74,-2.59 -1.79,-4.22 -9.45,5.95 -14.48,10.02 -25.44,15.27 -9.6,4.6 -19.08,7.76 -28.74,10.93 -20.47,6.71 -42.77,14.05 -67.03,11.19 -60.49,-7.12 -102.56,-41.18 -112.8,-43.62z"/>
   <path class="fil0" d="M153.26 95.55c2.32,17.83 5.98,8.49 10.2,19.28 7.22,18.48 22.04,44.64 50.02,35.68 11.95,-3.83 22.7,-16.44 28.11,-30.38 0.5,-1.28 1.44,-4.43 1.84,-5.18 3.89,-7.42 13.72,-2.75 13.82,-22.3 0.06,-12.23 -5.28,-9.83 -6.03,-9.97l-5.98 21.28c-0.18,-0.28 -12.16,-38.16 -12.51,-40 -4.59,-24.12 -0.12,-26.13 -28.69,-24.85 -32.28,1.45 -30.25,0.14 -32.69,19.41 -0.99,7.81 -4.71,24.59 -10.12,29.98l-7.08 6.26c-0.21,0.18 -0.61,0.51 -0.9,0.8z"/>
   <path class="fil2" d="M153.7 76.99c7.58,-4.35 1.74,-1.6 4.25,0.01 1.32,6.64 -0.51,2.76 1.93,3.37 0.81,-6.8 4.11,-12.5 6.5,-28.68 1.5,-10.18 1.28,-12.44 13.37,-16.41 8.25,-2.71 39.87,-3.31 46.33,-0.44 8.43,3.75 10.14,9.93 11.15,20.76 1.15,12.23 6.25,17.25 7.2,26.14 2.55,-3.88 2.81,-4.4 7.99,-3.95 0.41,-11.1 0.74,-19.78 -1.3,-30.57 -1.01,-5.35 -2.32,-7.02 -2.69,-13.07 -0.39,-6.38 0.62,-7.91 -2.01,-13.72 -6.07,-13.4 -7.92,-4.68 -19.53,-11.97 -3.16,-1.99 -20.03,-8.27 -22.89,-8.44 -9.8,-0.59 -38.9,13.65 -43.57,19.2 -9.86,11.72 -6.11,40.54 -6.74,57.77z"/>
  </g>
 </g>
</svg>
