<?xml version="1.0" encoding="UTF-8"?>
<!DOCTYPE svg PUBLIC "-//W3C//DTD SVG 1.1//EN" "http://www.w3.org/Graphics/SVG/1.1/DTD/svg11.dtd">
<!-- Creator: CorelDRAW -->
<svg xmlns="http://www.w3.org/2000/svg" xml:space="preserve" width="28.9731mm" height="76.1308mm" version="1.1" style="shape-rendering:geometricPrecision; text-rendering:geometricPrecision; image-rendering:optimizeQuality; fill-rule:evenodd; clip-rule:evenodd"
viewBox="0 0 655.21 1721.64"
 xmlns:xlink="http://www.w3.org/1999/xlink"
 xmlns:xodm="http://www.corel.com/coreldraw/odm/2003">
 <defs>
  <style type="text/css">
   <![CDATA[
    .fil1 {fill:#DE0000}
    .fil0 {fill:#E5BC9E}
   ]]>
  </style>
 </defs>
 <g id="Capa_x0020_1">
  <metadata id="CorelCorpID_0Corel-Layer"/>
  <g id="_105553380135104">
   <path class="fil0" d="M466.42 736.52c-0.97,-9.08 -5.83,-15.89 -7.42,-27.49 -1.66,-12.09 0.45,-22.96 -0.21,-34.93 -1.29,-23.72 -12.43,-37.52 -3.91,-65.52 5.76,-18.93 12.79,-34.3 22.17,-48.94 8.76,-13.68 14.43,-32.94 25.4,-46.12 6.65,4.54 17.94,42.4 22.01,51.67 7.58,17.31 17.3,30.66 18.82,53.16 3.43,51.01 2.73,75.76 23.74,118.66 52.34,106.9 22.56,105.07 8.34,130.6 -3.9,7.01 -9.67,16.13 -12.52,22.97 -2.36,5.68 -6.75,21.51 -6.47,28.87l8.56 26.58c17.23,2.16 11.43,-6.55 28.84,0.26 12.05,4.71 15.7,3.5 27.62,1.26 26.77,-5.01 24.02,-15.05 24.48,-41.47 0.38,-21.56 0.34,-43.11 0.28,-64.67 -0.05,-20.87 -3.53,-40.31 -3.55,-62.42 -0.04,-42.01 -4.8,-80.34 -6.6,-122.67 -2.66,-62.61 -25.91,-69.7 -29.2,-98.04 -2.65,-22.78 0.28,-35.28 -6.4,-57.62 -5.17,-17.28 -13,-28.8 -17.12,-46.96 -5.63,-24.87 1.37,-73 -17.73,-112.24 -19.5,-40.08 -58.93,-38.01 -83.79,-45.57 -7.75,-2.36 -21.5,-12.18 -45.22,-19.85 -8.17,-2.64 -16.08,-5.07 -23.29,-7.7 -3.95,-1.44 -6.9,-2.68 -11.01,-4.19 -17.83,-6.57 -13.66,-4.14 -16.3,-49.67 -6.48,3.1 -13.44,16.14 -23.48,23.22 -43.22,30.44 -70.33,-10.49 -85.04,-27.52 -2.34,62.92 7.1,44.01 -53.8,71.54 -18.98,8.58 -18.64,15.93 -44.22,18.52 -14.59,1.48 -36.51,6.84 -46.95,13.1 -65.43,39.2 -24.46,111.39 -54.26,190.99 -6.61,17.68 -10.41,30.05 -13.44,49.41 -3.69,23.59 -8.64,26.24 -17.38,44.68 -7.5,15.82 -7.02,34.09 -11.68,51.2 -6.98,25.67 -1.25,83.03 -4.32,118.36 -3.55,40.94 -14.25,35.83 -12.9,77.97 0.47,14.88 -7.7,30.39 -9.81,53.37 -3.27,35.71 13.18,26.53 30.36,35.04 9.34,4.63 11.39,10.45 21.72,12.64 14.86,-10.7 21.3,-45.55 20.36,-54.13 -1.82,-16.55 -20.06,-37.39 -19.91,-51.43 0.18,-16.21 32.98,-85.45 40.02,-102.18 28.84,-68.57 19.1,-36.55 28.52,-114.38 4.3,-35.56 13.73,-47.14 28.88,-78.1l13.68 -23.73c0.41,0.59 0.82,1.38 1.08,1.87l18.98 42.36c24.77,58.72 11.51,64.89 8.22,106.8 -0.79,10.07 0.03,20.24 -0.91,30.25 -0.76,8 -3.31,15.66 -3.68,22.4 33.33,26.82 74.94,45.73 130.25,44.42 61.53,-1.45 89.86,-18.17 140.22,-34.67z"/>
   <path class="fil0" d="M136.88 1704.15c23.84,4.98 92.54,19.77 104,-2.22 3.31,-6.35 5.42,-48.35 5.43,-57.89 0.03,-24.08 9.85,-29.95 9.1,-53.47 -1.66,-51.61 -18.09,-14.71 -1.19,-106.7 6.87,-37.37 4.63,-72.75 15.99,-109.74 12.32,-40.1 14.7,-64.93 4.75,-107.01 -6.39,-27.01 1.62,-32.1 5.23,-52.82 3.02,-17.38 0.82,-41.53 1.9,-60.81 2.01,-35.96 13.31,-70.34 18.95,-104.94 5.44,-33.4 10.76,-79.7 9.41,-113.47 -5.81,-4.05 -134.81,-45.33 -148.22,-47.43 -5.23,125.1 -21.44,131.44 24.01,258.68 17.34,48.54 -9.57,117.15 -14.36,155.78 -12.09,97.54 21.47,245.76 12.16,275.57 -8.19,26.2 3.39,32.07 -2.49,53.29 -16.42,59.29 -49.22,29.71 -44.67,73.19z"/>
   <path class="fil0" d="M339.48 946.22c-8.12,59.86 20.82,162.13 22.99,229.66 0.54,16.62 -0.23,45.95 2.58,59.39 15.97,76.59 -25.41,29.93 5.96,163.41 5.22,22.2 28.24,141.23 26.14,162.76 -2.58,26.53 -3.56,27.23 -0.11,53.98 2.14,16.56 -6.4,42.7 4.03,54.26 4.89,5.42 14.4,5.4 21.67,9.29 28.49,15.21 25.6,32.31 66.39,28.64 17.11,-1.54 37.07,-5.96 53.18,-10.27 3.41,-42.88 -41.04,-24.77 -60.63,-61.34 -25.04,-46.74 -35.15,-17.39 -30.56,-90 2.51,-39.69 4.25,-71.12 10.92,-109.45 27.26,-156.71 -6.94,-149.25 -7.46,-213.8 -0.45,-54.57 5.28,-55.56 20.95,-100.36 19.3,-55.18 25.14,-153.1 17.99,-217.74 -8.13,-1.37 -62.8,17.39 -76.23,20.9 -22.47,5.88 -62.3,12.19 -77.83,20.67z"/>
   <path class="fil1" d="M339.48 946.22c15.53,-8.48 55.36,-14.79 77.83,-20.67 13.42,-3.51 68.1,-22.27 76.23,-20.9 7.14,64.65 1.31,162.57 -17.99,217.74 -15.67,44.8 -21.4,45.79 -20.95,100.36 0.52,64.55 34.72,57.09 7.46,213.8 -6.67,38.34 -8.41,69.76 -10.92,109.45 -4.59,72.61 5.51,43.26 30.56,90 19.59,36.57 64.05,18.46 60.63,61.34 -16.11,4.31 -36.07,8.73 -53.18,10.27 -40.79,3.67 -37.9,-13.43 -66.39,-28.64 -7.27,-3.88 -16.78,-3.86 -21.67,-9.29 -10.43,-11.56 -1.89,-37.7 -4.03,-54.26 -3.46,-26.75 -2.47,-27.45 0.11,-53.98 2.09,-21.53 -20.93,-140.56 -26.14,-162.76 -31.38,-133.49 10.01,-86.82 -5.96,-163.41 -2.8,-13.44 -2.04,-42.77 -2.58,-59.39 -2.18,-67.53 -31.11,-169.8 -22.99,-229.66zm-202.6 757.93c-4.55,-43.48 28.24,-13.89 44.67,-73.19 5.88,-21.23 -5.7,-27.09 2.49,-53.29 9.31,-29.81 -24.25,-178.02 -12.16,-275.57 4.79,-38.63 31.7,-107.25 14.36,-155.78 -45.46,-127.24 -29.24,-133.58 -24.01,-258.68 13.41,2.09 142.42,43.38 148.22,47.43 1.35,33.77 -3.96,80.07 -9.41,113.47 -5.64,34.6 -16.94,68.98 -18.95,104.94 -1.08,19.28 1.13,43.43 -1.9,60.81 -3.6,20.71 -11.61,25.81 -5.23,52.82 9.95,42.08 7.56,66.91 -4.75,107.01 -11.36,36.99 -9.13,72.37 -15.99,109.74 -16.9,91.99 -0.46,55.09 1.19,106.7 0.76,23.52 -9.06,29.39 -9.1,53.47 -0.01,9.54 -2.13,51.54 -5.43,57.89 -11.46,21.99 -80.16,7.19 -104,2.22zm27.11 -827.05c1.18,-21.18 9.15,-50.29 11.8,-72.97 2.56,-21.99 5.32,-53.7 16.56,-67.99 12.41,3.53 50.08,46.23 133.89,43.65 75.08,-2.31 85.54,-20.69 144.32,-35.46 6.27,24.91 23.97,127.08 21.35,148.37 -54.48,24.72 -98.67,27.1 -137.26,39.31 -30.63,9.69 -13.37,2.04 -26.21,-19.27 -10.06,1.98 0.01,-0.9 -15.62,12.48 -21.07,-3.6 -53.36,-16.13 -74.55,-22.7l-74.28 -25.42zm302.43 -140.58c-50.35,16.49 -78.69,33.21 -140.22,34.67 -55.31,1.31 -96.92,-17.6 -130.25,-44.42 0.37,-6.74 2.92,-14.4 3.68,-22.4 0.95,-10.01 0.12,-20.18 0.91,-30.25 3.29,-41.91 16.55,-48.08 -8.22,-106.8l-18.98 -42.36c-0.26,-0.5 -0.67,-1.28 -1.08,-1.87l-13.68 23.73c-15.15,30.96 -24.57,42.54 -28.88,78.1 -9.42,77.83 0.32,45.81 -28.52,114.38 -7.04,16.73 -39.84,85.97 -40.02,102.18 -0.15,14.03 18.09,34.87 19.91,51.43 0.94,8.58 -5.5,43.43 -20.36,54.13 -10.33,-2.19 -12.38,-8.01 -21.72,-12.64 -17.18,-8.51 -33.63,0.67 -30.36,-35.04 2.1,-22.99 10.28,-38.5 9.81,-53.37 -1.35,-42.14 9.35,-37.03 12.9,-77.97 3.07,-35.33 -2.66,-92.69 4.32,-118.36 4.66,-17.11 4.18,-35.39 11.68,-51.2 8.74,-18.43 13.69,-21.09 17.38,-44.68 3.03,-19.36 6.82,-31.73 13.44,-49.41 29.8,-79.61 -11.17,-151.8 54.26,-190.99 10.44,-6.26 32.36,-11.62 46.95,-13.1 25.58,-2.59 25.24,-9.94 44.22,-18.52 60.9,-27.53 51.47,-8.62 53.8,-71.54 14.7,17.02 41.82,57.96 85.04,27.52 10.04,-7.07 17,-20.12 23.48,-23.22 2.64,45.53 -1.53,43.1 16.3,49.67 4.11,1.51 7.06,2.75 11.01,4.19 7.21,2.63 15.12,5.06 23.29,7.7 23.72,7.66 37.47,17.49 45.22,19.85 24.87,7.56 64.29,5.49 83.79,45.57 19.1,39.24 12.09,87.37 17.73,112.24 4.11,18.16 11.95,29.68 17.12,46.96 6.68,22.35 3.75,34.84 6.4,57.62 3.29,28.34 26.54,35.43 29.2,98.04 1.8,42.32 6.56,80.66 6.6,122.67 0.02,22.11 3.5,41.56 3.55,62.42 0.06,21.56 0.09,43.11 -0.28,64.67 -0.46,26.42 2.29,36.46 -24.48,41.47 -11.92,2.23 -15.57,3.45 -27.62,-1.26 -17.41,-6.81 -11.61,1.9 -28.84,-0.26l-8.56 -26.58c-0.28,-7.36 4.11,-23.19 6.47,-28.87 2.84,-6.84 8.61,-15.96 12.52,-22.97 14.22,-25.53 44.01,-23.7 -8.34,-130.6 -21.01,-42.9 -20.31,-67.65 -23.74,-118.66 -1.52,-22.51 -11.23,-35.85 -18.82,-53.16 -4.06,-9.27 -15.35,-47.13 -22.01,-51.67 -10.97,13.18 -16.64,32.44 -25.4,46.12 -9.38,14.65 -16.41,30.01 -22.17,48.94 -8.52,28 2.62,41.8 3.91,65.52 0.65,11.97 -1.46,22.84 0.21,34.93 1.59,11.6 6.45,18.41 7.42,27.49zm-208.72 -594.61c3.73,11.42 -1.91,3.55 6.71,6.76 3.15,-5.4 8.65,-9.31 10.66,-13.7 2.41,-5.28 2.55,-13.71 4.61,-20.19 5.26,-16.5 3.99,-23.63 7.66,-41.41 15.33,-9.1 78.1,-19.09 85.38,3.17 4,12.22 3.09,28.17 9.01,44.7 5.32,14.86 7.9,28.9 11.75,44.21l8.58 -24.69c1.54,-4.37 0.41,-3.62 2.22,-8.08 14.58,4.66 10.12,35.76 -4.82,43.62 -11.32,5.96 -7.24,-2.6 -12.58,12.43 -22.56,63.39 -74.35,67.28 -101.54,17.84 -4.13,-7.52 -8.84,-25.94 -15.83,-30.88 -8.22,-5.8 -13.32,-7.12 -11.81,-33.78zm9.5 -10.85c-6.8,-17.93 -6.92,-71.87 1.54,-89.17 5.91,-12.08 50.36,-33.96 63.84,-33.1 8.1,0.51 28.71,9.79 36.18,14.19 24.05,14.19 20.21,-10.5 30.87,64.04 2.38,16.63 4.81,30.43 -4.26,41.38 -3.38,-4.1 -9.27,-19.81 -10.56,-26.2 -7.63,-37.51 8.49,-47.16 -56.36,-46.89 -18.82,0.08 -45.76,-0.93 -50.69,20.55 -1.04,4.54 -10.57,55.01 -10.54,55.19zm0.84 122.21c-17.78,10.94 -45.11,16.64 -63.17,29.82 -11.91,8.68 -5.76,7.57 -23.57,9.4 -109.04,11.23 -92.48,78.35 -98.57,160.58 -2.62,35.37 -19.6,64.67 -26.17,103.65 -5.06,29.99 -21.59,39.12 -23.65,70.69 -0.83,12.75 -3.79,15.2 -6.02,26.67 -7.17,36.94 1.65,86.15 -4.46,125.18 -2.78,17.78 -11.94,35.86 -12.26,53.08 -0.91,49.31 -1,16.01 -7.83,55.77 -9.41,54.79 10.76,39.82 36.76,55.29 9.06,5.39 10.07,10.27 21.61,11.95 19.1,-7.66 18.44,-23.63 25.38,-43.49 7.06,-20.2 -3.33,-36.69 -10.98,-53.34 -11,-23.96 -2.37,-29.7 6.22,-52.33 21.47,-56.57 46.99,-92.03 53.89,-157.35 8.23,-77.96 13.76,-49.94 33.66,-107.42 4.47,3.14 2.57,1 5.83,5.43 1.08,1.46 2.74,5.51 3.59,7.56 35.28,84.77 16.96,58.62 14.3,124.17 -1.75,43.28 -3.11,35.72 -14.76,70.45 -4.98,14.86 -23.12,128.93 -23.99,148.16 -4.09,90.35 -14.1,140.31 17.45,228.82 21.98,61.67 11.1,83.21 -1.88,144.97 -15.75,74.91 -0.79,196.76 8.37,277.69 2.64,23.29 -0.82,19.7 -4.39,38.34 -4.6,24.03 11.47,41.61 -11.72,68.88 -6.56,7.72 -16.38,10.5 -24.34,18.03 -6.4,6.05 -9.7,16.38 -8.58,25.95l3.36 10.33c9.36,8.54 63.57,9.37 81,11.21 17.84,1.88 35.3,-7.3 36.94,-26.1 1.01,-11.59 3.02,-19.06 3.79,-28.92 0.81,-10.33 -0.66,-20.97 0.36,-31.27 3.34,-33.92 17.91,-17.21 2.63,-82.07 -5.31,-22.55 -1.03,-35.94 2.99,-58.01 6.78,-37.18 6.41,-76.92 15.95,-112.84 10.7,-40.28 19.03,-69.22 7.79,-112.75 -7.64,-29.61 1.14,-32.6 4.28,-55.84 2.7,-20.03 0.45,-43.28 1.86,-64.4 2.28,-34.14 14.87,-73.75 19.84,-107.8 2.9,-19.87 8.97,-106.61 14.44,-114.56 8.05,12.31 7.4,37.05 7.64,55.05 0.82,59.62 19.01,116.31 22.65,176.2 1.26,20.67 1.11,42.54 2.13,62.62 1.07,21.13 9.12,38.73 2.76,60 -13.19,44.08 -8.01,73.68 3.31,115.75 7.13,26.5 29.93,140.74 26.35,169.71 -5.17,41.8 2.25,35.65 1.45,59.87 -0.57,17.18 -7.08,42.27 8.79,52.18 18.26,11.4 14.25,0.79 42.13,24.93 12.11,10.49 33.05,14.91 53.27,11.53 18.24,-3.05 41.7,-4.15 55.62,-12.59 4.99,-55.62 -44.13,-34.35 -62.91,-71.71 -13.5,-26.86 -31.27,-27.72 -29.81,-59.84 1.89,-41.48 3.95,-83.57 10.67,-124.27 30.17,-182.7 -7.37,-153.97 -5.54,-236.95 1.68,-76.07 40.94,-89.7 40.76,-229.66 -0.04,-26.98 -0.63,-59.98 -1.2,-84.51 -0.52,-22.22 -7.83,-55.3 -10.36,-81.18 -6.04,-61.89 -23.97,-93.97 -25.4,-108.48 -1.5,-15.25 1.95,-27.36 -1.31,-43.44 -7.56,-37.34 -8.39,-37.39 5.31,-73.36l32.17 -58.56c4.94,7.04 14.15,37.43 19.72,48.51 29.36,58.42 -2.3,81.64 41.85,169.87 8.52,17.03 13.13,29.4 18.76,50.49 7.93,29.72 11.79,34.07 -5.46,52.59 -7.68,8.24 -21.49,33.59 -24.83,46.97 -6.23,24.95 -2.62,27.39 4.17,49.22l1.35 3.32c3.79,9.55 22.56,0.35 26.92,0.58 9.02,0.48 7.97,6.71 26.71,5.11 19.73,-1.69 38.07,-8.15 41.16,-24.78 5.92,-31.86 -0.77,-96.46 -2.3,-128.53 -1.05,-22.04 0.41,-44.45 -1.05,-66.47 -1.35,-20.29 -5.79,-38.65 -5.83,-60.58 -0.05,-30.4 -0.99,-59.57 -15.17,-85.95 -25.51,-47.47 -8.13,-36.51 -18.14,-82.08 -4.49,-20.44 -12.57,-30.74 -17.66,-49.55 -19.18,-70.91 15.29,-150.45 -98.84,-168.41 -19,-2.99 -28.98,-12.78 -47.82,-19.33 -17.18,-5.97 -34.93,-10.03 -49.53,-19.12 -1.21,-12.99 -2.92,-28.89 -2.94,-41.58 -0.05,-26.05 0.3,-19.83 14.02,-30.22 8.96,-6.78 12.99,-19.85 12.75,-32.29 -0.43,-22.5 -10.58,-11.97 -10.05,-37.77 0.29,-14.29 -5.41,-67.6 -10.57,-77.85 -10.54,-20.96 -10.99,-8.58 -27.63,-17.22l-32.26 -14.35c-13.06,-4.68 -54.26,14.21 -64.33,20.81 -21.97,14.39 -21.02,43.07 -21.69,70.69 -0.59,24.18 3.53,17.59 -3.08,40.65 -10.03,35.03 14.44,39.56 17.91,72.96 1.52,14.64 1.44,32.89 -0.57,47.43z"/>
   <path class="fil1" d="M238.27 902.52c21.19,6.57 53.49,19.1 74.55,22.7 15.63,-13.38 5.56,-10.5 15.62,-12.48 12.84,21.31 -4.42,28.96 26.21,19.27 38.6,-12.21 82.78,-14.59 137.26,-39.31 2.63,-21.29 -15.08,-123.46 -21.35,-148.37 -58.79,14.77 -69.24,33.15 -144.32,35.46 -83.81,2.57 -121.48,-40.12 -133.89,-43.65 -11.24,14.28 -14,46 -16.56,67.99 -2.64,22.68 -10.61,51.79 -11.8,72.97l74.28 25.42z"/>
   <path class="fil0" d="M257.7 141.9c-1.51,26.66 3.6,27.98 11.81,33.78 6.99,4.94 11.7,23.36 15.83,30.88 27.19,49.45 78.98,45.56 101.54,-17.84 5.35,-15.03 1.26,-6.47 12.58,-12.43 14.93,-7.86 19.4,-38.96 4.82,-43.62 -1.8,4.46 -0.68,3.71 -2.22,8.08l-8.58 24.69c-3.86,-15.31 -6.43,-29.36 -11.75,-44.21 -5.92,-16.54 -5.01,-32.48 -9.01,-44.7 -7.29,-22.26 -70.06,-12.27 -85.38,-3.17 -3.67,17.79 -2.4,24.91 -7.66,41.41 -2.06,6.48 -2.2,14.91 -4.61,20.19 -2.01,4.4 -7.51,8.3 -10.66,13.7 -8.62,-3.22 -2.98,4.65 -6.71,-6.76z"/>
   <path class="fil1" d="M267.21 131.06c-0.03,-0.18 9.5,-50.65 10.54,-55.19 4.93,-21.48 31.87,-20.47 50.69,-20.55 64.86,-0.27 48.73,9.38 56.36,46.89 1.3,6.39 7.18,22.1 10.56,26.2 9.07,-10.96 6.64,-24.75 4.26,-41.38 -10.65,-74.54 -6.82,-49.85 -30.87,-64.04 -7.47,-4.41 -28.08,-13.68 -36.18,-14.19 -13.48,-0.86 -57.93,21.02 -63.84,33.1 -8.46,17.29 -8.33,71.24 -1.54,89.17z"/>
  </g>
 </g>
</svg>
