<?xml version="1.0" encoding="UTF-8"?>
<!DOCTYPE svg PUBLIC "-//W3C//DTD SVG 1.1//EN" "http://www.w3.org/Graphics/SVG/1.1/DTD/svg11.dtd">
<!-- Creator: CorelDRAW -->
<svg xmlns="http://www.w3.org/2000/svg" xml:space="preserve" width="28.6266mm" height="75.1134mm" version="1.1" style="shape-rendering:geometricPrecision; text-rendering:geometricPrecision; image-rendering:optimizeQuality; fill-rule:evenodd; clip-rule:evenodd"
viewBox="0 0 1330.3 3490.58"
 xmlns:xlink="http://www.w3.org/1999/xlink"
 xmlns:xodm="http://www.corel.com/coreldraw/odm/2003">
 <defs>
  <style type="text/css">
   <![CDATA[
    .fil1 {fill:#DE0000}
    .fil0 {fill:#E5BC9E}
   ]]>
  </style>
 </defs>
 <g id="Capa_x0020_1">
  <metadata id="CorelCorpID_0Corel-Layer"/>
  <g id="_105553380328256">
   <path class="fil0" d="M143.34 1938.55c42.66,-77.85 -22.33,-180.58 -23.01,-263.43 -0.93,-112.32 40.03,-154.37 84.28,-230.83 22.57,-39 47.69,-120.41 61.21,-169.23 6.43,-23.2 6.32,-43.77 12.65,-65.99 8.31,-29.15 88.97,-200.87 100.46,-206.53 2.86,44.53 5.84,85.93 11.69,129.36 5.78,42.89 21.01,75.42 29.22,113.34 7.18,33.14 -11.21,143.41 -21.69,182.28 -4.87,18.08 -14.22,40.97 -16.32,58.28 83.73,30.88 152.38,64.98 259.31,67.83 54.89,1.46 101.4,-3.56 150.3,-16.49 26.57,-7.03 105.08,-31.08 119.47,-43.14 -3.3,-29.55 -11.64,-32.65 -10.84,-70.02 1.92,-89.74 -42.59,-90.22 -1.17,-215.38 13.98,-42.24 68.65,-232.46 83.74,-252.73 13.94,17.02 12.38,36.26 18.89,58.5 8.95,30.58 60.56,115.8 79.53,159.14 33.38,76.25 5.77,122.76 65.53,251.32 21.78,46.85 81.58,179.87 71.53,238.36 -13.29,77.24 -64.66,61.35 -77.01,156.76 -2.07,16.05 4.15,59.15 10.21,69.47 33.47,4.91 24.29,-13.73 55.59,1.29 21.21,10.17 36.11,5.45 59.01,1.5 58.3,-10.05 52.14,-26.83 47.66,-85.12 -3.26,-42.41 1.2,-92.46 -3.05,-132.12 -5.27,-49.23 -12.81,-20.42 -14.38,-119.29 -1.36,-85.65 -22.4,-271.37 -59.11,-349.31 -23.16,-49.17 -25.75,-3.88 -43.25,-98 -14.38,-77.35 -58.66,-118.72 -69.47,-199.7 -11.06,-82.92 17.32,-188.65 -64.34,-244.74 -15.23,-10.46 -29.87,-31.98 -62.77,-39.44 -21.31,-4.83 -40.46,-0.7 -57.02,-9.99 -51.89,-29.1 -123.88,-56.41 -139.24,-66.31 -42.84,-27.64 -34.29,-50.61 -35.28,-105.79 -14.28,5.96 -4.29,-0.04 -14.06,9.96 -9.15,9.38 -9.49,16.06 -30.09,31.65 -39.57,29.96 -84.37,30.22 -123.91,0.16 -10.42,-7.92 -37.16,-40.46 -42.11,-42.8 -0.92,120.09 -8.71,93.15 -116.38,150.75 -29.87,15.98 -71,21.89 -99.59,36.9 -70.28,36.91 -80.12,98.3 -99.65,171.26 -13.87,51.81 -7.52,73.3 -10.55,125.71 -1.03,17.87 -19.42,70.01 -27.82,107.94 -9.12,41.21 -11.74,71 -30.99,104.62 -41.68,72.81 -65.71,87.44 -76.85,190.81 -9.01,83.61 -18.18,159.42 -30.73,241.73 -4.67,30.63 -8.16,89.55 -20.09,114.48 -18.84,39.39 -8.98,73.48 -18.63,117.54 -14.33,65.46 -16.56,73.26 19.55,98.84 22.16,15.69 62.27,43.09 99.53,36.57z"/>
   <path class="fil0" d="M689.92 1909.57c-0.52,22.54 28.57,177.37 34.85,221.35 10.08,70.68 34.94,149.81 26.12,226.09 -4.02,34.81 -19.36,73.6 -11.85,110.08 6.93,33.6 25.85,58.51 27.17,100.88 0.93,29.8 -14.9,75.98 -19.17,110.67 -5.33,43.25 -3.2,75.43 4.72,116.14 25.26,129.85 57.43,203.68 47.66,332.57 -3.1,40.91 -14.82,70.05 -6.65,112.1 14.75,75.81 -2.84,85.42 2.04,118 4.91,32.82 57.03,26.85 79.26,47.47 35.17,32.66 5.57,47.73 84.04,43.8 30.5,-1.53 82.74,-10.51 107.83,-20.88 5.42,-60.44 -71.75,-36.09 -117.25,-126.63 -14.33,-28.51 -31.35,-40.58 -43.52,-75.68 -36.6,-105.59 43.94,-385.58 41.64,-538.42 -1.47,-97.71 -70.99,-200.85 -12.18,-422.72 18.77,-70.8 20.51,-133.94 27.52,-210.66 3.18,-34.89 3.94,-208.57 -8.95,-229.18 -4.88,-3.77 4.42,-6.33 -14.62,-0.95l-47.57 19.5c-52.44,23.61 -174.07,48.08 -201.07,66.48z"/>
   <path class="fil0" d="M345.72 1816.12c-11.31,40.56 -11.45,181.78 -12.29,233.34 -1.47,89.87 -0.83,142.69 16.53,225.95 19.56,93.84 20.87,119.27 12.16,219.72 -6.72,77.51 -28.6,130.73 -32.6,208.52 -3.65,70.91 47.01,303.86 50.99,436.17 4.47,148.44 -11.17,138.18 -98.95,269.84 -37,55.49 -4.6,58.16 29.85,60.19 40.51,2.38 109.35,24.43 140.29,-29.93 30.87,-54.24 11.43,-37.51 15.22,-98.94 1.25,-20.27 1.55,-40.86 2.39,-61.18 1.49,-36.1 3.56,-78.47 2.14,-115.07 -10.21,-262.58 50.01,-335.93 53.31,-427.95 3.23,-89.81 -39.67,-124.64 -1.08,-208.08 43.26,-93.51 6.06,-115.11 11.53,-207.81 8.57,-145.25 64.05,-282.17 67.23,-419.54 -24.01,-15.26 -97.39,-30.44 -129.46,-41 -36.93,-12.15 -95.55,-43.07 -127.27,-44.23z"/>
   <path class="fil1" d="M689.92 1909.57c27,-18.4 148.63,-42.87 201.07,-66.48l47.57 -19.5c19.05,-5.38 9.74,-2.82 14.62,0.95 12.89,20.62 12.13,194.3 8.95,229.18 -7,76.72 -8.75,139.86 -27.52,210.66 -58.81,221.87 10.71,325.01 12.18,422.72 2.3,152.83 -78.24,432.82 -41.64,538.42 12.17,35.1 29.19,47.17 43.52,75.68 45.49,90.54 122.67,66.19 117.25,126.63 -25.09,10.37 -77.33,19.35 -107.83,20.88 -78.47,3.93 -48.86,-11.14 -84.04,-43.8 -22.22,-20.63 -74.34,-14.65 -79.26,-47.47 -4.88,-32.58 12.71,-42.19 -2.04,-118 -8.18,-42.05 3.55,-71.19 6.65,-112.1 9.77,-128.89 -22.39,-202.72 -47.66,-332.57 -7.92,-40.71 -10.05,-72.89 -4.72,-116.14 4.27,-34.69 20.1,-80.87 19.17,-110.67 -1.32,-42.38 -20.23,-67.28 -27.17,-100.88 -7.52,-36.48 7.82,-75.26 11.85,-110.08 8.82,-76.28 -16.03,-155.41 -26.12,-226.09 -6.27,-43.98 -35.36,-198.8 -34.85,-221.35zm-344.2 -93.45c31.72,1.15 90.34,32.07 127.27,44.23 32.07,10.55 105.45,25.74 129.46,41 -3.18,137.37 -58.66,274.29 -67.23,419.54 -5.47,92.7 31.73,114.3 -11.53,207.81 -38.59,83.44 4.3,118.27 1.08,208.08 -3.3,92.02 -63.52,165.37 -53.31,427.95 1.42,36.61 -0.65,78.97 -2.14,115.07 -0.84,20.32 -1.14,40.91 -2.39,61.18 -3.8,61.43 15.64,44.7 -15.22,98.94 -30.94,54.37 -99.78,32.32 -140.29,29.93 -34.45,-2.03 -66.85,-4.7 -29.85,-60.19 87.78,-131.66 103.41,-121.41 98.95,-269.84 -3.98,-132.31 -54.64,-365.25 -50.99,-436.17 4,-77.79 25.87,-131.01 32.6,-208.52 8.72,-100.45 7.41,-125.88 -12.16,-219.72 -17.36,-83.26 -18,-136.08 -16.53,-225.95 0.84,-51.56 0.99,-192.78 12.29,-233.34zm1.23 -15.16c-1.51,-23.25 24.19,-278.13 30.91,-298.09 51.04,5.77 195.53,105.33 412.32,50.41 24.39,-6.18 110.69,-39.27 123.35,-35.82 4.76,49.16 8.27,97.64 14.08,146.91 4.44,37.7 22.94,108.16 21.28,138.22 -21.01,13.06 -105.37,43.08 -133.62,50.3 -41.89,10.71 -121.15,40.95 -140.78,38.42l-13.63 -54.78c-43.37,2.83 -31.59,17.55 -40.23,56.61 -3.37,-0.5 -19.71,-10.86 -27.54,-13.63l-109.58 -32.04c-32.64,-9.78 -102.7,-46.08 -136.55,-46.5zm-203.6 137.59c-37.26,6.52 -77.36,-20.88 -99.53,-36.57 -36.11,-25.58 -33.88,-33.38 -19.55,-98.84 9.65,-44.06 -0.21,-78.15 18.63,-117.54 11.92,-24.92 15.42,-83.84 20.09,-114.48 12.55,-82.3 21.72,-158.12 30.73,-241.73 11.13,-103.37 35.17,-118 76.85,-190.81 19.25,-33.62 21.87,-63.41 30.99,-104.62 8.39,-37.93 26.79,-90.07 27.82,-107.94 3.03,-52.41 -3.32,-73.9 10.55,-125.71 19.54,-72.97 29.37,-134.36 99.65,-171.26 28.58,-15.01 69.72,-20.92 99.59,-36.9 107.66,-57.61 115.46,-30.67 116.38,-150.75 4.94,2.34 31.68,34.88 42.11,42.8 39.53,30.07 84.33,29.81 123.91,-0.16 20.59,-15.59 20.93,-22.27 30.09,-31.65 9.76,-10 -0.22,-4 14.06,-9.96 0.99,55.17 -7.57,78.15 35.28,105.79 15.36,9.9 87.35,37.2 139.24,66.31 16.55,9.29 35.7,5.16 57.02,9.99 32.9,7.46 47.54,28.97 62.77,39.44 81.66,56.09 53.28,161.82 64.34,244.74 10.8,80.98 55.09,122.35 69.47,199.7 17.5,94.12 20.09,48.83 43.25,98 36.7,77.94 57.75,263.66 59.11,349.31 1.57,98.87 9.11,70.06 14.38,119.29 4.25,39.66 -0.21,89.71 3.05,132.12 4.48,58.29 10.65,75.07 -47.66,85.12 -22.9,3.95 -37.8,8.67 -59.01,-1.5 -31.3,-15.01 -22.12,3.62 -55.59,-1.29 -6.06,-10.32 -12.29,-53.42 -10.21,-69.47 12.35,-95.41 63.73,-79.52 77.01,-156.76 10.06,-58.5 -49.75,-191.52 -71.53,-238.36 -59.76,-128.56 -32.14,-175.07 -65.53,-251.32 -18.97,-43.34 -70.58,-128.56 -79.53,-159.14 -6.52,-22.24 -4.95,-41.48 -18.89,-58.5 -15.09,20.27 -69.76,210.49 -83.74,252.73 -41.42,125.16 3.09,125.63 1.17,215.38 -0.8,37.37 7.53,40.47 10.84,70.02 -14.39,12.05 -92.9,36.11 -119.47,43.14 -48.9,12.93 -95.4,17.96 -150.3,16.49 -106.93,-2.85 -175.59,-36.95 -259.31,-67.83 2.1,-17.31 11.45,-40.21 16.32,-58.28 10.47,-38.87 28.87,-149.14 21.69,-182.28 -8.21,-37.92 -23.44,-70.45 -29.22,-113.34 -5.85,-43.42 -8.83,-84.83 -11.69,-129.36 -11.49,5.66 -92.14,177.37 -100.46,206.53 -6.33,22.22 -6.22,42.79 -12.65,65.99 -13.52,48.82 -38.65,130.23 -61.21,169.23 -44.25,76.46 -85.21,118.51 -84.28,230.83 0.68,82.85 65.67,185.58 23.01,263.43zm389.96 -1631.47c8.22,-23.53 30.89,-87.22 31.94,-105.57 2.61,-45.48 -13.74,-76.74 84.15,-73.48 60.21,2 95.94,-11.03 100.68,57.95 2.02,29.4 -2.18,41.91 13.09,66.64 27.48,44.48 0.4,42.61 38.46,42.31 0.73,-1.12 1.22,-2.7 1.6,-3.68 0.37,-0.96 1.07,-2.46 1.5,-3.62l5.13 -18.05c35.75,-1.65 12.47,54.2 2.24,70.39 -26.21,41.5 -25.69,4.77 -45.66,57.56 -15.53,41.04 -53.31,93.68 -105.05,94.96 -58.46,1.45 -92.65,-57.02 -108.61,-94.61 -26.56,-62.58 -31.25,-19.58 -45.23,-58.2 -6.71,-18.54 -21.05,-67.89 -2.15,-81.46 18.34,14.96 3,45.3 20.57,64.4l7.33 -15.56zm-3.24 -43.31c-3.79,-20.85 -8.9,-15.36 -9.08,-45.15 -0.22,-37.9 -0.14,-111.29 16.89,-140.19 22.01,-37.34 -1.4,-23.57 59.47,-42.88 28.19,-8.94 43.71,-25.28 83.5,-16.96 23.18,4.84 46.68,20.61 66.1,28.6 14.72,6.06 22.43,6.11 32.78,20.34 22.67,31.2 24.07,84.56 26.06,122.46 3.35,63.81 4.28,49.06 -8.28,65.78 -13.52,18.01 -5.33,9.86 -4.13,12.11l-20.34 -35.81c-8.65,-22.59 -3.71,-80.3 -17.74,-98.6 -23.55,-30.71 -126.07,-26.06 -146.99,-22.75 -50.95,8.07 -51.43,30.36 -55.25,35.24 -12.48,15.94 -2.96,57.58 -8.55,74.96l-9.73 30.76c-5.45,15.41 -13.81,1.37 -4.71,12.07zm448.18 739.01c5.04,4.82 2.05,0.93 6.34,7.91l6.98 17.61c15.66,43.98 63.74,113.73 82.07,164.54 23.22,64.35 7.23,128.78 55.64,228.4 168.62,346.95 4.52,242.95 -3.56,410.55 -0.46,9.44 8.3,58.02 11.19,63.04 11.5,19.94 39.57,4.33 55.2,6.26 24.67,3.05 17.83,13.58 60.39,7.42 16.15,-2.34 42.25,-6.32 55.76,-14.68 33.89,-20.99 19.16,-73.85 17.03,-115.9 -2.56,-50.54 4.28,-84.84 -7.46,-133.54 -10.65,-44.17 -3.95,-89.57 -9.46,-135.35 -11.92,-98.96 -21.2,-271.16 -79.19,-339.74 -22.34,-26.42 -17.39,-57.58 -34.39,-109.93 -12.46,-38.38 -30.94,-60.92 -43.15,-97.28 -28.2,-83.94 -1.87,-163.32 -33.98,-245.18 -20.73,-52.83 -30.35,-45.63 -65.54,-78.39 -44.77,-41.68 -71.67,-18.89 -104.5,-35.41 -6.92,-3.49 -12.71,-9.8 -22.23,-15.22 -104.57,-59.54 -159.84,-17.9 -144.28,-172.1 3.66,-36.28 2.72,-28.28 24,-45.75 18.57,-15.25 50.01,-62.84 34.1,-99.01 -7.43,-16.87 -9.75,-4.87 -13.58,-23.88l-5.58 -96.65c-8.92,-66.79 -15.66,-102.23 -59.49,-116.32 -74.7,-24.02 -50.39,-58.33 -189.27,-9.1 -34.49,12.23 -24.78,3 -41.02,28.64 -8.71,13.76 -11.92,6.32 -21.33,48.39 -7.19,32.14 -4.15,100.85 -5.17,136.93 -12.07,8.37 -24.79,7.29 -20.25,53.57 8.71,88.89 37.03,70.62 46.09,94.66 4.49,11.93 10.53,43.76 11.59,57.39 4.81,61.77 1.68,80.12 -40.27,102.34 -25.46,13.49 -68.7,35.01 -95.39,43.98 -67.95,22.83 -129.97,39.65 -156.24,127.7 -11.68,39.16 -24.08,75.31 -30.88,115.49 -7.31,43.2 4.09,89.27 -11.49,127.5 -40.1,98.43 -1.16,92.67 -73.19,210.39 -52.94,86.53 -49.58,110.32 -60.94,221.72 -8.64,84.81 -22.95,166.49 -34.24,250.67 -8.41,62.7 -13.58,1.97 -23.47,115.24 -3.83,43.89 -16.79,82.54 -14.92,124.74 29.21,22.8 101.75,89.56 152.65,66.27 20.72,-26.66 19.65,-91.58 14.16,-130.35 -2.62,-18.5 -11.46,-37.04 -16.88,-57.55 -32.06,-121.2 -14.06,-186.03 52.36,-287.87 34.76,-53.29 67.16,-149.39 81.42,-214.81 12.44,-57.06 11.96,-62.6 35.43,-112.65 9.64,-20.55 35.29,-83.02 49.41,-93.5 4.69,51.02 6.67,88.19 20.56,136.42 13.39,46.52 27.88,75.73 13.84,132.3 -10.59,42.68 -12.34,83.18 -25.67,125.13 -7.34,23.11 -14.78,37.26 -17.29,62.59 -23.27,235.11 -45.13,389.61 -40.64,641.9 1.81,101.57 39,175.05 35.29,271.79 -3.73,97.36 -30.73,174.27 -38.07,264.02 -8.01,97.99 74.47,429.47 46.97,557.83 -14.85,69.33 -190.85,229.77 -68.29,237.06 52.49,3.13 94.65,17.18 133.73,-3.58 37.8,-20.08 56.72,-54.84 51.98,-100.97 -2.53,-24.64 0.02,-49.13 0.98,-74.13 4.93,-129.28 -4.77,-309.97 24.4,-422.24 25.61,-98.56 45.96,-151.46 18.58,-260.3 -14.41,-57.28 9.28,-74.3 25.27,-120.42 18.11,-52.21 4.28,-84.44 -0.93,-134.88 -7.71,-74.61 21.5,-201.46 36.59,-268.67 9.62,-42.89 18.35,-85.89 24.41,-128.9 6,-42.67 8.65,-25.6 20.97,-56.97 16.5,-42.03 -3.92,-45.97 20.3,-57.54 5.04,19.37 4.54,35.96 14.33,54.51 13.03,24.69 11.06,19.01 15.58,49.48 11.83,79.61 54.25,283.99 56.13,350.26 1.56,54.78 -11.02,78.64 -14.27,123.36 -3.16,43.48 16,70.65 24.81,110.53 9.53,43.15 -5.5,73.67 -12.54,114.75 -19.55,114.1 24.12,226.88 46.48,348.38 16.42,89.26 -15.91,169.63 -1.41,244.46 7.05,36.4 -5.67,106.65 4.29,124.26 16.26,28.77 65.51,22.19 86.53,49.2 10.93,14.05 11.02,30.39 33.88,36.21 49.45,12.59 130.66,-11.44 176.4,-18.59 1.5,-38.3 -3.85,-50.78 -29.69,-66.89 -54.94,-34.25 -62.93,-29.6 -94.33,-86.06 -11.27,-20.26 -23.87,-31.95 -34.57,-55.46 -60.86,-133.65 79.88,-436.49 20.27,-653.78 -28.19,-102.74 -20.45,-218.88 6.57,-318.96 23.64,-87.58 31.37,-234.4 26.65,-334.22 -5.98,-126.44 -37.94,-264.62 -47.61,-403.08 -2.34,-33.54 -11.5,-49.79 -14.96,-75.08 -4.08,-29.88 0.06,-51.16 -7.09,-84.69 -5.27,-24.73 -13.58,-49.69 -12.04,-79.01 2.95,-55.94 68.77,-214.85 83.14,-281.23z"/>
   <path class="fil1" d="M346.95 1800.95c33.84,0.43 103.91,36.72 136.55,46.5l109.58 32.04c7.83,2.78 24.17,13.13 27.54,13.63 8.64,-39.06 -3.14,-53.78 40.23,-56.61l13.63 54.78c19.63,2.53 98.89,-27.71 140.78,-38.42 28.25,-7.22 112.61,-37.24 133.62,-50.3 1.65,-30.07 -16.84,-100.52 -21.28,-138.22 -5.8,-49.27 -9.31,-97.75 -14.08,-146.91 -12.66,-3.46 -98.96,29.64 -123.35,35.82 -216.79,54.92 -361.27,-44.64 -412.32,-50.41 -6.72,19.96 -32.43,274.84 -30.91,298.09z"/>
   <path class="fil0" d="M525.97 322.63c-17.58,-19.1 -2.24,-49.44 -20.57,-64.4 -18.9,13.56 -4.56,62.92 2.15,81.46 13.98,38.62 18.67,-4.38 45.23,58.2 15.95,37.59 50.15,96.06 108.61,94.61 51.75,-1.29 89.52,-53.92 105.05,-94.96 19.97,-52.79 19.45,-16.06 45.66,-57.56 10.22,-16.19 33.5,-72.04 -2.24,-70.39l-5.13 18.05c-0.43,1.16 -1.12,2.65 -1.5,3.62 -0.38,0.98 -0.86,2.56 -1.6,3.68 -38.05,0.31 -10.98,2.17 -38.46,-42.31 -15.27,-24.73 -11.07,-37.24 -13.09,-66.64 -4.74,-68.98 -40.48,-55.95 -100.68,-57.95 -97.89,-3.26 -81.54,28.01 -84.15,73.48 -1.05,18.35 -23.72,82.04 -31.94,105.57l-7.33 15.56z"/>
   <path class="fil1" d="M530.07 263.76c-9.1,-10.7 -0.74,3.34 4.71,-12.07l9.73 -30.76c5.6,-17.38 -3.93,-59.02 8.55,-74.96 3.82,-4.88 4.31,-27.17 55.25,-35.24 20.92,-3.31 123.44,-7.97 146.99,22.75 14.03,18.3 9.09,76.01 17.74,98.6l20.34 35.81c-1.2,-2.24 -9.39,5.9 4.13,-12.11 12.55,-16.72 11.63,-1.97 8.28,-65.78 -1.99,-37.89 -3.39,-91.26 -26.06,-122.46 -10.34,-14.24 -18.05,-14.29 -32.78,-20.34 -19.42,-7.99 -42.93,-23.76 -66.1,-28.6 -39.79,-8.32 -55.3,8.02 -83.5,16.96 -60.87,19.3 -37.46,5.54 -59.47,42.88 -17.03,28.9 -17.11,102.29 -16.89,140.19 0.18,29.78 5.29,24.3 9.08,45.15z"/>
  </g>
 </g>
</svg>
