<?xml version="1.0" encoding="UTF-8"?>
<!DOCTYPE svg PUBLIC "-//W3C//DTD SVG 1.1//EN" "http://www.w3.org/Graphics/SVG/1.1/DTD/svg11.dtd">
<!-- Creator: CorelDRAW -->
<svg xmlns="http://www.w3.org/2000/svg" xml:space="preserve" width="28.2572mm" height="74.2692mm" version="1.1" style="shape-rendering:geometricPrecision; text-rendering:geometricPrecision; image-rendering:optimizeQuality; fill-rule:evenodd; clip-rule:evenodd"
viewBox="0 0 415.68 1092.54"
 xmlns:xlink="http://www.w3.org/1999/xlink"
 xmlns:xodm="http://www.corel.com/coreldraw/odm/2003">
 <defs>
  <style type="text/css">
   <![CDATA[
    .str0 {stroke:#DE0000;stroke-width:1.12;stroke-miterlimit:22.9256}
    .fil1 {fill:#DE0000}
    .fil0 {fill:#E5BC9E}
   ]]>
  </style>
 </defs>
 <g id="Capa_x0020_1">
  <metadata id="CorelCorpID_0Corel-Layer"/>
  <g id="_105553380017024">
   <path class="fil0" d="M328.55 476.97c-7.61,-19.33 0.05,-23.62 -1.29,-42.06 -1.63,-22.39 -22.59,-25.08 -12.64,-79.87 1.09,-5.99 5.93,-37.32 7.32,-40.28 4.32,7.18 3.66,29.62 6,40.09 4.4,19.66 4.75,2.89 6.97,38.07 2.27,36.07 8.53,42.2 21.65,68.35 36.2,72.13 11.46,68.44 4.24,80.66 -6.62,11.2 -13.27,32.52 -8.37,45.2 5.77,14.94 8.17,0.66 20.63,5.41 9.15,3.49 8.66,3.63 19.77,1.76 17.02,-2.87 16.97,-9.02 16.79,-25.97 -0.3,-28.53 -0.67,-56.23 -2.17,-84.16 -0.75,-13.94 -1.95,-27.89 -2.17,-41.99 -0.39,-24.65 6.75,-51.3 -8.86,-72.85 -8.53,-11.77 -6.95,-4.49 -15.59,-26.6 -17.73,-45.41 2.01,-118.88 -28.06,-143.11 -19.01,-15.31 -44.51,-12.61 -63.33,-22.25 -5.99,-3.07 -8.32,-5.5 -13.26,-8.6 -16.48,-10.37 -25.98,0.3 -33.25,-30.74 -7.68,8.41 -16.87,20.66 -34.25,21.34 -15.45,0.6 -31.37,-10.25 -35.53,-17.82 -1.1,30.36 0.64,21.94 -45.38,40.02 -10.85,4.26 -19.42,12.02 -29.31,13.35 -12.32,1.66 -21.21,5.95 -30.41,11.1 -21.44,11.99 -25.67,32.5 -27.98,57.47 -5.76,62.22 -6.34,30.05 -17.03,67.57 -4.67,16.38 1.93,19.24 -8.61,34.45 -14.7,21.24 -9.16,88.17 -8.59,117.3 0.19,9.74 -0.1,32.88 2.31,40.98 2.09,7.05 4.18,8.01 4.48,16.92 0.46,13.79 -2.69,46.62 11.06,51.2 7.68,2.56 18.49,-1.75 27.55,4.53 5.57,3.86 -1.14,2.22 6.47,4.24 10.86,-6.04 9.66,-22.8 9.63,-36.78 -0.03,-14.01 -9.71,-20.58 -16.33,-29.51 -10.89,-14.7 -10.61,-10.53 -6.93,-33.25 9.72,-60.04 31.17,-67.37 24.26,-103.01 -2.13,-10.99 6.63,-24.95 10.26,-33.7l12.51 -30.98c10.98,3.1 9.49,20.59 9.9,31.85 2.05,56.39 -10.98,52.59 -8.55,75.46 0.78,7.35 3.76,9.78 4.22,15.99 0.65,8.81 -3.13,8.81 -3.66,15.87 8.2,5.78 16.44,9.09 25.61,14.6 24.02,14.44 63.08,28.61 90.03,30.83 34.92,2.88 105.37,-20.93 119.91,-41.08z"/>
   <path class="fil0" d="M82.14 582.5c-3.69,26.64 -2.78,53.03 2.15,78.2 2.26,11.52 4.7,23.07 7.58,34.62 2.81,11.26 7.7,20.01 9.8,31.75 11.84,66.23 -1.46,80.32 -3.93,115.27 -2,28.3 36.99,134.95 4.05,183.21 -36.69,53.77 -17.76,54.9 29.88,60.47 12.86,1.5 27.82,4.37 29.12,-10.19 1.78,-19.97 -9.37,-22.78 3.21,-56.14 5.66,-15.01 0.55,-41.99 -1.95,-55.62 -5.25,-28.63 17.56,-75.75 14.69,-111.56 -4.5,-56.06 0.07,-35.38 7.22,-74.03 2.41,-13.01 1.15,-27.68 2.6,-41.18l10.3 -73.19c1.91,-12.68 2.24,-26.26 4.06,-38.28 2.73,-17.99 4.13,-19.56 -12.8,-25.31 -18.51,-6.29 -96.15,-21.68 -105.98,-18.03z"/>
   <path class="fil0" d="M352.98 1080.68c3.68,-16.7 -4.92,-16.84 -15.43,-21.8 -20.7,-9.77 -17.79,-13.5 -30.89,-28.68 -10.34,-11.99 -14.39,-6.73 -15.4,-41.34 -1.93,-65.91 16.19,-81.85 14.73,-140.68 -0.28,-11.19 -1.25,-24.57 -4.57,-34.44 -4.86,-14.42 -5.51,-18.68 -4.49,-35.21 2.12,-34.53 4.64,-34.17 15.78,-61.43 15.18,-37.15 25.72,-83.67 21.2,-130.54 -13.45,-2.43 -103.3,21.3 -119.07,24.41 1.12,48.87 2.15,34.81 7.21,76.26 3.26,26.73 3.01,49.76 4.42,76.87 1.53,29.44 16.94,34.04 5.28,66.34 -20.54,56.92 23.11,102.13 16.62,172.06 -1.46,15.77 5.12,21.17 3.76,33.94 -1.35,12.78 -7.07,23.48 6.79,28.55 4.78,1.75 10.8,2.24 15.3,4.64 6.73,3.59 5.76,7.17 10.6,9.8 16.88,9.16 49.6,8.85 68.17,1.23z"/>
   <path class="fil1 str0" d="M352.98 1080.68c-18.57,7.62 -51.28,7.94 -68.17,-1.23 -4.84,-2.63 -3.87,-6.21 -10.6,-9.8 -4.5,-2.4 -10.52,-2.89 -15.3,-4.64 -13.86,-5.07 -8.15,-15.77 -6.79,-28.55 1.35,-12.77 -5.23,-18.18 -3.76,-33.94 6.48,-69.93 -37.17,-115.14 -16.62,-172.06 11.66,-32.3 -3.75,-36.9 -5.28,-66.34 -1.41,-27.12 -1.16,-50.15 -4.42,-76.87 -5.06,-41.45 -6.08,-27.39 -7.21,-76.26 15.77,-3.11 105.62,-26.85 119.07,-24.41 4.52,46.87 -6.02,93.39 -21.2,130.54 -11.14,27.26 -13.66,26.9 -15.78,61.43 -1.01,16.53 -0.36,20.79 4.49,35.21 3.32,9.87 4.3,23.24 4.57,34.44 1.45,58.83 -16.66,74.77 -14.73,140.68 1.02,34.62 5.06,29.35 15.4,41.34 13.1,15.19 10.19,18.91 30.89,28.68 10.51,4.96 19.11,5.1 15.43,21.8zm-270.84 -498.18c9.83,-3.65 87.47,11.74 105.98,18.03 16.93,5.75 15.53,7.32 12.8,25.31 -1.82,12.02 -2.15,25.59 -4.06,38.28l-10.3 73.19c-1.45,13.49 -0.2,28.17 -2.6,41.18 -7.16,38.65 -11.72,17.98 -7.22,74.03 2.87,35.81 -19.94,82.93 -14.69,111.56 2.5,13.63 7.61,40.61 1.95,55.62 -12.58,33.36 -1.43,36.16 -3.21,56.14 -1.3,14.56 -16.26,11.69 -29.12,10.19 -47.64,-5.57 -66.57,-6.7 -29.88,-60.47 32.94,-48.26 -6.05,-154.91 -4.05,-183.21 2.47,-34.95 15.77,-49.04 3.93,-115.27 -2.1,-11.74 -6.99,-20.48 -9.8,-31.75 -2.88,-11.56 -5.32,-23.1 -7.58,-34.62 -4.93,-25.17 -5.84,-51.56 -2.15,-78.2zm9.4 -103.7c10.4,2.48 53.13,37.07 114.56,44.31 24.64,2.9 47.29,-4.55 68.08,-11.37 9.81,-3.22 19.44,-6.42 29.19,-11.1 11.13,-5.33 16.23,-9.46 25.83,-15.51 1.07,1.66 0.45,-0.7 1.82,4.29 3.88,14.1 6.26,72.01 2.66,85.5 -1.77,6.62 -0.04,1.9 -2.46,4.33 -4.93,4.15 -70.68,14.49 -84.62,17.74 -9.45,2.21 -33.65,12.05 -41.53,6.73 -3.83,-2.58 -2.93,-3.07 -7.8,-5.32 -22.29,-10.3 -70.51,-16.79 -96.1,-20.14 -14.78,-1.93 -17.17,-0.53 -18.68,-6.72 -5.14,-21.1 2.37,-74.23 9.03,-92.75zm237.02 -1.83c-14.55,20.14 -85,43.96 -119.91,41.08 -26.95,-2.22 -66.01,-16.39 -90.03,-30.83 -9.17,-5.51 -17.41,-8.82 -25.61,-14.6 0.54,-7.06 4.31,-7.06 3.66,-15.87 -0.46,-6.2 -3.43,-8.64 -4.22,-15.99 -2.44,-22.87 10.59,-19.07 8.55,-75.46 -0.41,-11.26 1.08,-28.75 -9.9,-31.85l-12.51 30.98c-3.63,8.75 -12.4,22.71 -10.26,33.7 6.91,35.64 -14.54,42.97 -24.26,103.01 -3.68,22.72 -3.96,18.55 6.93,33.25 6.62,8.93 16.3,15.5 16.33,29.51 0.03,13.99 1.23,30.74 -9.63,36.78 -7.6,-2.02 -0.89,-0.38 -6.47,-4.24 -9.07,-6.28 -19.87,-1.97 -27.55,-4.53 -13.75,-4.58 -10.59,-37.42 -11.06,-51.2 -0.3,-8.91 -2.39,-9.87 -4.48,-16.92 -2.4,-8.1 -2.11,-31.24 -2.31,-40.98 -0.58,-29.13 -6.12,-96.07 8.59,-117.3 10.53,-15.22 3.94,-18.07 8.61,-34.45 10.69,-37.51 11.27,-5.35 17.03,-67.57 2.31,-24.97 6.54,-45.48 27.98,-57.47 9.21,-5.15 18.09,-9.44 30.41,-11.1 9.89,-1.33 18.45,-9.09 29.31,-13.35 46.03,-18.08 44.29,-9.66 45.38,-40.02 4.16,7.57 20.08,18.43 35.53,17.82 17.38,-0.68 26.56,-12.93 34.25,-21.34 7.28,31.04 16.77,20.37 33.25,30.74 4.94,3.1 7.27,5.54 13.26,8.6 18.82,9.64 44.32,6.94 63.33,22.25 30.08,24.23 10.33,97.7 28.06,143.11 8.63,22.11 7.06,14.83 15.59,26.6 15.61,21.54 8.47,48.19 8.86,72.85 0.23,14.11 1.42,28.05 2.17,41.99 1.51,27.93 1.87,55.63 2.17,84.16 0.18,16.95 0.23,23.11 -16.79,25.97 -11.11,1.87 -10.62,1.73 -19.77,-1.76 -12.47,-4.75 -14.86,9.52 -20.63,-5.41 -4.9,-12.68 1.75,-34 8.37,-45.2 7.22,-12.21 31.96,-8.53 -4.24,-80.66 -13.12,-26.14 -19.38,-32.28 -21.65,-68.35 -2.21,-35.18 -2.57,-18.4 -6.97,-38.07 -2.34,-10.47 -1.68,-32.91 -6,-40.09 -1.39,2.96 -6.23,34.28 -7.32,40.28 -9.94,54.79 11.02,57.48 12.64,79.87 1.34,18.44 -6.33,22.73 1.29,42.06zm-172.89 -379.92c0.29,-0.29 0.7,-0.63 0.91,-0.81l7.19 -6.36c5.5,-5.48 9.28,-22.52 10.28,-30.45 2.48,-19.57 0.42,-18.24 33.2,-19.71 29.01,-1.3 24.48,0.74 29.14,25.24 0.36,1.87 12.52,40.35 12.7,40.63l6.07 -21.61c0.76,0.14 6.19,-2.31 6.12,10.12 -0.1,19.86 -10.09,15.12 -14.04,22.65 -0.4,0.76 -1.36,3.96 -1.87,5.26 -5.5,14.16 -16.41,26.97 -28.55,30.85 -28.42,9.1 -43.47,-17.47 -50.8,-36.23 -4.29,-10.96 -8,-1.48 -10.36,-19.58zm0.44 -18.86c-9.72,2.52 -5.5,28.53 0.05,35.08 7.5,8.86 4.19,6.19 7.25,17.35 2.15,7.83 5.03,10.53 4.91,20.13 -0.24,19.66 -28.06,15.53 -61.4,36.11 -7.01,4.32 -11.06,2.62 -18.4,4.7 -5.63,1.6 -12.59,4.74 -17.46,7.23 -48.96,25.04 -26.52,67.69 -42.38,105.6 -4.53,10.84 -11.22,21.76 -12.29,36.28 -3.45,46.81 -18.09,-15.83 -15.54,131.97 0.24,13.83 -0.44,34.5 1.23,47.56 0.86,6.75 4.81,10.92 5.6,17.95 1.63,14.61 -4.39,54.3 15.57,58.91 7.52,1.74 15.86,-1.03 22.51,2.12 9.07,4.29 0.63,7.55 17.75,6.24 6.85,-13.24 7.85,-14.76 8.4,-32.73 1.32,-42.94 -27.93,-34.32 -24.35,-62.06 1.27,-9.83 3.99,-27.7 6.88,-36.94 5.85,-18.66 22.01,-46.22 20.93,-66.35 -0.38,-6.94 -3.48,-10.54 -1.99,-17.75 1.19,-5.73 4.31,-10.26 6.57,-15.27 3.51,-7.75 10.03,-21.96 12.04,-31.56 3.96,4.68 3.67,13.77 3.94,21.09 0.31,8.37 0.12,15.26 -0.6,22.45 -0.75,7.52 0.2,14.8 -1.62,22.24 -1.48,6.05 -4.4,10.45 -5.78,17.23 -3.64,17.85 6.5,28.98 2.74,37.88 -7.49,17.77 -1.69,2.28 -5.33,17.88 -1.51,6.47 -3.02,11.6 -4.4,18.3 -2.77,13.51 -4.72,27.81 -5.03,42.4 -0.32,15.07 2.63,30.19 0.89,44.13 -3.85,30.88 -1.58,56.69 4.79,85.4 2.67,12.04 4.96,26.57 9.45,37.19 10.93,25.87 9.17,54.52 9.04,81.22 -0.08,16.65 -3.77,26.95 -6.02,41.97 -6.26,41.7 26.04,101.19 12.81,165.2 -6.9,33.38 -25,37.41 -28.54,64.35 -2.17,16.47 7.27,21.81 20.98,25.02 9.96,2.33 31.23,4.75 42.57,5.24 42.77,1.85 12.03,-37.99 24.45,-65.66 12.42,-27.65 -1.88,-54.82 1.56,-84.5 4.74,-40.86 14.43,-54.02 14.15,-79.07 -0.17,-15.09 -3.12,-29.2 -2.02,-44.91 1.02,-14.68 6.28,-25.14 8.81,-38.62 2.55,-13.63 1.44,-30.12 2.81,-43.98 3.05,-30.82 9.36,-58.33 11.67,-81.29 1.12,-11.11 1.34,-33.87 5.38,-41.71 3.27,5.93 1.89,28.53 2.66,37.31 1.03,11.72 3.83,24.08 5.41,35.26 3.79,26.77 3.96,50.55 4.79,77.91 0.95,31.39 16.8,34.83 5.19,67.04 -17.04,47.27 10.65,91.46 15.87,139.57 1.73,15.99 0.49,24.81 0.51,39.93 0.01,7.79 2.19,11.39 3.42,17.62 3.31,16.71 -13.39,36.37 14.94,44.06 5.99,1.62 11.36,2.48 14.44,5.98 7.18,8.16 -1.81,5.15 12.82,9.04 15.2,4.04 16.42,5.94 34.73,5.51 10.69,-0.25 25.51,-3.85 34.66,-6.93 4.73,-34.62 -14.91,-18.81 -37.68,-44.86 -5.54,-6.33 -8.4,-11.36 -12.83,-16.15 -6.56,-7.11 -8.27,-4.66 -10.35,-16.72 -3.01,-17.45 -0.7,-63.39 3.2,-78.56 24.4,-94.93 -0.14,-112.44 1.28,-148.15 2.38,-60.05 26.69,-64.28 35.72,-132.21 1.99,-15 2.4,-38.06 1.82,-53.43 -1.86,-48.91 6.92,-46.24 -4.43,-114.53 -1.22,-7.35 -2.07,-5.39 -3.73,-10.53 -2.81,-8.68 0.75,-18.21 1.11,-27.14 1.38,-34.86 -25.64,-28.69 -10.96,-95.05 6.46,29.08 5.7,7.12 8.7,46.7 1.21,15.94 2.93,32.24 10.06,46.16 10.03,19.62 33.1,59.27 30.2,84.8 -1.31,3.28 -16.83,11.38 -21.95,33.79 -11.78,51.49 17.91,37.25 22.15,38.33 1.62,0.41 16.85,9.02 34.14,-1.2 14,-8.28 10.2,-22.78 9.8,-46.26 -0.63,-36.74 -3.42,-71.32 -4.25,-107.3 -0.61,-26.28 7.19,-44.88 -7.34,-71.93 -4.15,-7.74 -8.77,-9.05 -12.1,-17.15 -31,-75.43 9.97,-146.45 -55.3,-167.96 -12.38,-4.08 -33.61,-7.17 -43.1,-11.88 -6.21,-3.08 -11.21,-8.01 -17.08,-10.72 -12.86,-5.92 -26.3,-2.87 -27.58,-28.35 -0.87,-17.23 15.9,-17.55 18.26,-35.67 1.23,-9.45 -0.76,-18.47 -9.5,-19.51 -5.26,-0.46 -5.53,0.07 -8.12,4.01 -0.97,-9.03 -6.15,-14.13 -7.32,-26.55 -1.03,-11 -2.76,-17.28 -11.33,-21.08 -6.56,-2.91 -38.67,-2.31 -47.05,0.44 -12.28,4.03 -12.05,6.33 -13.58,16.67 -2.43,16.44 -5.78,22.23 -6.6,29.13 -2.48,-0.63 -0.62,3.32 -1.96,-3.43 -2.55,-1.63 3.39,-4.43 -4.31,-0.01z"/>
   <path class="fil1" d="M91.53 478.8c-6.67,18.52 -14.18,71.65 -9.03,92.75 1.51,6.18 3.9,4.78 18.68,6.72 25.59,3.35 73.81,9.84 96.1,20.14 4.87,2.25 3.97,2.74 7.8,5.32 7.88,5.32 32.08,-4.53 41.53,-6.73 13.93,-3.25 79.69,-13.59 84.62,-17.74 2.42,-2.43 0.69,2.29 2.46,-4.33 3.6,-13.49 1.22,-71.4 -2.66,-85.5 -1.37,-4.99 -0.76,-2.63 -1.82,-4.29 -9.6,6.04 -14.71,10.17 -25.83,15.51 -9.75,4.67 -19.38,7.88 -29.19,11.1 -20.79,6.81 -43.44,14.27 -68.08,11.37 -61.44,-7.23 -104.16,-41.83 -114.56,-44.31z"/>
   <path class="fil0" d="M155.66 97.05c2.36,18.11 6.08,8.62 10.36,19.58 7.33,18.77 22.38,45.34 50.8,36.23 12.14,-3.89 23.05,-16.7 28.55,-30.85 0.51,-1.3 1.47,-4.5 1.87,-5.26 3.95,-7.53 13.94,-2.79 14.04,-22.65 0.06,-12.43 -5.36,-9.98 -6.12,-10.12l-6.07 21.61c-0.18,-0.28 -12.35,-38.76 -12.7,-40.63 -4.66,-24.5 -0.13,-26.54 -29.14,-25.24 -32.78,1.47 -30.72,0.14 -33.2,19.71 -1.01,7.93 -4.79,24.97 -10.28,30.45l-7.19 6.36c-0.21,0.19 -0.62,0.52 -0.91,0.81z"/>
   <path class="fil1" d="M156.1 78.19c7.7,-4.42 1.76,-1.62 4.31,0.01 1.34,6.75 -0.52,2.8 1.96,3.43 0.82,-6.9 4.17,-12.7 6.6,-29.13 1.53,-10.34 1.3,-12.63 13.58,-16.67 8.38,-2.75 40.5,-3.36 47.05,-0.44 8.56,3.8 10.29,10.09 11.33,21.08 1.17,12.42 6.35,17.52 7.32,26.55 2.59,-3.94 2.86,-4.47 8.12,-4.01 0.42,-11.28 0.75,-20.09 -1.32,-31.05 -1.03,-5.43 -2.35,-7.13 -2.73,-13.27 -0.4,-6.48 0.63,-8.03 -2.04,-13.93 -6.17,-13.61 -8.05,-4.75 -19.83,-12.15 -3.21,-2.02 -20.34,-8.4 -23.25,-8.58 -9.96,-0.6 -39.51,13.86 -44.25,19.5 -10.02,11.9 -6.21,41.18 -6.85,58.67z"/>
  </g>
 </g>
</svg>
