<?xml version="1.0" encoding="UTF-8"?>
<!DOCTYPE svg PUBLIC "-//W3C//DTD SVG 1.1//EN" "http://www.w3.org/Graphics/SVG/1.1/DTD/svg11.dtd">
<!-- Creator: CorelDRAW -->
<svg xmlns="http://www.w3.org/2000/svg" xml:space="preserve" width="28.6267mm" height="75.1134mm" version="1.1" style="shape-rendering:geometricPrecision; text-rendering:geometricPrecision; image-rendering:optimizeQuality; fill-rule:evenodd; clip-rule:evenodd"
viewBox="0 0 1268.46 3328.29"
 xmlns:xlink="http://www.w3.org/1999/xlink"
 xmlns:xodm="http://www.corel.com/coreldraw/odm/2003">
 <defs>
  <style type="text/css">
   <![CDATA[
    .fil0 {fill:#D2D4D5}
    .fil1 {fill:#96989B}
    .fil2 {fill:#858789}
   ]]>
  </style>
 </defs>
 <g id="Capa_x0020_1">
  <metadata id="CorelCorpID_0Corel-Layer"/>
  <g id="_105553376603296">
   <path class="fil0" d="M136.68 1848.41c40.68,-74.23 -21.3,-172.19 -21.95,-251.18 -0.88,-107.1 38.17,-147.19 80.36,-220.1 21.52,-37.19 45.48,-114.82 58.37,-161.37 6.13,-22.12 6.02,-41.74 12.07,-62.92 7.93,-27.8 84.83,-191.53 95.79,-196.92 2.73,42.46 5.57,81.94 11.15,123.34 5.51,40.9 20.03,71.92 27.86,108.07 6.84,31.6 -10.69,136.74 -20.68,173.81 -4.64,17.24 -13.55,39.07 -15.56,55.58 79.84,29.44 145.29,61.95 247.26,64.67 52.34,1.4 96.68,-3.4 143.31,-15.73 25.34,-6.7 100.19,-29.63 113.92,-41.13 -3.15,-28.18 -11.1,-31.13 -10.33,-66.77 1.83,-85.57 -40.61,-86.02 -1.11,-205.36 13.33,-40.27 65.46,-221.65 79.85,-240.98 13.29,16.23 11.8,34.58 18.01,55.78 8.54,29.16 57.75,110.42 75.84,151.75 31.83,72.7 5.49,117.05 62.48,239.64 20.76,44.66 77.8,171.5 68.2,227.28 -12.66,73.65 -61.65,58.5 -73.43,149.48 -1.98,15.3 3.96,56.39 9.74,66.23 31.91,4.68 23.16,-13.09 53,1.23 20.23,9.7 34.43,5.2 56.27,1.44 55.59,-9.58 49.71,-25.58 45.44,-81.16 -3.11,-40.44 1.14,-88.16 -2.9,-125.97 -5.02,-46.94 -12.22,-19.47 -13.71,-113.74 -1.29,-81.67 -21.36,-258.75 -56.36,-333.07 -22.08,-46.88 -24.55,-3.7 -41.24,-93.45 -13.71,-73.75 -55.93,-113.2 -66.23,-190.41 -10.55,-79.07 16.51,-179.89 -61.35,-233.37 -14.52,-9.97 -28.49,-30.49 -59.86,-37.6 -20.32,-4.6 -38.58,-0.67 -54.36,-9.53 -49.47,-27.75 -118.12,-53.78 -132.77,-63.23 -40.85,-26.35 -32.69,-48.26 -33.64,-100.87 -13.61,5.68 -4.09,-0.04 -13.4,9.5 -8.73,8.94 -9.05,15.31 -28.69,30.18 -37.73,28.57 -80.45,28.82 -118.14,0.16 -9.94,-7.56 -35.43,-38.59 -40.15,-40.82 -0.88,114.5 -8.31,88.82 -110.97,143.75 -28.48,15.23 -67.7,20.87 -94.95,35.18 -67.01,35.19 -76.39,93.72 -95.02,163.3 -13.23,49.4 -7.17,69.89 -10.06,119.86 -0.99,17.05 -18.52,66.75 -26.52,102.92 -8.69,39.3 -11.2,67.71 -29.55,99.76 -39.75,69.42 -62.66,83.38 -73.28,181.94 -8.59,79.73 -17.33,152.01 -29.3,230.49 -4.45,29.21 -7.78,85.39 -19.15,109.15 -17.97,37.56 -8.57,70.06 -17.76,112.08 -13.67,62.42 -15.79,69.85 18.65,94.24 21.13,14.96 59.37,41.08 94.9,34.87z"/>
   <path class="fil0" d="M657.84 1820.78c-0.49,21.49 27.25,169.12 33.23,211.05 9.62,67.4 33.32,142.85 24.9,215.58 -3.84,33.19 -18.47,70.17 -11.29,104.96 6.61,32.04 24.64,55.79 25.9,96.19 0.89,28.42 -14.21,72.45 -18.28,105.52 -5.08,41.24 -3.05,71.92 4.5,110.74 24.09,123.82 54.75,194.21 45.44,317.11 -2.96,39.01 -14.13,66.79 -6.34,106.89 14.06,72.29 -2.71,81.45 1.94,112.51 4.69,31.3 54.39,25.6 75.58,45.27 33.54,31.14 5.31,45.52 80.13,41.77 29.09,-1.46 78.89,-10.02 102.82,-19.9 5.17,-57.64 -68.41,-34.42 -111.8,-120.75 -13.66,-27.19 -29.89,-38.7 -41.49,-72.16 -34.9,-100.68 41.9,-367.66 39.71,-513.38 -1.4,-93.17 -67.69,-191.51 -11.61,-403.07 17.9,-67.51 19.56,-127.72 26.23,-200.87 3.04,-33.26 3.76,-198.87 -8.53,-218.53 -4.65,-3.59 4.22,-6.04 -13.94,-0.91l-45.36 18.6c-50,22.51 -165.97,45.85 -191.72,63.39z"/>
   <path class="fil0" d="M329.64 1731.68c-10.78,38.67 -10.91,173.33 -11.72,222.49 -1.4,85.69 -0.79,136.05 15.77,215.44 18.65,89.48 19.9,113.73 11.59,209.5 -6.41,73.91 -27.27,124.65 -31.09,198.83 -3.47,67.62 44.82,289.73 48.62,415.89 4.26,141.54 -10.64,131.76 -94.34,257.3 -35.28,52.91 -4.39,55.46 28.46,57.39 38.63,2.27 104.27,23.3 133.77,-28.54 29.43,-51.71 10.9,-35.77 14.52,-94.34 1.2,-19.32 1.48,-38.96 2.28,-58.33 1.42,-34.42 3.4,-74.82 2.04,-109.72 -9.74,-250.37 47.68,-320.32 50.83,-408.06 3.08,-85.63 -37.83,-118.85 -1.03,-198.41 41.24,-89.16 5.77,-109.76 10.99,-198.15 8.18,-138.5 61.07,-269.06 64.11,-400.04 -22.9,-14.55 -92.86,-29.03 -123.44,-39.09 -35.21,-11.59 -91.11,-41.07 -121.36,-42.17z"/>
   <path class="fil1" d="M657.84 1820.78c25.75,-17.54 141.72,-40.88 191.72,-63.39l45.36 -18.6c18.16,-5.13 9.29,-2.69 13.94,0.91 12.29,19.66 11.56,185.27 8.53,218.53 -6.67,73.15 -8.33,133.36 -26.23,200.87 -56.08,211.55 10.21,309.9 11.61,403.07 2.2,145.73 -74.61,412.7 -39.71,513.38 11.6,33.47 27.83,44.97 41.49,72.16 43.38,86.33 116.97,63.11 111.8,120.75 -23.93,9.88 -73.73,18.45 -102.82,19.9 -74.82,3.75 -46.59,-10.63 -80.13,-41.77 -21.19,-19.67 -70.89,-13.97 -75.58,-45.27 -4.65,-31.06 12.12,-40.22 -1.94,-112.51 -7.8,-40.1 3.38,-67.88 6.34,-106.89 9.31,-122.9 -21.35,-193.29 -45.44,-317.11 -7.55,-38.81 -9.58,-69.5 -4.5,-110.74 4.08,-33.08 19.17,-77.11 18.28,-105.52 -1.26,-40.41 -19.29,-64.15 -25.9,-96.19 -7.17,-34.78 7.45,-71.76 11.29,-104.96 8.41,-72.73 -15.29,-148.18 -24.9,-215.58 -5.98,-41.94 -33.72,-189.56 -33.23,-211.05zm-328.2 -89.1c30.25,1.09 86.14,30.58 121.36,42.17 30.58,10.06 100.54,24.54 123.44,39.09 -3.04,130.98 -55.93,261.54 -64.11,400.04 -5.22,88.39 30.26,108.99 -10.99,198.15 -36.8,79.56 4.1,112.77 1.03,198.41 -3.15,87.74 -60.57,157.68 -50.83,408.06 1.36,34.9 -0.62,75.3 -2.04,109.72 -0.8,19.38 -1.08,39.01 -2.28,58.33 -3.62,58.57 14.91,42.63 -14.52,94.34 -29.5,51.84 -95.14,30.81 -133.77,28.54 -32.85,-1.93 -63.74,-4.48 -28.46,-57.39 83.7,-125.54 98.6,-115.76 94.34,-257.3 -3.8,-126.16 -52.1,-348.27 -48.62,-415.89 3.82,-74.18 24.68,-124.92 31.09,-198.83 8.31,-95.78 7.06,-120.02 -11.59,-209.5 -16.55,-79.39 -17.17,-129.75 -15.77,-215.44 0.81,-49.16 0.94,-183.82 11.72,-222.49zm1.18 -14.46c-1.44,-22.17 23.06,-265.2 29.47,-284.23 48.67,5.5 186.44,100.43 393.15,48.07 23.25,-5.89 105.55,-37.45 117.61,-34.15 4.54,46.87 7.89,93.1 13.43,140.08 4.24,35.95 21.87,103.13 20.29,131.8 -20.03,12.45 -100.47,41.08 -127.41,47.96 -39.95,10.21 -115.52,39.04 -134.24,36.63l-13 -52.24c-41.35,2.69 -30.13,16.73 -38.36,53.98 -3.21,-0.48 -18.79,-10.36 -26.27,-13.01l-104.48 -30.55c-31.12,-9.32 -97.93,-43.93 -130.2,-44.34zm-194.14 131.19c-35.53,6.21 -73.77,-19.91 -94.9,-34.87 -34.44,-24.39 -32.31,-31.82 -18.65,-94.24 9.19,-42.01 -0.2,-74.52 17.76,-112.08 11.37,-23.76 14.7,-79.94 19.15,-109.15 11.96,-78.48 20.71,-150.76 29.3,-230.49 10.62,-98.55 33.53,-112.52 73.28,-181.94 18.35,-32.05 20.86,-60.46 29.55,-99.76 8,-36.17 25.54,-85.87 26.52,-102.92 2.89,-49.97 -3.17,-70.47 10.06,-119.86 18.63,-69.58 28.01,-128.11 95.02,-163.3 27.26,-14.31 66.47,-19.95 94.95,-35.18 102.66,-54.93 110.09,-29.24 110.97,-143.75 4.71,2.23 30.21,33.26 40.15,40.82 37.69,28.66 80.41,28.42 118.14,-0.16 19.63,-14.87 19.95,-21.23 28.69,-30.18 9.31,-9.53 -0.21,-3.82 13.4,-9.5 0.94,52.61 -7.21,74.52 33.64,100.87 14.64,9.45 83.29,35.47 132.77,63.23 15.79,8.86 34.04,4.93 54.36,9.53 31.37,7.11 45.34,27.62 59.86,37.6 77.86,53.48 50.8,154.3 61.35,233.37 10.3,77.21 52.53,116.66 66.23,190.41 16.69,89.74 19.16,46.56 41.24,93.45 35,74.32 55.07,251.4 56.36,333.07 1.49,94.27 8.68,66.8 13.71,113.74 4.05,37.81 -0.2,85.53 2.9,125.97 4.28,55.58 10.16,71.58 -45.44,81.16 -21.84,3.76 -36.04,8.26 -56.27,-1.44 -29.84,-14.32 -21.09,3.46 -53,-1.23 -5.78,-9.84 -11.72,-50.94 -9.74,-66.23 11.77,-90.98 60.76,-75.83 73.43,-149.48 9.59,-55.78 -47.44,-182.61 -68.2,-227.28 -56.98,-122.58 -30.64,-166.93 -62.48,-239.64 -18.1,-41.33 -67.3,-122.59 -75.84,-151.75 -6.21,-21.21 -4.72,-39.56 -18.01,-55.78 -14.39,19.33 -66.52,200.7 -79.85,240.98 -39.5,119.34 2.95,119.79 1.11,205.36 -0.77,35.64 7.18,38.59 10.33,66.77 -13.72,11.49 -88.58,34.43 -113.92,41.13 -46.62,12.33 -90.96,17.12 -143.31,15.73 -101.96,-2.72 -167.42,-35.23 -247.26,-64.67 2.01,-16.51 10.92,-38.34 15.56,-55.58 9.99,-37.07 27.52,-142.2 20.68,-173.81 -7.83,-36.16 -22.35,-67.17 -27.86,-108.07 -5.58,-41.4 -8.42,-80.88 -11.15,-123.34 -10.96,5.4 -87.86,169.13 -95.79,196.92 -6.04,21.18 -5.94,40.8 -12.07,62.92 -12.89,46.55 -36.84,124.18 -58.37,161.37 -42.19,72.9 -81.24,113 -80.36,220.1 0.65,79 62.62,176.95 21.95,251.18zm371.83 -1555.62c7.83,-22.43 29.45,-83.16 30.45,-100.66 2.49,-43.37 -13.1,-73.18 80.24,-70.07 57.4,1.91 91.47,-10.52 96,55.25 1.93,28.03 -2.08,39.96 12.49,63.54 26.2,42.42 0.39,40.63 36.67,40.34 0.7,-1.06 1.17,-2.57 1.52,-3.5 0.35,-0.91 1.02,-2.34 1.43,-3.45l4.9 -17.21c34.08,-1.57 11.89,51.68 2.14,67.12 -25,39.57 -24.49,4.55 -43.54,54.89 -14.81,39.13 -50.82,89.32 -100.17,90.55 -55.74,1.39 -88.35,-54.37 -103.55,-90.21 -25.32,-59.67 -29.8,-18.67 -43.12,-55.49 -6.4,-17.68 -20.07,-64.74 -2.05,-77.67 17.48,14.26 2.86,43.19 19.62,61.41l6.99 -14.84zm-3.09 -41.3c-3.61,-19.88 -8.49,-14.65 -8.65,-43.04 -0.21,-36.14 -0.13,-106.12 16.1,-133.67 20.99,-35.61 -1.33,-22.48 56.71,-40.89 26.88,-8.52 41.67,-24.1 79.62,-16.17 22.09,4.62 44.51,19.66 63.03,27.28 14.04,5.77 21.39,5.82 31.25,19.39 21.61,29.75 22.95,80.63 24.85,116.76 3.19,60.85 4.07,46.78 -7.9,62.72 -12.89,17.17 -5.08,9.4 -3.94,11.54l-19.4 -34.14c-8.25,-21.54 -3.54,-76.56 -16.91,-94.01 -22.45,-29.29 -120.2,-24.85 -140.16,-21.69 -48.58,7.7 -49.03,28.95 -52.68,33.6 -11.9,15.2 -2.82,54.9 -8.15,71.48l-9.28 29.33c-5.19,14.7 -13.16,1.31 -4.49,11.51zm427.35 704.65c4.8,4.6 1.95,0.89 6.04,7.55l6.66 16.79c14.94,41.93 60.78,108.44 78.26,156.89 22.14,61.36 6.89,122.8 53.05,217.78 160.78,330.82 4.32,231.66 -3.39,391.46 -0.43,9 7.91,55.32 10.67,60.11 10.96,19.01 37.73,4.13 52.63,5.97 23.52,2.91 17,12.95 57.59,7.07 15.39,-2.23 40.28,-6.02 53.16,-14 32.32,-20.01 18.27,-70.41 16.24,-110.51 -2.44,-48.19 4.09,-80.89 -7.11,-127.33 -10.15,-42.11 -3.76,-85.4 -9.02,-129.05 -11.36,-94.35 -20.21,-258.55 -75.5,-323.95 -21.3,-25.19 -16.59,-54.9 -32.79,-104.82 -11.88,-36.59 -29.5,-58.09 -41.14,-92.75 -26.89,-80.05 -1.79,-155.73 -32.4,-233.79 -19.76,-50.38 -28.94,-43.51 -62.49,-74.74 -42.69,-39.74 -68.34,-18.01 -99.64,-33.76 -6.6,-3.32 -12.12,-9.34 -21.2,-14.51 -99.71,-56.77 -152.41,-17.06 -137.57,-164.09 3.49,-34.59 2.59,-26.97 22.88,-43.62 17.71,-14.54 47.69,-59.92 32.51,-94.4 -7.09,-16.09 -9.3,-4.64 -12.95,-22.77l-5.32 -92.16c-8.51,-63.69 -14.93,-97.48 -56.73,-110.91 -71.23,-22.9 -48.05,-55.62 -180.47,-8.68 -32.89,11.66 -23.62,2.86 -39.11,27.31 -8.31,13.12 -11.37,6.04 -20.34,46.14 -6.85,30.65 -3.95,96.16 -4.93,130.56 -11.51,7.98 -23.64,6.95 -19.31,51.08 8.31,84.76 35.31,67.34 43.94,90.26 4.28,11.38 10.03,41.73 11.04,54.73 4.58,58.9 1.6,76.39 -38.39,97.58 -24.27,12.86 -65.5,33.38 -90.96,41.93 -64.78,21.77 -123.92,37.81 -148.97,121.76 -11.14,37.33 -22.96,71.8 -29.44,110.12 -6.97,41.19 3.9,85.12 -10.95,121.57 -38.24,93.85 -1.1,88.36 -69.78,200.61 -50.48,82.51 -47.28,105.19 -58.1,211.41 -8.24,80.87 -21.88,158.75 -32.65,239.01 -8.02,59.79 -12.94,1.87 -22.38,109.88 -3.66,41.85 -16.01,78.7 -14.23,118.94 27.86,21.73 97.02,85.39 145.55,63.18 19.76,-25.41 18.74,-87.31 13.51,-124.29 -2.49,-17.64 -10.92,-35.32 -16.09,-54.88 -30.57,-115.56 -13.41,-177.38 49.92,-274.48 33.14,-50.81 64.03,-142.45 77.63,-204.82 11.85,-54.4 11.4,-59.69 33.79,-107.41 9.19,-19.6 33.65,-79.16 47.12,-89.15 4.48,48.64 6.36,84.09 19.6,130.07 12.77,44.36 26.59,72.21 13.2,126.15 -10.1,40.69 -11.76,79.32 -24.47,119.31 -7,22.04 -14.1,35.53 -16.49,59.68 -22.19,224.18 -43.03,371.49 -38.75,612.06 1.72,96.84 37.19,166.91 33.65,259.15 -3.55,92.83 -29.3,166.16 -36.3,251.75 -7.64,93.44 71.01,409.51 44.79,531.9 -14.16,66.1 -181.97,219.08 -65.12,226.04 50.05,2.98 90.25,16.38 127.51,-3.42 36.04,-19.15 54.08,-52.29 49.56,-96.27 -2.41,-23.49 0.03,-46.85 0.93,-70.68 4.69,-123.27 -4.55,-295.56 23.27,-402.61 24.42,-93.98 43.82,-144.42 17.72,-248.2 -13.75,-54.62 8.84,-70.84 24.09,-114.82 17.27,-49.79 4.08,-80.52 -0.89,-128.61 -7.35,-71.14 20.51,-192.09 34.89,-256.18 9.18,-40.9 17.5,-81.9 23.28,-122.9 5.72,-40.69 8.25,-24.41 19.99,-54.32 15.73,-40.08 -3.74,-43.84 19.35,-54.86 4.81,18.47 4.32,34.29 13.66,51.98 12.42,23.54 10.55,18.12 14.86,47.18 11.27,75.91 51.72,270.79 53.52,333.97 1.48,52.23 -10.51,74.98 -13.61,117.62 -3.02,41.46 15.26,67.37 23.66,105.39 9.08,41.15 -5.25,70.24 -11.95,109.42 -18.64,108.79 23,216.34 44.31,332.18 15.66,85.11 -15.17,161.75 -1.35,233.09 6.72,34.71 -5.41,101.69 4.09,118.49 15.51,27.43 62.46,21.16 82.51,46.92 10.43,13.4 10.51,28.98 32.31,34.53 47.15,12.01 124.58,-10.9 168.2,-17.73 1.43,-36.52 -3.67,-48.42 -28.31,-63.78 -52.38,-32.66 -60,-28.22 -89.95,-82.06 -10.74,-19.32 -22.75,-30.46 -32.96,-52.88 -58.03,-127.44 76.17,-416.19 19.32,-623.38 -26.88,-97.96 -19.49,-208.7 6.27,-304.13 22.55,-83.51 29.91,-223.5 25.42,-318.68 -5.7,-120.56 -36.18,-252.32 -45.4,-384.34 -2.23,-31.98 -10.97,-47.47 -14.26,-71.59 -3.9,-28.49 0.05,-48.78 -6.76,-80.76 -5.02,-23.58 -12.96,-47.38 -11.48,-75.33 2.81,-53.34 65.57,-204.86 79.27,-268.16z"/>
   <path class="fil1" d="M330.82 1717.22c32.27,0.41 99.08,35.02 130.2,44.34l104.48 30.55c7.48,2.65 23.05,12.53 26.27,13.01 8.23,-37.25 -3,-51.28 38.36,-53.98l13 52.24c18.72,2.41 94.3,-26.42 134.24,-36.63 26.94,-6.88 107.38,-35.51 127.41,-47.96 1.58,-28.67 -16.05,-95.85 -20.29,-131.8 -5.53,-46.98 -8.88,-93.21 -13.43,-140.08 -12.07,-3.3 -94.36,28.26 -117.61,34.15 -206.72,52.37 -344.48,-42.57 -393.15,-48.07 -6.41,19.04 -30.92,262.06 -29.47,284.23z"/>
   <path class="fil0" d="M501.52 307.63c-16.76,-18.22 -2.13,-47.15 -19.62,-61.41 -18.02,12.93 -4.35,59.99 2.05,77.67 13.32,36.83 17.8,-4.17 43.12,55.49 15.21,35.84 47.82,91.6 103.55,90.21 49.34,-1.23 85.36,-51.42 100.17,-90.55 19.05,-50.34 18.55,-15.31 43.54,-54.89 9.75,-15.44 31.94,-68.69 -2.14,-67.12l-4.9 17.21c-0.4,1.1 -1.07,2.53 -1.43,3.45 -0.36,0.93 -0.82,2.44 -1.52,3.5 -36.28,0.29 -10.47,2.08 -36.67,-40.34 -14.57,-23.58 -10.56,-35.51 -12.49,-63.54 -4.52,-65.77 -38.59,-53.35 -96,-55.25 -93.34,-3.11 -77.75,26.71 -80.24,70.07 -1,17.49 -22.62,78.22 -30.45,100.66l-6.99 14.84z"/>
   <path class="fil2" d="M505.42 251.5c-8.67,-10.2 -0.7,3.19 4.49,-11.51l9.28 -29.33c5.33,-16.57 -3.75,-56.28 8.15,-71.48 3.65,-4.66 4.1,-25.91 52.68,-33.6 19.95,-3.16 117.71,-7.59 140.16,21.69 13.38,17.45 8.66,72.47 16.91,94.01l19.4 34.14c-1.14,-2.14 -8.95,5.63 3.94,-11.54 11.97,-15.94 11.09,-1.87 7.9,-62.72 -1.9,-36.13 -3.23,-87.02 -24.85,-116.76 -9.86,-13.58 -17.21,-13.62 -31.25,-19.39 -18.52,-7.62 -40.93,-22.66 -63.03,-27.28 -37.94,-7.93 -52.73,7.65 -79.62,16.17 -58.04,18.41 -35.72,5.28 -56.71,40.89 -16.24,27.55 -16.32,97.53 -16.1,133.67 0.16,28.39 5.04,23.17 8.65,43.04z"/>
  </g>
 </g>
</svg>
