<?xml version="1.0" encoding="UTF-8"?>
<!DOCTYPE svg PUBLIC "-//W3C//DTD SVG 1.1//EN" "http://www.w3.org/Graphics/SVG/1.1/DTD/svg11.dtd">
<!-- Creator: CorelDRAW -->
<svg xmlns="http://www.w3.org/2000/svg" xml:space="preserve" width="29.0483mm" height="76.2063mm" version="1.1" style="shape-rendering:geometricPrecision; text-rendering:geometricPrecision; image-rendering:optimizeQuality; fill-rule:evenodd; clip-rule:evenodd"
viewBox="0 0 643.16 1687.28"
 xmlns:xlink="http://www.w3.org/1999/xlink"
 xmlns:xodm="http://www.corel.com/coreldraw/odm/2003">
 <defs>
  <style type="text/css">
   <![CDATA[
    .str0 {stroke:#96989B;stroke-width:1.69;stroke-miterlimit:22.9256}
    .fil0 {fill:#D2D4D5}
    .fil1 {fill:#96989B}
    .fil2 {fill:#858789}
   ]]>
  </style>
 </defs>
 <g id="Capa_x0020_1">
  <metadata id="CorelCorpID_0Corel-Layer"/>
  <g id="_105553376697792">
   <path class="fil0" d="M457.49 721.93c-0.95,-8.89 -5.7,-15.56 -7.26,-26.91 -1.63,-11.84 0.44,-22.48 -0.2,-34.19 -1.27,-23.23 -12.17,-36.73 -3.83,-64.15 5.64,-18.54 12.52,-33.58 21.71,-47.92 8.58,-13.39 14.13,-32.25 24.87,-45.15 6.51,4.45 17.57,41.51 21.54,50.59 7.42,16.95 16.94,30.02 18.42,52.05 3.36,49.95 2.67,74.17 23.24,116.18 51.25,104.66 22.09,102.87 8.16,127.87 -3.82,6.86 -9.47,15.79 -12.25,22.49 -2.31,5.56 -6.61,21.06 -6.33,28.26l8.38 26.02c16.87,2.12 11.19,-6.41 28.24,0.25 11.79,4.61 15.37,3.42 27.04,1.24 26.21,-4.91 23.52,-14.74 23.97,-40.6 0.37,-21.11 0.33,-42.21 0.28,-63.31 -0.05,-20.43 -3.46,-39.47 -3.48,-61.12 -0.04,-41.13 -4.7,-78.66 -6.46,-120.1 -2.6,-61.3 -25.36,-68.24 -28.59,-95.98 -2.59,-22.3 0.27,-34.54 -6.27,-56.42 -5.06,-16.92 -12.73,-28.2 -16.76,-45.98 -5.52,-24.35 1.34,-71.47 -17.36,-109.89 -19.1,-39.24 -57.69,-37.21 -82.04,-44.62 -7.59,-2.31 -21.05,-11.93 -44.28,-19.43 -8,-2.58 -15.75,-4.97 -22.81,-7.54 -3.87,-1.41 -6.76,-2.62 -10.78,-4.1 -17.46,-6.43 -13.38,-4.05 -15.96,-48.63 -6.34,3.03 -13.15,15.81 -22.99,22.73 -42.32,29.81 -68.86,-10.27 -83.26,-26.94 -2.29,61.6 6.95,43.09 -52.68,70.04 -18.58,8.4 -18.25,15.6 -43.3,18.13 -14.29,1.45 -35.75,6.7 -45.97,12.82 -64.05,38.37 -23.95,109.06 -53.12,187 -6.48,17.3 -10.19,29.42 -13.16,48.37 -3.61,23.1 -8.46,25.69 -17.02,43.74 -7.34,15.49 -6.87,33.38 -11.43,50.13 -6.84,25.13 -1.23,81.29 -4.23,115.88 -3.48,40.09 -13.95,35.08 -12.63,76.34 0.46,14.57 -7.54,29.75 -9.6,52.26 -3.2,34.97 12.91,25.98 29.73,34.31 9.14,4.53 11.15,10.24 21.26,12.38 14.55,-10.47 20.86,-44.6 19.94,-53 -1.78,-16.21 -19.64,-36.61 -19.49,-50.35 0.17,-15.87 32.29,-83.66 39.18,-100.04 28.24,-67.14 18.7,-35.79 27.92,-111.98 4.21,-34.81 13.44,-46.16 28.27,-76.47l13.4 -23.23c0.4,0.58 0.8,1.35 1.06,1.83l18.58 41.47c24.26,57.49 11.27,63.53 8.05,104.57 -0.77,9.86 0.03,19.82 -0.89,29.62 -0.74,7.84 -3.24,15.33 -3.6,21.93 32.63,26.26 73.37,44.77 127.53,43.49 60.24,-1.42 87.99,-17.79 137.28,-33.94z"/>
   <path class="fil0" d="M134.84 1669.31c23.34,4.87 90.6,19.35 101.82,-2.17 3.24,-6.21 5.31,-47.34 5.32,-56.68 0.03,-23.58 9.64,-29.32 8.91,-52.35 -1.62,-50.53 -17.71,-14.4 -1.17,-104.47 6.72,-36.59 4.53,-71.23 15.66,-107.45 12.06,-39.26 14.39,-63.57 4.65,-104.77 -6.25,-26.45 1.59,-31.43 5.12,-51.71 2.96,-17.01 0.8,-40.66 1.86,-59.54 1.97,-35.21 13.03,-68.87 18.56,-102.75 5.33,-32.7 10.53,-78.03 9.21,-111.1 -5.69,-3.97 -131.99,-44.39 -145.12,-46.44 -5.12,122.48 -20.99,128.69 23.51,253.26 16.98,47.52 -9.37,114.7 -14.06,152.52 -11.84,95.5 21.02,240.61 11.91,269.8 -8.02,25.65 3.32,31.4 -2.44,52.18 -16.08,58.05 -48.19,29.08 -43.73,71.66z"/>
   <path class="fil0" d="M333.2 927.25c-7.95,58.6 20.38,158.74 22.51,224.85 0.52,16.27 -0.22,44.99 2.52,58.15 15.64,74.99 -24.88,29.3 5.84,159.99 5.11,21.73 27.65,138.28 25.6,159.36 -2.52,25.97 -3.49,26.66 -0.1,52.85 2.09,16.21 -6.27,41.81 3.94,53.13 4.79,5.31 14.1,5.29 21.22,9.09 27.89,14.89 25.07,31.63 65,28.04 16.75,-1.51 36.29,-5.84 52.06,-10.05 3.34,-41.99 -40.18,-24.26 -59.36,-60.06 -24.52,-45.76 -34.41,-17.03 -29.92,-88.11 2.46,-38.86 4.16,-69.63 10.69,-107.16 26.69,-153.43 -6.79,-146.12 -7.3,-209.32 -0.43,-53.43 5.18,-54.4 20.52,-98.26 18.9,-54.02 24.61,-149.89 17.62,-213.19 -7.96,-1.35 -61.49,17.02 -74.63,20.46 -22,5.76 -60.99,11.93 -76.2,20.24z"/>
   <path class="fil1 str0" d="M333.2 927.25c15.21,-8.31 54.2,-14.48 76.2,-20.24 13.14,-3.44 66.67,-21.81 74.63,-20.46 6.99,63.29 1.28,159.16 -17.62,213.19 -15.34,43.86 -20.95,44.84 -20.52,98.26 0.52,63.2 34,55.9 7.3,209.32 -6.53,37.54 -8.24,68.3 -10.69,107.16 -4.49,71.09 5.4,42.35 29.92,88.11 19.18,35.8 62.7,18.07 59.36,60.06 -15.77,4.22 -35.31,8.54 -52.06,10.05 -39.93,3.6 -37.11,-13.15 -65,-28.04 -7.12,-3.8 -16.43,-3.78 -21.22,-9.09 -10.21,-11.32 -1.85,-36.91 -3.94,-53.13 -3.38,-26.19 -2.42,-26.88 0.1,-52.85 2.05,-21.08 -20.49,-137.62 -25.6,-159.36 -30.72,-130.69 9.81,-85 -5.84,-159.99 -2.74,-13.16 -2,-41.88 -2.52,-58.15 -2.13,-66.11 -30.46,-166.25 -22.51,-224.85zm-198.36 742.06c-4.46,-42.57 27.65,-13.6 43.73,-71.66 5.76,-20.78 -5.58,-26.52 2.44,-52.18 9.12,-29.18 -23.74,-174.3 -11.91,-269.8 4.69,-37.83 31.04,-105 14.06,-152.52 -44.51,-124.58 -28.63,-130.78 -23.51,-253.26 13.13,2.05 139.43,42.47 145.12,46.44 1.32,33.07 -3.88,78.4 -9.21,111.1 -5.52,33.88 -16.59,67.54 -18.56,102.75 -1.06,18.87 1.1,42.52 -1.86,59.54 -3.53,20.28 -11.37,25.27 -5.12,51.71 9.74,41.2 7.41,65.52 -4.65,104.77 -11.13,36.22 -8.94,70.86 -15.66,107.45 -16.55,90.07 -0.45,53.93 1.17,104.47 0.74,23.03 -8.87,28.77 -8.91,52.35 -0.01,9.34 -2.08,50.46 -5.32,56.68 -11.22,21.53 -78.48,7.04 -101.82,2.17zm26.55 -809.74c1.16,-20.73 8.96,-49.24 11.55,-71.44 2.51,-21.53 5.21,-52.58 16.22,-66.56 12.14,3.45 49.03,45.26 131.09,42.74 73.5,-2.26 83.75,-20.26 141.3,-34.72 6.14,24.39 23.47,124.43 20.9,145.26 -53.34,24.2 -96.6,26.53 -134.39,38.49 -29.99,9.48 -13.08,1.99 -25.66,-18.87 -9.85,1.94 0.01,-0.88 -15.29,12.22 -20.62,-3.52 -52.24,-15.79 -72.99,-22.22l-72.72 -24.89zm296.1 -137.64c-49.3,16.15 -77.04,32.52 -137.28,33.94 -54.15,1.28 -94.89,-17.23 -127.53,-43.49 0.37,-6.6 2.87,-14.09 3.6,-21.93 0.93,-9.8 0.12,-19.76 0.89,-29.62 3.22,-41.03 16.2,-47.08 -8.05,-104.57l-18.58 -41.47c-0.26,-0.49 -0.66,-1.26 -1.06,-1.83l-13.4 23.23c-14.83,30.31 -24.06,41.65 -28.27,76.47 -9.22,76.2 0.31,44.85 -27.92,111.98 -6.89,16.38 -39,84.18 -39.18,100.04 -0.15,13.74 17.71,34.14 19.49,50.35 0.92,8.4 -5.38,42.52 -19.94,53 -10.11,-2.14 -12.12,-7.85 -21.26,-12.38 -16.82,-8.33 -32.92,0.66 -29.73,-34.31 2.06,-22.51 10.07,-37.69 9.6,-52.26 -1.32,-41.26 9.15,-36.26 12.63,-76.34 3,-34.59 -2.61,-90.75 4.23,-115.88 4.56,-16.76 4.09,-34.65 11.43,-50.13 8.56,-18.05 13.4,-20.64 17.02,-43.74 2.96,-18.95 6.68,-31.07 13.16,-48.37 29.17,-77.94 -10.94,-148.62 53.12,-187 10.22,-6.13 31.69,-11.38 45.97,-12.82 25.04,-2.54 24.72,-9.74 43.3,-18.13 59.63,-26.95 50.39,-8.44 52.68,-70.04 14.39,16.67 40.94,56.75 83.26,26.94 9.83,-6.93 16.65,-19.7 22.99,-22.73 2.59,44.58 -1.5,42.2 15.96,48.63 4.02,1.48 6.91,2.69 10.78,4.1 7.06,2.57 14.81,4.96 22.81,7.54 23.22,7.5 36.68,17.12 44.28,19.43 24.35,7.41 62.94,5.37 82.04,44.62 18.7,38.42 11.84,85.54 17.36,109.89 4.03,17.78 11.7,29.06 16.76,45.98 6.54,21.88 3.67,34.11 6.27,56.42 3.23,27.74 25.99,34.68 28.59,95.98 1.76,41.44 6.43,78.97 6.46,120.1 0.02,21.65 3.43,40.69 3.48,61.12 0.06,21.11 0.09,42.21 -0.28,63.31 -0.45,25.86 2.24,35.69 -23.97,40.6 -11.67,2.18 -15.25,3.37 -27.04,-1.24 -17.04,-6.66 -11.37,1.87 -28.24,-0.25l-8.38 -26.02c-0.27,-7.2 4.02,-22.7 6.33,-28.26 2.78,-6.69 8.43,-15.62 12.25,-22.49 13.92,-24.99 43.09,-23.2 -8.16,-127.87 -20.56,-42 -19.88,-66.23 -23.24,-116.18 -1.48,-22.03 -11,-35.1 -18.42,-52.05 -3.97,-9.08 -15.03,-46.14 -21.54,-50.59 -10.74,12.9 -16.29,31.76 -24.87,45.15 -9.18,14.34 -16.07,29.38 -21.71,47.92 -8.34,27.41 2.57,40.92 3.83,64.15 0.64,11.72 -1.43,22.36 0.2,34.19 1.56,11.36 6.31,18.02 7.26,26.91zm-204.35 -582.17c3.66,11.18 -1.87,3.47 6.57,6.62 3.08,-5.29 8.47,-9.11 10.44,-13.42 2.36,-5.17 2.49,-13.43 4.52,-19.77 5.15,-16.16 3.91,-23.13 7.5,-40.54 15,-8.91 76.46,-18.69 83.6,3.1 3.91,11.96 3.02,27.58 8.82,43.77 5.21,14.54 7.73,28.29 11.51,43.29l8.4 -24.17c1.51,-4.28 0.41,-3.55 2.17,-7.91 14.28,4.56 9.91,35.01 -4.72,42.7 -11.09,5.83 -7.09,-2.54 -12.32,12.17 -22.09,62.06 -72.79,65.87 -99.42,17.46 -4.05,-7.36 -8.66,-25.4 -15.5,-30.23 -8.05,-5.68 -13.05,-6.97 -11.57,-33.08zm9.31 -10.62c-6.66,-17.55 -6.78,-70.37 1.51,-87.3 5.78,-11.82 49.3,-33.24 62.51,-32.41 7.93,0.5 28.11,9.58 35.42,13.9 23.54,13.89 19.79,-10.28 30.22,62.7 2.33,16.28 4.71,29.79 -4.17,40.52 -3.31,-4.01 -9.07,-19.4 -10.34,-25.65 -7.47,-36.73 8.32,-46.17 -55.18,-45.91 -18.42,0.08 -44.8,-0.92 -49.63,20.12 -1.02,4.45 -10.35,53.86 -10.32,54.03zm0.82 119.65c-17.4,10.71 -44.16,16.29 -61.85,29.19 -11.65,8.5 -5.64,7.41 -23.07,9.21 -106.76,10.99 -90.55,76.71 -96.51,157.22 -2.56,34.63 -19.19,63.32 -25.62,101.48 -4.95,29.37 -21.14,38.31 -23.15,69.21 -0.81,12.49 -3.71,14.88 -5.89,26.11 -7.02,36.17 1.61,84.35 -4.37,122.56 -2.72,17.41 -11.69,35.11 -12,51.97 -0.89,48.28 -0.98,15.67 -7.67,54.61 -9.21,53.64 10.53,38.99 35.99,54.13 8.87,5.28 9.86,10.06 21.16,11.7 18.7,-7.51 18.05,-23.13 24.85,-42.59 6.91,-19.77 -3.26,-35.92 -10.75,-52.23 -10.77,-23.45 -2.32,-29.08 6.08,-51.24 21.02,-55.38 46.01,-90.1 52.76,-154.05 8.05,-76.33 13.47,-48.9 32.95,-105.17 4.38,3.07 2.51,0.99 5.7,5.31 1.05,1.43 2.68,5.4 3.52,7.4 34.54,82.99 16.6,57.39 14,121.57 -1.72,42.37 -3.05,34.97 -14.45,68.97 -4.88,14.55 -22.64,126.23 -23.49,145.07 -4.01,88.45 -13.81,137.37 17.08,224.03 21.52,60.38 10.87,81.47 -1.84,141.93 -15.42,73.34 -0.77,192.64 8.2,271.88 2.58,22.8 -0.8,19.29 -4.3,37.54 -4.51,23.52 11.23,40.74 -11.48,67.44 -6.43,7.56 -16.04,10.29 -23.83,17.66 -6.27,5.93 -9.5,16.04 -8.4,25.41l3.29 10.12c9.17,8.36 62.24,9.17 79.3,10.97 17.47,1.84 34.56,-7.14 36.17,-25.56 0.99,-11.35 2.95,-18.66 3.71,-28.32 0.79,-10.11 -0.65,-20.53 0.35,-30.62 3.27,-33.21 17.53,-16.85 2.58,-80.35 -5.2,-22.08 -1.01,-35.19 2.93,-56.8 6.64,-36.4 6.27,-75.31 15.62,-110.48 10.48,-39.44 18.63,-67.77 7.63,-110.39 -7.49,-28.99 1.12,-31.92 4.19,-54.67 2.65,-19.61 0.44,-42.37 1.82,-63.05 2.23,-33.43 14.56,-72.2 19.42,-105.54 2.84,-19.45 8.78,-104.38 14.14,-112.16 7.88,12.06 7.24,36.28 7.48,53.9 0.8,58.37 18.61,113.87 22.17,172.52 1.23,20.24 1.09,41.65 2.09,61.31 1.05,20.69 8.93,37.92 2.7,58.74 -12.91,43.16 -7.84,72.14 3.24,113.33 6.98,25.95 29.31,137.79 25.8,166.16 -5.06,40.93 2.21,34.9 1.42,58.61 -0.56,16.82 -6.93,41.38 8.61,51.09 17.88,11.16 13.95,0.77 41.25,24.41 11.86,10.27 32.36,14.6 52.15,11.29 17.86,-2.99 40.83,-4.06 54.46,-12.32 4.88,-54.46 -43.2,-33.63 -61.59,-70.21 -13.22,-26.3 -30.62,-27.14 -29.19,-58.59 1.85,-40.61 3.86,-81.82 10.44,-121.67 29.54,-178.87 -7.22,-150.75 -5.42,-231.99 1.65,-74.47 40.08,-87.82 39.9,-224.85 -0.04,-26.42 -0.62,-58.72 -1.18,-82.74 -0.5,-21.76 -7.67,-54.14 -10.14,-79.48 -5.91,-60.6 -23.47,-92 -24.86,-106.21 -1.47,-14.93 1.9,-26.79 -1.28,-42.53 -7.41,-36.56 -8.22,-36.6 5.19,-71.82l31.5 -57.34c4.84,6.89 13.86,36.64 19.31,47.5 28.74,57.19 -2.26,79.93 40.98,166.31 8.34,16.67 12.86,28.78 18.37,49.43 7.76,29.09 11.54,33.36 -5.35,51.49 -7.52,8.07 -21.04,32.89 -24.31,45.99 -6.11,24.43 -2.57,26.81 4.08,48.19l1.32 3.25c3.71,9.35 22.09,0.34 26.35,0.57 8.83,0.47 7.8,6.57 26.15,5 19.32,-1.65 37.27,-7.98 40.29,-24.26 5.79,-31.2 -0.75,-94.44 -2.25,-125.84 -1.03,-21.58 0.4,-43.52 -1.03,-65.07 -1.32,-19.86 -5.66,-37.84 -5.7,-59.31 -0.05,-29.76 -0.97,-58.32 -14.85,-84.15 -24.97,-46.48 -7.96,-35.75 -17.76,-80.36 -4.39,-20.01 -12.31,-30.1 -17.29,-48.51 -18.78,-69.42 14.97,-147.3 -96.77,-164.88 -18.61,-2.93 -28.38,-12.51 -46.82,-18.92 -16.82,-5.85 -34.2,-9.82 -48.5,-18.72 -1.18,-12.72 -2.86,-28.29 -2.88,-40.71 -0.04,-25.51 0.29,-19.41 13.73,-29.58 8.77,-6.64 12.72,-19.43 12.48,-31.62 -0.42,-22.03 -10.36,-11.72 -9.84,-36.98 0.29,-13.99 -5.3,-66.18 -10.35,-76.22 -10.32,-20.52 -10.76,-8.4 -27.05,-16.86l-31.58 -14.05c-12.79,-4.59 -53.12,13.91 -62.98,20.37 -21.51,14.09 -20.58,42.17 -21.24,69.21 -0.57,23.68 3.45,17.23 -3.01,39.8 -9.82,34.3 14.14,38.74 17.53,71.43 1.49,14.33 1.4,32.2 -0.56,46.43z"/>
   <path class="fil1" d="M234.11 884.46c20.75,6.43 52.37,18.7 72.99,22.22 15.3,-13.1 5.44,-10.28 15.29,-12.22 12.57,20.87 -4.33,28.35 25.66,18.87 37.79,-11.95 81.05,-14.28 134.39,-38.49 2.57,-20.84 -14.76,-120.87 -20.9,-145.26 -57.56,14.46 -67.8,32.46 -141.3,34.72 -82.06,2.52 -118.94,-39.28 -131.09,-42.74 -11,13.98 -13.71,45.03 -16.22,66.56 -2.59,22.2 -10.39,50.71 -11.55,71.44l72.72 24.89z"/>
   <path class="fil0" d="M253.14 139.76c-1.48,26.1 3.52,27.39 11.57,33.08 6.84,4.83 11.45,22.87 15.5,30.23 26.62,48.41 77.33,44.6 99.42,-17.46 5.24,-14.71 1.24,-6.34 12.32,-12.17 14.62,-7.69 18.99,-38.14 4.72,-42.7 -1.76,4.36 -0.67,3.63 -2.17,7.91l-8.4 24.17c-3.78,-14.99 -6.29,-28.74 -11.51,-43.29 -5.8,-16.19 -4.91,-31.81 -8.82,-43.77 -7.13,-21.8 -68.59,-12.01 -83.6,-3.1 -3.6,17.41 -2.35,24.38 -7.5,40.54 -2.02,6.34 -2.16,14.6 -4.52,19.77 -1.97,4.3 -7.35,8.13 -10.44,13.42 -8.44,-3.15 -2.91,4.56 -6.57,-6.62z"/>
   <path class="fil2" d="M262.44 129.14c-0.03,-0.17 9.3,-49.59 10.32,-54.03 4.82,-21.03 31.21,-20.04 49.63,-20.12 63.5,-0.27 47.72,9.18 55.18,45.91 1.27,6.25 7.03,21.64 10.34,25.65 8.88,-10.73 6.5,-24.24 4.17,-40.52 -10.43,-72.98 -6.68,-48.81 -30.22,-62.7 -7.31,-4.32 -27.49,-13.39 -35.42,-13.9 -13.2,-0.84 -56.72,20.58 -62.51,32.41 -8.28,16.93 -8.16,69.75 -1.51,87.3z"/>
  </g>
 </g>
</svg>
