<?xml version="1.0" encoding="UTF-8"?>
<!DOCTYPE svg PUBLIC "-//W3C//DTD SVG 1.1//EN" "http://www.w3.org/Graphics/SVG/1.1/DTD/svg11.dtd">
<!-- Creator: CorelDRAW -->
<svg xmlns="http://www.w3.org/2000/svg" xml:space="preserve" width="8.6668mm" height="8.6666mm" version="1.1" style="shape-rendering:geometricPrecision; text-rendering:geometricPrecision; image-rendering:optimizeQuality; fill-rule:evenodd; clip-rule:evenodd"
viewBox="0 0 144.59 144.59"
 xmlns:xlink="http://www.w3.org/1999/xlink"
 xmlns:xodm="http://www.corel.com/coreldraw/odm/2003">
 <defs>
  <style type="text/css">
   <![CDATA[
    .str0 {stroke:#DE0000;stroke-width:3.34;stroke-miterlimit:22.9256}
    .fil1 {fill:white}
    .fil0 {fill:#DE0000}
   ]]>
  </style>
 </defs>
 <g id="Capa_x0020_1">
  <metadata id="CorelCorpID_0Corel-Layer"/>
  <g id="_105553340734880">
   <circle class="fil0 str0" cx="72.3" cy="72.29" r="70.63"/>
   <path class="fil1" d="M87.16 65.88c0,2.24 -1.48,-0.35 -3.87,6.04 -1.21,3.22 -9.31,14.46 0.27,21.33 3.37,2.42 9.72,4.45 13.53,6.28 5.92,2.85 8.22,3.79 9.88,10.92l-69.35 0c2.74,-11.76 11.58,-10.06 22.8,-16.83 3.78,-2.29 7.43,-9.29 3.95,-15.85l-2.82 -5.11c-0.45,-1.18 -0.77,-2.44 -1.41,-3.55l-2.71 -3.24c0.1,-4.44 0.91,-3.21 0.8,-6.84 -0.25,-7.78 -5.7,-24.86 14.07,-24.86 4.22,0 5.93,2.09 8.54,3.35 0.21,0.1 0.48,0.2 0.69,0.3 0.22,0.1 0.5,0.18 0.71,0.28 8,3.5 6.19,10.5 4.6,18.63 -1.14,5.84 0.32,3.5 0.32,9.15zm-34.68 -18.82l0.88 10.9c-0.06,7.01 -3.09,4.92 1.78,12.19 3.13,4.67 5.26,10.05 5.26,15.55 0,8.05 -27.74,8.84 -27.74,24.77l0 3.96 79.26 0c0,-25.54 -27.74,-15.52 -27.74,-31.7 0,-3.66 1.4,-3.8 3.32,-8.57 2.1,-5.2 4.6,-7.04 4.6,-8.28 0,-4.53 -0.89,-4.49 -0.79,-7.83 0.47,-15.65 4.66,-17.28 -9.65,-25.32 -5.64,-3.17 -3.01,-2.52 -12.34,-2.52 -9.75,0 -16.84,7.09 -16.84,16.84z"/>
  </g>
 </g>
</svg>
