<?xml version="1.0" encoding="UTF-8"?>
<!DOCTYPE svg PUBLIC "-//W3C//DTD SVG 1.1//EN" "http://www.w3.org/Graphics/SVG/1.1/DTD/svg11.dtd">
<!-- Creator: CorelDRAW -->
<svg xmlns="http://www.w3.org/2000/svg" xml:space="preserve" width="8.6668mm" height="8.6666mm" version="1.1" style="shape-rendering:geometricPrecision; text-rendering:geometricPrecision; image-rendering:optimizeQuality; fill-rule:evenodd; clip-rule:evenodd"
viewBox="0 0 131.86 131.85"
 xmlns:xlink="http://www.w3.org/1999/xlink"
 xmlns:xodm="http://www.corel.com/coreldraw/odm/2003">
 <defs>
  <style type="text/css">
   <![CDATA[
    .str0 {stroke:#D2D4D5;stroke-width:3.04;stroke-miterlimit:22.9256}
    .fil0 {fill:#D2D4D5}
    .fil1 {fill:#96989B}
   ]]>
  </style>
 </defs>
 <g id="Capa_x0020_1">
  <metadata id="CorelCorpID_0Corel-Layer"/>
  <g id="_105553209201952">
   <circle class="fil0 str0" cx="65.93" cy="65.93" r="64.41"/>
   <path class="fil1" d="M79.48 60.08c0,2.04 -1.35,-0.32 -3.53,5.51 -1.1,2.94 -8.49,13.19 0.24,19.46 3.07,2.21 8.86,4.06 12.34,5.73 5.4,2.6 7.5,3.46 9.01,9.96l-63.25 0c2.5,-10.73 10.56,-9.17 20.79,-15.35 3.45,-2.09 6.78,-8.48 3.6,-14.46l-2.57 -4.66c-0.41,-1.08 -0.7,-2.23 -1.29,-3.23l-2.47 -2.95c0.09,-4.05 0.83,-2.93 0.73,-6.24 -0.23,-7.1 -5.19,-22.67 12.83,-22.67 3.85,0 5.41,1.9 7.79,3.06 0.19,0.09 0.44,0.18 0.63,0.27 0.2,0.09 0.45,0.16 0.65,0.25 7.3,3.19 5.65,9.57 4.2,16.99 -1.04,5.32 0.29,3.19 0.29,8.35zm-31.62 -17.17l0.8 9.94c-0.05,6.39 -2.82,4.49 1.63,11.12 2.85,4.26 4.8,9.16 4.8,14.18 0,7.34 -25.3,8.06 -25.3,22.59l0 3.61 72.28 0c0,-23.29 -25.3,-14.15 -25.3,-28.91 0,-3.34 1.28,-3.47 3.03,-7.81 1.91,-4.74 4.2,-6.42 4.2,-7.55 0,-4.14 -0.82,-4.1 -0.72,-7.14 0.43,-14.27 4.25,-15.76 -8.8,-23.09 -5.15,-2.89 -2.74,-2.29 -11.26,-2.29 -8.89,0 -15.36,6.47 -15.36,15.36z"/>
  </g>
 </g>
</svg>
