<?xml version="1.0" encoding="UTF-8"?>
<!DOCTYPE svg PUBLIC "-//W3C//DTD SVG 1.1//EN" "http://www.w3.org/Graphics/SVG/1.1/DTD/svg11.dtd">
<!-- Creator: CorelDRAW -->
<svg xmlns="http://www.w3.org/2000/svg" xml:space="preserve" width="24.5114mm" height="74.4579mm" version="1.1" style="shape-rendering:geometricPrecision; text-rendering:geometricPrecision; image-rendering:optimizeQuality; fill-rule:evenodd; clip-rule:evenodd"
viewBox="0 0 791.93 2405.63"
 xmlns:xlink="http://www.w3.org/1999/xlink"
 xmlns:xodm="http://www.corel.com/coreldraw/odm/2003">
 <defs>
  <style type="text/css">
   <![CDATA[
    .fil0 {fill:#DE0000}
    .fil1 {fill:#E5BC9E}
   ]]>
  </style>
 </defs>
 <g id="Capa_x0020_1">
  <metadata id="CorelCorpID_0Corel-Layer"/>
  <g id="_105553379762496">
   <path class="fil0" d="M184.48 1210.15c50.52,6.71 81.28,-1.35 146.75,32.8 66.38,34.63 56.26,28.09 55.43,122.44 -1,113.36 -4.78,225.83 -6.28,344.98 -0.71,56.35 -11.71,110.53 -12.53,166.29 -0.85,57.87 3.52,115.08 6.78,172.42 3.4,59.81 3.65,115.76 3.42,175.61l5.61 83.14c-0.7,17.58 -9.58,14 -9.31,36.78 0.18,15.62 5.24,28.77 -2.39,43.05 -16.22,6.39 -103.34,7.64 -119.04,-0.45 -4.17,-15.43 2.18,-20.72 9.07,-29.18 20.09,-24.65 31.28,-57.78 35.77,-90.57 8.59,-62.72 -63.8,-219.36 -54.52,-452.48 5.29,-132.72 -10.54,-168.81 -31.69,-298.09 -18.96,-115.87 -41.35,-178.69 -27.06,-306.74zm236.75 1178.4c-7.87,-11.4 -5.04,-20.42 -3.92,-35.9 1.93,-26.48 -1.73,-17.65 -7.41,-36.83 -1.9,-6.39 4.14,-69.08 4.2,-84.96 0.23,-60.42 -0.72,-117.61 3.22,-178.09 3.68,-56.49 7.56,-113.13 6.94,-169.95 -0.63,-57.49 -11.02,-110.85 -11.55,-169.36 -0.54,-59.44 -2.37,-116.47 -4.41,-175.62l-1.86 -255.22c6.91,-27.36 123.48,-76.72 202.27,-70.72l5.65 55.01c-3.8,129.18 -9.56,134.33 -37.86,269.37 -2.74,13.06 -5.09,26.03 -6.73,39.39l-5.71 33.97c-5.29,24.11 -10.09,58.5 -12.9,83.15 -3.24,28.42 -8.42,54.88 -4.91,82.7 29.07,230.85 -67.29,431.29 -49.03,502.49 7.87,30.7 9.41,48.46 25.32,70.17 13.78,18.79 42.1,44.24 -11.83,44.65 -21.3,0.16 -72.97,0.3 -89.48,-4.23zm166.56 -1266.48c-25.63,13.58 -153.39,21.2 -191.2,21.15 -72.04,-0.1 -125.34,-10.82 -193.09,-19.16 10.44,-51.02 44.2,-97.58 62.06,-145.38 18.19,-48.69 -0.04,-137.93 -12.13,-186.59 45.25,12.59 109.68,1.83 129.47,-30.95 28.47,-1.89 22.98,-0.38 38.62,12.78 9.09,7.64 19.47,12.31 32.85,16.4 32.37,9.87 50.84,10.49 84.26,1.69 -8.89,49.07 -31.7,133.61 -13.45,182.99 18.19,49.24 48.48,96.38 62.61,147.07zm-29.15 -627.32c36.3,5.92 68.22,36.2 82.41,62.45 28.68,53.03 28.53,194.17 30.24,259.95 2.85,109.45 36.08,130.05 50.92,237.95l17.59 120.97c15.6,68.28 45.21,94.81 38.3,170.83l-5.37 50.38c-1.97,9.01 -1.99,7.14 -6.54,12.11 -36.94,-11.68 -25.29,-115.6 -55.33,-109.71 -15.38,13.11 10.39,52.13 -15.51,61.34 -10.05,-7.89 -21.31,-94.93 -20.18,-105.85 4.79,-46.46 23.13,-8.29 -9.24,-103.7 -60.17,-177.37 -72.91,-189.98 -89.77,-366.06 -3.32,-34.63 2.83,-30.16 7.52,-58.15 8.15,-48.63 -11.2,-70.41 -21.89,-106.14 -3.11,-10.41 -0.44,-100.72 -3.15,-126.37zm-535.97 915.11c-29.05,-136.43 16.03,-154.57 30.55,-236.94 15.48,-87.79 18.72,-161.01 47.89,-241.81 27.35,-75.77 22.12,-176.48 26.39,-261.91 4.24,-84.72 25.76,-156.61 105.77,-174.6 -1.56,21.27 -2.92,42.21 -3.14,63.83 -0.14,13.76 3.01,51.12 1.22,60.38 -2.15,11.09 -14,30.51 -18.17,45.76 -17.7,64.66 6.56,72.43 2.56,116.06 -7.05,76.96 -3.18,88.4 -24.46,170.24 -16.98,65.32 -42.3,134.65 -64.04,197.66 -31.04,89.94 -18.63,59.17 -11.04,100.18 2.74,14.82 -9.01,103.4 -16.92,111.57 -11.83,-0.33 -13.95,-9.38 -14.62,-22.35 -0.42,-8.16 0.82,-14.67 0.95,-21.97 0.27,-15.56 -0.92,-12.89 -3.15,-16.47 -20.6,-3.85 -23.78,36.1 -27.24,54.08 -4.95,25.75 -10.22,52.64 -32.53,56.3zm434.5 -1037.78c0.18,15.63 0.59,8.26 -0.11,23.07 -3.47,73.9 19.32,45.27 79.12,94.63 3.05,32.55 4.16,60.56 2.28,93.37 -2.22,38.5 -14.84,40.32 -37.91,57.61 -29.21,21.9 -85.29,48.83 -93.92,96.49l-19.28 -0.8c-16.34,-29.91 -17.54,-39.56 -40.81,-57.27 -103.8,-78.98 -91.11,-41.46 -94.01,-151.45 -0.26,-9.88 1.82,-20.95 3.83,-38.69l60.8 -37.79c12.96,-8.87 16.94,-9.71 18.03,-31.26 0.67,-13.14 1.36,-35.33 0.29,-47.8 -12.03,-1.98 -23.17,-14.61 -30.07,-24.38 -25.26,-35.8 -47.41,-106.62 -35.96,-122.91 6.9,-5.17 40.69,-21.59 50.34,-26.55l66.15 -44.82 56.71 -54.4c22.25,70.13 81.24,101.9 83.06,105.1 3.9,26.19 -7.59,80.14 -16.31,103.6 -5,13.44 -13.44,28.64 -20.85,37.54 -8.67,10.4 -19.01,24.02 -31.38,26.7zm-255.75 120.46c-72.89,36.05 -82.76,101.87 -87.3,199.7 -5.41,116.43 2.71,152.97 -31.38,254.75 -26.11,77.94 -28.14,158.43 -45.66,240.49 -4.41,20.65 -13,33.64 -19.43,51.62 -19.32,54.01 -26.94,144.2 -1.12,181.69 26.52,2.92 33.26,-7.71 40.79,-28.37 6.35,-17.44 9.45,-35.38 14.28,-53.84 2.99,15.48 3.05,27.65 15.07,32.62 20.02,8.26 27.21,-2.79 29.87,-18.23 3.67,-21.27 13.27,-71.18 13.24,-89.28 -0.06,-47.91 -18.6,-21.67 -0.33,-82.32 7.42,-24.63 15.86,-50.96 25.4,-76.32 18.55,-49.31 32.72,-99.02 48.93,-151.18 17.48,-56.23 18.79,-117.67 25.58,-178.32 16.6,12.33 24.85,78.54 27.68,103.51 5.83,51.49 7.3,73.1 -12.54,115.74 -34.19,73.48 -56.75,110.44 -69.46,202.6 -11.04,80.09 -10.65,160.48 8.95,245.15 17.51,75.64 28.57,155.77 41.41,232.57 16.71,99.96 -1.64,159.06 4.41,260.15 4.91,81.97 24.87,156.34 41.56,233.14 7.79,35.85 21.31,77.18 8.2,114.93 -7.8,22.47 -1.99,32.35 -16.16,51.51 -9.87,13.35 -61.08,69.83 15.99,70.69 21.91,0.25 44.21,0.04 66.11,-0.74 26.56,-0.94 39.83,0.14 42.67,-26.01 3.79,-34.88 -8.76,-26.42 7.79,-61.49 32.97,75.82 -44.14,88.38 108.46,88.31 70.23,-0.03 53.42,-32.24 27.38,-66.67 -16.69,-22.06 -10.21,-23.45 -17.83,-49.9 -13.94,-48.44 -3.14,-73.19 6.58,-119.16 38.71,-183.09 47.33,-182.38 40.12,-368.44 -3.84,-99.09 22,-257.91 45.63,-352.48 19.92,-79.74 25.09,-165.54 14.33,-243.14 -10.58,-76.26 -39.75,-142.98 -70.54,-203.24 -22.66,-44.34 -19.46,-64.62 -14.87,-117.65 3.62,-41.85 7.19,-77.72 26.59,-109.82 10.74,43.3 1,80.99 26.69,176.61 13.68,50.91 31.48,105.23 49.01,154.23 60.17,168.2 23.09,95.25 25,160.81 0.46,15.84 9.41,70.04 13.21,86.99 8.05,35.94 47.56,18.07 45.21,-14.37 9.95,37.46 10.53,86.86 54.67,81.35 12.61,-20.36 10.93,-27.71 13.42,-56.17 2.24,-25.57 5.02,-42.82 0.37,-68.47 -3.82,-21.06 -8.11,-37.1 -14.51,-56.33 -7.01,-21.05 -14.66,-28.27 -19.87,-53.79 -16.28,-79.88 -20.39,-171.64 -46.61,-243.24 -34.81,-95.06 -23.09,-146.84 -30.48,-258.2 -3.17,-47.67 -3.26,-85.21 -21.13,-124.48 -19.11,-41.98 -37.54,-47.71 -73.24,-72.45 -5.2,-150.25 60.7,-487.57 -193.13,-487.59 -103.33,-0.01 -163.57,69.8 -181,161.91 -21.58,113.99 -2.93,288.68 -8.01,330.63z"/>
   <path class="fil1" d="M421.23 2388.55c16.51,4.54 68.18,4.39 89.48,4.23 53.93,-0.4 25.62,-25.85 11.83,-44.65 -15.92,-21.71 -17.45,-39.47 -25.32,-70.17 -18.25,-71.2 78.11,-271.64 49.03,-502.49 -3.5,-27.82 1.67,-54.28 4.91,-82.7 2.81,-24.64 7.62,-59.03 12.9,-83.15l5.71 -33.97c1.64,-13.36 3.99,-26.33 6.73,-39.39 28.3,-135.04 34.06,-140.19 37.86,-269.37l-5.65 -55.01c-78.79,-6.01 -195.36,43.35 -202.27,70.72l1.86 255.22c2.04,59.15 3.87,116.17 4.41,175.62 0.53,58.51 10.92,111.87 11.55,169.36 0.62,56.81 -3.26,113.45 -6.94,169.95 -3.94,60.48 -2.99,117.67 -3.22,178.09 -0.06,15.88 -6.09,78.57 -4.2,84.96 5.68,19.18 9.34,10.35 7.41,36.83 -1.13,15.48 -3.96,24.5 3.92,35.9z"/>
   <path class="fil1" d="M184.48 1210.15c-14.29,128.05 8.11,190.87 27.06,306.74 21.15,129.28 36.97,165.37 31.69,298.09 -9.29,233.12 63.11,389.75 54.52,452.48 -4.49,32.79 -15.68,65.92 -35.77,90.57 -6.89,8.46 -13.24,13.75 -9.07,29.18 15.71,8.09 102.82,6.84 119.04,0.45 7.63,-14.28 2.58,-27.43 2.39,-43.05 -0.27,-22.77 8.61,-19.2 9.31,-36.78l-5.61 -83.14c0.23,-59.85 -0.02,-115.8 -3.42,-175.61 -3.26,-57.34 -7.63,-114.56 -6.78,-172.42 0.82,-55.76 11.82,-109.94 12.53,-166.29 1.5,-119.15 5.28,-231.62 6.28,-344.98 0.83,-94.35 10.95,-87.81 -55.43,-122.44 -65.47,-34.15 -96.23,-26.09 -146.75,-32.8z"/>
   <path class="fil1" d="M587.79 1122.06c-14.13,-50.69 -44.42,-97.83 -62.61,-147.07 -18.25,-49.39 4.56,-133.93 13.45,-182.99 -33.42,8.8 -51.89,8.18 -84.26,-1.69 -13.39,-4.08 -23.77,-8.75 -32.85,-16.4 -15.64,-13.16 -10.15,-14.66 -38.62,-12.78 -19.79,32.77 -84.22,43.54 -129.47,30.95 12.09,48.66 30.32,137.9 12.13,186.59 -17.86,47.8 -51.62,94.35 -62.06,145.38 67.75,8.34 121.05,19.06 193.09,19.16 37.81,0.05 165.57,-7.57 191.2,-21.15z"/>
   <path class="fil1" d="M671.29 817.15c-1.71,-65.78 -1.56,-206.92 -30.24,-259.95 -14.2,-26.25 -46.11,-56.53 -82.41,-62.45 2.71,25.65 0.04,115.96 3.15,126.37 10.68,35.73 30.04,57.51 21.89,106.14 -4.69,27.99 -10.84,23.53 -7.52,58.15 16.86,176.08 29.6,188.69 89.77,366.06 32.37,95.41 14.03,57.23 9.24,103.7 -1.13,10.91 10.13,97.96 20.18,105.85 25.9,-9.21 0.13,-48.23 15.51,-61.34 30.04,-5.89 18.39,98.03 55.33,109.71 4.55,-4.97 4.56,-3.1 6.54,-12.11l5.37 -50.38c6.91,-76.01 -22.69,-102.55 -38.3,-170.83l-17.59 -120.97c-14.83,-107.9 -48.07,-128.49 -50.92,-237.95z"/>
   <path class="fil1" d="M22.67 1409.86c22.31,-3.66 27.58,-30.55 32.53,-56.3 3.46,-17.97 6.64,-57.93 27.24,-54.08 2.22,3.57 3.42,0.91 3.15,16.47 -0.12,7.3 -1.36,13.81 -0.95,21.97 0.67,12.97 2.79,22.03 14.62,22.35 7.91,-8.17 19.66,-96.75 16.92,-111.57 -7.59,-41.01 -20,-10.24 11.04,-100.18 21.75,-63.01 47.06,-132.34 64.04,-197.66 21.28,-81.85 17.41,-93.28 24.46,-170.24 4,-43.63 -20.25,-51.4 -2.56,-116.06 4.18,-15.26 16.03,-34.68 18.17,-45.76 1.79,-9.26 -1.36,-46.62 -1.22,-60.38 0.22,-21.62 1.58,-42.56 3.14,-63.83 -80.01,17.99 -101.53,89.88 -105.77,174.6 -4.27,85.43 0.96,186.14 -26.39,261.91 -29.17,80.8 -32.42,154.02 -47.89,241.81 -14.52,82.37 -59.6,100.51 -30.55,236.94z"/>
   <path class="fil1" d="M457.17 372.08c-15.37,0.32 -5.55,0 -15.19,6.24 -20.72,13.4 -57.25,14.26 -78.46,5.57l-28.03 -11.7c1.07,12.47 0.37,34.67 -0.29,47.8 -1.1,21.55 -5.08,22.39 -18.03,31.26l-60.8 37.79c-2.01,17.73 -4.09,28.81 -3.83,38.69 2.9,109.98 -9.79,72.46 94.01,151.45 23.27,17.71 24.47,27.36 40.81,57.27l19.28 0.8c8.64,-47.66 64.72,-74.59 93.92,-96.49 23.07,-17.29 35.69,-19.11 37.91,-57.61 1.89,-32.81 0.78,-60.81 -2.28,-93.37 -59.8,-49.36 -82.59,-20.74 -79.12,-94.63 0.69,-14.81 0.28,-7.44 0.11,-23.07z"/>
   <path class="fil1" d="M335.48 372.19l28.03 11.7c21.21,8.69 57.75,7.83 78.46,-5.57 9.64,-6.24 -0.18,-5.92 15.19,-6.24 12.37,-2.68 22.71,-16.3 31.38,-26.7 7.41,-8.9 15.85,-24.1 20.85,-37.54 8.73,-23.46 20.21,-77.41 16.31,-103.6 -1.82,-3.2 -60.8,-34.97 -83.06,-105.1l-56.71 54.4 -66.15 44.82c-9.65,4.97 -43.44,21.38 -50.34,26.55 -11.45,16.29 10.7,87.11 35.96,122.91 6.89,9.76 18.04,22.4 30.07,24.38z"/>
  </g>
 </g>
</svg>
