<?xml version="1.0" encoding="UTF-8"?>
<!DOCTYPE svg PUBLIC "-//W3C//DTD SVG 1.1//EN" "http://www.w3.org/Graphics/SVG/1.1/DTD/svg11.dtd">
<!-- Creator: CorelDRAW -->
<svg xmlns="http://www.w3.org/2000/svg" xml:space="preserve" width="23.3156mm" height="72.8541mm" version="1.1" style="shape-rendering:geometricPrecision; text-rendering:geometricPrecision; image-rendering:optimizeQuality; fill-rule:evenodd; clip-rule:evenodd"
viewBox="0 0 390.03 1218.73"
 xmlns:xlink="http://www.w3.org/1999/xlink"
 xmlns:xodm="http://www.corel.com/coreldraw/odm/2003">
 <defs>
  <style type="text/css">
   <![CDATA[
    .fil1 {fill:#D2D4D5}
    .fil0 {fill:#96989B}
   ]]>
  </style>
 </defs>
 <g id="Capa_x0020_1">
  <metadata id="CorelCorpID_0Corel-Layer"/>
  <g id="_105553380471840">
   <path class="fil0" d="M98.85 613.94c36.15,-6.29 77.39,18.22 82.06,26.12 3.6,6.09 2.37,55.85 2.18,63.63 -1.32,55.08 -5.41,116.05 -3.21,171.67 0.55,13.94 1.81,28.24 1.64,42.36 -0.17,14.51 -3.53,25.6 -3.51,40.57 0.03,28.08 3.43,55.97 3.94,84.16 0.54,29.7 -0.43,59.35 0.09,88.98 0.13,7.07 2.42,38.28 1.62,41.52 -4.72,19.31 -4.89,-3 -1.2,25.98 1.88,14.76 -5.35,13.08 -43.6,13.04 -24.18,-0.03 -20.58,-6.72 -9.99,-20.41 11.1,-14.35 7.57,-14.26 12.61,-32.6 14.48,-52.68 -18.67,-109.78 -15.79,-208.49 0.78,-26.63 1.62,-63.29 -2.99,-88.45 -4.66,-25.44 -9.09,-53.04 -13.18,-78.82 -8.52,-53.71 -19.38,-113.26 -10.69,-169.26zm110.96 594.95c-4.1,-4.35 -1.33,-11.19 -0.26,-17.8 1.84,-11.35 0.09,-8.42 -2.68,-16.76 -1.45,-4.34 1.36,-32.84 1.56,-41.34 0.7,-28.97 -0.36,-58.27 0.04,-87.34 0.38,-27.82 3.33,-55.31 3.95,-82.7 0.35,-15.58 -2.82,-25.87 -3.31,-40.52 -0.49,-14.74 0.55,-29.99 1.01,-44.76 2.28,-74.14 -4.73,-147.86 -2.63,-215.8 0.66,-21.33 -1.63,-21.1 13.2,-30.69 20.56,-13.3 40.7,-19.96 70.92,-17.58 12.42,139.12 -33.35,207.24 -27.2,336.35 3.91,82.05 -14.34,107.87 -18.73,163.3 -5.59,70.5 23.51,80.44 22.99,91.57 -0.55,11.77 -34.2,6.61 -48.56,6.17 -5.58,-0.17 -6.93,0.65 -10.29,-2.11zm-79.12 -812.09c47.43,12.18 54.15,-11.93 64.42,-11.75 11.04,0.2 16.69,24.49 64.81,11.43 -1.52,27.6 -3.12,70.63 2.21,97.04 5.45,27.01 18,45.43 22.77,76.24 -78.87,8.06 -79.38,15.11 -160.04,3.23l-15.81 -3.13c-2.92,-1.02 -2.36,-0.92 -3.58,-1.61 5.89,-34.16 13.16,-39.19 19.39,-62.39 9.11,-33.93 7.54,-73.29 5.83,-109.08zm140.12 -147.1c40.06,9.06 44.56,63.43 47.65,97.02 4.04,43.95 5.18,85.59 18.73,124.86 13.68,39.64 15.5,77.92 26.06,117.6 7.25,27.26 24.5,55.24 20.27,86.16 -1.35,9.9 -1.46,26.13 -5.61,32.22 -10.32,-1.38 -11.67,-14.92 -14.53,-26.46 -2.32,-9.36 -3.05,-26.59 -11.71,-29.57 -3.17,10.27 4.52,27.46 -6.56,31.66 -5.56,-3.47 -4.41,-12 -6.13,-24.44 -1.46,-10.57 -5.27,-18.77 -3.75,-29.66 1.39,-10 6.43,-13.29 3.89,-25.23 -4.9,-23.02 -33.27,-93.54 -41.4,-120.83 -10.57,-35.49 -10.46,-73.7 -17.6,-111.93 -1.76,-9.45 -0.64,-19.85 -1.89,-29.26 -1.28,-9.63 -5.55,-19.8 -6.25,-26.43 -1.88,-17.75 -0.41,-46.19 -1.17,-65.71zm-258.38 457.91c-3.46,-5.22 -4.93,-24.32 -5.65,-31.74 -3.56,-36.66 13.42,-55.23 20.08,-86.92 8.64,-41.12 13.65,-80.45 26.63,-118.52 12.28,-36.04 15.16,-86.52 18.83,-126.39 4.29,-46.6 7.01,-77.22 46.93,-94.77 1.82,13.06 -0.38,41.74 -0.52,60.13 -0.07,9.38 -3.91,17.41 -5.94,26.92 -2.35,11.04 -1.26,19.6 -2.19,30.55 -1.6,18.78 -5.83,38.2 -7.93,57.86 -2.23,20.91 -3.41,34.89 -9.25,54.35 -4.74,15.77 -12.06,32.03 -17.76,47.78 -5.77,15.94 -11.25,33.33 -16.24,49.41 -13.47,43.38 -8.71,26.83 -4.72,51.37 1.4,8.62 -4.98,50.02 -8.18,55.63 -13.93,-1.51 -4.03,-20.91 -7.52,-30.47 -10.78,-4.3 -11.52,17.08 -12.82,25.78 -1.84,12.4 -3.62,26.99 -13.74,29.03zm211.65 -519.41c-0.82,12.53 -3.19,36.74 4.82,43.71 8.15,7.09 20.94,8.23 30.91,14.48 1.41,10.22 4.82,59.39 -2.02,67.74 -9.45,11.52 -30.96,24.12 -41.32,33.62 -16.83,15.44 -18.43,37.92 -28.43,18.7 -4.64,-8.91 -9.33,-14.7 -16.69,-20.91 -31.16,-26.3 -40.48,-20.13 -42.56,-53.72 -0.5,-8.05 -1.98,-42.82 3.82,-46.34l14.85 -6.25c24.28,-10.59 17.44,-11.8 19.6,-50.03 -17.88,-2.53 -35.6,-49.38 -34.09,-74.89 8.15,-5.26 15.91,-8.01 24.05,-13.12 22.76,-14.26 42.62,-28.73 58.6,-50.45 3.31,4.04 6.44,12.61 9.57,17.93 20.85,35.45 35.09,24.14 32.62,45.7 -1.93,16.9 -3.5,31.18 -9.54,45.14 -4.46,10.31 -14.91,27.21 -24.18,28.68zm-213.21 525.59c17.22,0.44 18.6,-17.86 21.35,-33.83l2.6 2.89c10.71,12.58 18.17,7.55 21.02,-10.38 1.96,-12.35 7.29,-35.12 5.27,-46.41 -1.31,-7.3 -5.13,-11.35 -3.94,-19.52 3.36,-22.97 36.83,-108.24 44.68,-134.63 4.16,-13.98 5.77,-28.8 6.94,-44.79 1.13,-15.54 4.22,-30.39 5.78,-45.18 4.04,2.37 1.07,0.17 4.45,3.34 4.05,3.79 4.85,7.56 5.45,13.13 2.3,21.44 0.9,54.88 -0.2,76.29 -1.82,35.4 -23.7,63.24 -29.79,120.46l-4.04 44.8c-4.81,104.44 28.23,188.45 29.31,274.64 0.41,33.23 -1.9,66.9 1.96,99.77 4.2,35.78 22.93,103.97 16.32,134.96 -10.86,50.92 -21.6,38.02 -22.69,53.93 -0.62,9.02 3.03,13.25 10.33,14.48 9.66,1.63 39.03,0.86 49.4,-0.14 23.15,-2.24 10.49,-19.36 11.52,-33.04 0.53,-7.01 4.66,-8.82 4.03,-20.29 -0.43,-7.89 -1.82,-16.36 -2.16,-25.03 -1.32,-33.78 0.41,-68.2 -0.44,-102.18 -0.7,-27.85 -6.39,-71.03 -2.36,-96.1 4.66,-28.99 0.34,-67.46 0.53,-98.12l3.1 -149.76c0.18,-15.49 -1.65,-36.73 -0.38,-51.08l12.21 -0.03 0.72 101.08c1.36,32.64 2.31,65.43 2.46,98.23 0.14,31.06 -3.78,68.79 0.24,98.18 3.74,27.28 -1.04,68.84 -2.21,97.98 -1.34,33.34 0.91,67.08 -0.64,100.25 -0.38,8.19 -1.17,15.63 -1.91,23.43 -1.44,15.29 2.57,13.61 3.97,22.34 1.99,12.37 -13.16,31.81 11.43,34.11 10.24,0.96 38.34,1.87 48.12,0.44 7.23,-1.05 11.89,-5.87 12.06,-13.27 0.28,-12.16 -14.53,-17.25 -18.03,-34.18 -5.31,-25.71 -9.67,-37.78 -3.87,-69.87 5.24,-29.01 11.51,-55.65 14.89,-86.28 3.81,-34.52 1.89,-65.21 2.39,-99.81 1.82,-126.22 51.99,-198.19 16.79,-363.68 -10.01,-47.05 -24.94,-40.31 -23.02,-129.35 0.37,-17.38 0.12,-31.3 10.32,-40.51 4.72,9.78 8.56,70.47 12.63,88.78 4.36,19.61 28.65,83.32 38.43,112.98 6.31,19.14 9.87,19.84 4.33,39.25 -2.97,10.41 3.31,60.58 9.58,65.51 7.06,5.56 12.79,-0.89 16.25,-5.11 8.45,12.45 2.86,32.78 25.7,31.17 5.91,-9.54 5.03,-9.06 6.21,-21.13 2.91,-29.88 4.46,-43.21 -7.28,-73.91 -8.33,-21.79 -7.8,-10.58 -14.13,-43.6 -3.17,-16.56 -5.49,-32.57 -8.89,-48.83 -3.39,-16.19 -5.95,-30.52 -10.86,-45.28 -20.91,-62.92 -17.29,-79.72 -23.61,-149.62 -1.43,-15.77 -4.4,-32.96 -9.6,-46.49 -4.22,-10.96 -11.05,-22.82 -19.79,-30.34 -1.15,-0.99 -4.55,-3.24 -4.61,-3.29 -4.41,-4.43 -2.12,-15.11 -1.74,-26.07 1.78,-52.03 5.29,-139.67 -17.89,-181.84 -12.72,-23.15 -35.36,-43.06 -72.82,-43.22 -75.06,-0.33 -96.02,59.86 -97.27,133.03 -0.33,19.24 -0.52,38.47 -0.47,57.72 0.03,11.56 2.75,50.01 1.46,57.71 -1,5.95 -8.64,10.05 -12.92,15.76 -25.48,33.93 -23.02,120.69 -30.42,170.8 -3.12,21.11 -17.61,51.17 -24.57,90.79 -6.85,39.01 -9.03,57.39 -22.78,92.84 -4.89,12.61 -10.26,32.93 -9.73,47.94 0.54,15.38 -0.65,39.47 10.84,47.2z"/>
   <path class="fil1" d="M98.85 613.94c-8.7,56 2.17,115.55 10.69,169.26 4.09,25.78 8.51,53.38 13.18,78.82 4.61,25.16 3.76,61.81 2.99,88.45 -2.88,98.71 30.27,155.8 15.79,208.49 -5.04,18.34 -1.51,18.25 -12.61,32.6 -10.59,13.69 -14.19,20.38 9.99,20.41 38.25,0.04 45.47,1.72 43.6,-13.04 -3.68,-28.98 -3.52,-6.67 1.2,-25.98 0.79,-3.24 -1.5,-34.45 -1.62,-41.52 -0.52,-29.63 0.45,-59.28 -0.09,-88.98 -0.51,-28.19 -3.91,-56.08 -3.94,-84.16 -0.02,-14.98 3.34,-26.07 3.51,-40.57 0.16,-14.11 -1.09,-28.41 -1.64,-42.36 -2.19,-55.61 1.9,-116.58 3.21,-171.67 0.19,-7.79 1.42,-57.54 -2.18,-63.63 -4.67,-7.9 -45.92,-32.41 -82.06,-26.12z"/>
   <path class="fil1" d="M209.81 1208.89c3.37,2.76 4.72,1.94 10.29,2.11 14.36,0.44 48.02,5.59 48.56,-6.17 0.52,-11.12 -28.58,-21.07 -22.99,-91.57 4.39,-55.43 22.64,-81.25 18.73,-163.3 -6.15,-129.11 39.62,-197.23 27.2,-336.35 -30.22,-2.37 -50.36,4.29 -70.92,17.58 -14.82,9.59 -12.54,9.36 -13.2,30.69 -2.1,67.94 4.92,141.66 2.63,215.8 -0.46,14.77 -1.5,30.03 -1.01,44.76 0.49,14.65 3.66,24.94 3.31,40.52 -0.62,27.39 -3.57,54.88 -3.95,82.7 -0.4,29.07 0.66,58.38 -0.04,87.34 -0.21,8.5 -3.01,37 -1.56,41.34 2.78,8.33 4.52,5.4 2.68,16.76 -1.07,6.61 -3.84,13.44 0.26,17.8z"/>
   <path class="fil1" d="M130.69 396.8c1.71,35.78 3.27,75.15 -5.83,109.08 -6.23,23.2 -13.5,28.23 -19.39,62.39 1.22,0.69 0.66,0.59 3.58,1.61l15.81 3.13c80.66,11.88 81.16,4.83 160.04,-3.23 -4.77,-30.81 -17.32,-49.24 -22.77,-76.24 -5.33,-26.41 -3.73,-69.45 -2.21,-97.04 -48.12,13.06 -53.77,-11.23 -64.81,-11.43 -10.27,-0.18 -16.99,23.92 -64.42,11.75z"/>
   <path class="fil1" d="M278.23 341.84c1.25,9.41 0.13,19.81 1.89,29.26 7.13,38.23 7.03,76.43 17.6,111.93 8.13,27.29 36.5,97.81 41.4,120.83 2.54,11.94 -2.49,15.23 -3.89,25.23 -1.52,10.89 2.29,19.09 3.75,29.66 1.72,12.44 0.57,20.97 6.13,24.44 11.08,-4.2 3.38,-21.38 6.56,-31.66 8.67,2.98 9.39,20.21 11.71,29.57 2.86,11.54 4.2,25.08 14.53,26.46 4.16,-6.09 4.26,-22.32 5.61,-32.22 4.23,-30.92 -13.02,-58.9 -20.27,-86.16 -10.55,-39.68 -12.37,-77.96 -26.06,-117.6 -13.56,-39.27 -14.7,-80.92 -18.73,-124.86 -3.09,-33.59 -7.58,-87.96 -47.65,-97.02 0.75,19.53 -0.72,47.97 1.17,65.71 0.7,6.63 4.97,16.8 6.25,26.43z"/>
   <path class="fil1" d="M12.43 707.61c10.12,-2.04 11.89,-16.63 13.74,-29.03 1.29,-8.7 2.03,-30.08 12.82,-25.78 3.49,9.55 -6.41,28.96 7.52,30.47 3.2,-5.61 9.58,-47.01 8.18,-55.63 -3.99,-24.54 -8.75,-7.99 4.72,-51.37 4.99,-16.08 10.47,-33.47 16.24,-49.41 5.7,-15.74 13.02,-32 17.76,-47.78 5.85,-19.46 7.02,-33.44 9.25,-54.35 2.1,-19.66 6.33,-39.08 7.93,-57.86 0.94,-10.95 -0.16,-19.51 2.19,-30.55 2.03,-9.52 5.86,-17.54 5.94,-26.92 0.14,-18.38 2.34,-47.07 0.52,-60.13 -39.92,17.55 -42.64,48.17 -46.93,94.77 -3.67,39.88 -6.55,90.36 -18.83,126.39 -12.97,38.07 -17.99,77.4 -26.63,118.52 -6.66,31.69 -23.64,50.27 -20.08,86.92 0.72,7.42 2.19,26.52 5.65,31.74z"/>
   <path class="fil1" d="M167.05 189.2c-2.16,38.24 4.68,39.44 -19.6,50.03l-14.85 6.25c-5.79,3.52 -4.32,38.29 -3.82,46.34 2.08,33.59 11.4,27.42 42.56,53.72 7.36,6.21 12.05,12 16.69,20.91 10,19.22 11.6,-3.26 28.43,-18.7 10.36,-9.51 31.87,-22.1 41.32,-33.62 6.84,-8.35 3.43,-57.51 2.02,-67.74 -9.97,-6.25 -22.77,-7.38 -30.91,-14.48 -8,-6.97 -5.64,-31.18 -4.82,-43.71l-12.59 5.74c-24.51,10.47 -30.54,-3.78 -44.44,-4.74z"/>
   <path class="fil1" d="M167.05 189.2c13.9,0.96 19.93,15.21 44.44,4.74l12.59 -5.74c9.27,-1.47 19.73,-18.37 24.18,-28.68 6.04,-13.97 7.61,-28.25 9.54,-45.14 2.47,-21.57 -11.77,-10.25 -32.62,-45.7 -3.13,-5.32 -6.25,-13.89 -9.57,-17.93 -15.98,21.72 -35.84,36.19 -58.6,50.45 -8.15,5.11 -15.91,7.86 -24.05,13.12 -1.52,25.5 16.21,72.36 34.09,74.89z"/>
  </g>
 </g>
</svg>
