<?xml version="1.0" encoding="UTF-8"?>
<!DOCTYPE svg PUBLIC "-//W3C//DTD SVG 1.1//EN" "http://www.w3.org/Graphics/SVG/1.1/DTD/svg11.dtd">
<!-- Creator: CorelDRAW -->
<svg xmlns="http://www.w3.org/2000/svg" xml:space="preserve" width="26.6736mm" height="72.9063mm" version="1.1" style="shape-rendering:geometricPrecision; text-rendering:geometricPrecision; image-rendering:optimizeQuality; fill-rule:evenodd; clip-rule:evenodd"
viewBox="0 0 7161.36 19573.97"
 xmlns:xlink="http://www.w3.org/1999/xlink"
 xmlns:xodm="http://www.corel.com/coreldraw/odm/2003">
 <defs>
  <style type="text/css">
   <![CDATA[
    .fil1 {fill:#D2D4D5}
    .fil0 {fill:#96989B}
   ]]>
  </style>
 </defs>
 <g id="Capa_x0020_1">
  <metadata id="CorelCorpID_0Corel-Layer"/>
  <g id="_105553379597888">
   <path class="fil0" d="M3493.72 13866c-17.13,475.94 -131.5,898.74 -96.01,1376.91 88.65,1194.77 -7.01,1839.31 18.95,2878.74 4,159.72 60.54,559.6 48.3,667.52 -15.41,135.99 -87.58,129.38 -81.35,307.81 4.75,136.55 20,207.88 -10.47,333.67 -231.65,34.53 -560.43,34.69 -813.95,33.18 -441.84,-2.6 -290.77,-168.04 -142.54,-345.51 219.21,-262.44 124.09,-271.84 240.16,-561.07 85.67,-213.42 9.83,-451.59 -54.9,-648.01 -776.64,-2355.79 -199.27,-2899.44 -465.36,-4137.43 -296.73,-1380.4 -834.63,-2282.38 -629.51,-3912.98 748.61,-12.59 1302.46,196.07 1876.82,536.61 134.72,79.87 112.76,67.2 120.25,263.19 36.97,967.53 24.86,2227.53 -10.39,3207.36zm331.9 5551.76c-107.23,-70.93 -63.09,-139.07 -46.69,-303.41 18.07,-181.33 -31.92,-140.2 -69.16,-275.03 -15.76,-57 33.37,-570.84 36.19,-692.65 23.06,-996.2 -60.14,-1746.93 11.33,-2855.59 32.54,-504.74 -61.72,-825.34 -85.46,-1300.2 -40.08,-801.95 -53.59,-2510.57 -10.98,-3382.27 7.03,-144.12 22.15,-172.12 261.9,-299.68 436.39,-232.18 912.73,-418.64 1476.62,-449.97 378.29,-21.05 277.45,47.17 296.08,400.57 38.37,727.1 -55.15,1230.23 -243.32,1925.04 -174.78,645.48 -535.49,1761.75 -516.8,2407.42 40.76,1408.13 124.55,1180.48 -169.01,2632.89 -72.03,356.27 -310.5,836.45 -294.01,1173.67 3.3,67.31 137.54,547.65 162.94,585.83 174.46,262.47 300.7,241.28 239.14,444.9 -135.64,46.98 -958.8,50.42 -1048.77,-11.49zm-1694.79 -12827.25c214.44,120.39 592.81,110.59 851.19,15.87 342.72,-125.62 475.29,-391.93 585.96,-405.19 148.07,-17.72 208.58,260.4 605.05,404.9 356.09,129.81 527.94,77.59 872.59,-11.52 -33.1,434.83 -45.43,1028.79 101.67,1412.02 92.68,241.36 378.96,870.66 355.15,1140.37 -1925.04,199.37 -1885.68,229.47 -3847.5,-1.77 -24.54,-222.01 276.97,-944.03 371.93,-1168.48 181.63,-429.17 55.2,-954.67 103.96,-1386.19zm-1908.63 4872.99c-46.5,-73.72 -85.22,-398.61 -98,-508.05 -68.68,-588.16 265.37,-896.54 341.45,-1401.36 157.65,-1046.32 53.8,-863.54 366.91,-1976.93 277.07,-985.35 126.05,-2492.47 488.02,-3041.14 152.71,-231.46 402.13,-427.91 750.27,-495 -17.4,193.95 -1.15,972.01 -43.25,1057.09 -138.11,279.25 -273.66,460.85 -264.91,826.79 4.08,171.24 39.12,291.22 125.27,430.64 98.43,159.29 37.18,226.25 12.99,429.52 -124.44,1045.95 -368.92,1533.54 -742.43,2538.19 -286.68,771.19 -176.98,494.09 -109.65,842.31 40.22,207.97 -59.04,476.42 -90.16,707.5l-66.26 195.91c-220.29,28.89 -67.44,-398.02 -148.44,-499.37 -230.65,2.44 -208.31,438.16 -335.49,733.68 -45.21,105.03 -70.32,151.61 -186.33,160.23zm6042.33 -386.77c-58.69,-83.31 -184.53,-771.75 -151.91,-904.75 115.37,-470.19 100.92,-225.04 -113.38,-852.78 -361.99,-1060.42 -595.2,-1379.08 -746.4,-2556.83 -39.79,-309.96 -63.01,-225.04 56.97,-466.16 147.13,-295.73 108.25,-599.71 -17.29,-897.4 -40,-94.85 -163.8,-293.69 -179.67,-358.61 -59.17,-242.12 95.82,-789.36 -35.52,-982.56 248.86,-40.3 608,264.27 759.64,474.59 352.73,489.39 214.95,2011.97 487.59,3016.65 290.58,1070.7 216.5,979.04 374.64,1995.3 71.55,459.69 417.19,868.32 341.86,1416.1 -15.33,111.42 -52.62,418.24 -80.81,506.11 -223.75,-14.77 -245.79,-280.32 -298.95,-463.59 -19.68,-67.82 -99.66,-556.27 -259.14,-417.17 -73.91,145.19 117.68,440.04 -137.62,491.08zm-2094.39 -8018.54l30.53 338.58c14.01,314.87 337.67,493.98 669.75,578.95 14.44,276.03 11.92,524.05 -2.9,800.02 -11.01,204.82 -33.16,270.39 -372.09,462.27 -269.9,152.79 -562.82,291.44 -752.39,526.68 -75.47,93.62 -88.55,184.69 -152.47,238.3 -143.53,-63.09 -28.89,-163.56 -392.17,-448.61 -144.66,-113.51 -360.11,-206.86 -533.82,-321.37 -355.17,-234.14 -347.44,-206.7 -371.23,-459.88 -110.75,-1178.26 48.57,-623.84 541.71,-1077.41 162.99,-149.89 161.2,-495.43 132.01,-664.73 -299.79,-64.46 -562.71,-765.84 -543.67,-1185.13 257.34,-158.94 466.24,-193.06 1051.45,-579.65 182.62,-120.66 361.81,-308.81 503.97,-445.65 88.79,99.1 287.3,614.04 783,840.53 -2.95,295.3 -55.12,589.99 -155.1,849.5 -94.75,245.9 -243.94,496.15 -436.58,547.59zm-3126.87 7991.47c268.43,-957.22 -25.96,-1017.89 73.16,-1288.12l627.87 -1714.84c79.52,-212.07 293.72,-1034.08 269.15,-1231.2 28.3,220.99 3.49,791.08 -51.95,1003.77 -64.54,247.62 -217.42,538.41 -305.26,799.89 -161.25,479.91 -304.19,1312.68 -312.43,1840.09 -20.62,1322.11 513.55,2376.43 733.17,3588.52 156.74,865.07 -310.63,1823.2 384.6,3812.35 199,569.45 113.27,459.32 26.04,872.35 -40.43,191.56 -83.93,239.73 -186.78,357.99 -80.09,92.12 -204.45,204.13 -126.56,353.59 78.8,151.21 283.44,123.1 469.68,122.8 186.7,-0.27 380.01,0.46 565.96,-10.15 530.79,-30.28 151.66,-336.84 375.82,-714.54 187.24,425.41 -121.22,682.51 360.44,714.24 1814.8,119.64 795.16,-397.19 728.15,-808.93 -59.79,-367.28 -192.29,-279.62 22.31,-883.49 192.96,-543.03 310.04,-1162.55 375.77,-1767.55 94.72,-871.84 -98.37,-1511.23 3.62,-1999.59 239.97,-1149.18 736.07,-2389.72 737.95,-3537.02 3.14,-1893.87 -754.86,-2407.04 -666.29,-3561.4 81.94,153.06 89.89,426.99 139.61,607.25 175.35,635.82 708.68,1913.06 777.2,2209.81 44.59,193.06 -124.47,318.96 -63.47,629.16 24.75,125.81 85.22,517.09 122.16,613.32 67.36,175.48 331.12,178.3 383.95,-111.69 65.48,89.75 95.45,304.51 147.32,412.12 68.36,141.81 126.75,235.48 357.19,198.49 244,-346.47 157.01,-1087.86 -27.65,-1519.5 -68.78,-160.87 -124.76,-220.96 -162.16,-428.47 -182.62,-1012.63 -39.12,-797.74 -373.46,-2020.96 -368.28,-1347.43 75.5,-3301.86 -1180.51,-3599.58 53.7,-653.81 99.79,-2147.8 -75.63,-2731.02 -136.87,-455.08 -263.59,-642.5 -557.18,-902.37 -552.27,-488.9 -2307.86,-713.22 -2742.16,966 -169.73,656.28 -95.69,1975.46 -55.09,2683.74 -673.38,259.84 -810.25,756.5 -875.46,1571.34 -57.16,714.27 -78.85,1432.21 -276.27,2098.61 -94.99,320.65 -175.05,632.94 -219.72,981.97 -43.28,338.21 -64.89,682.69 -137.03,997 -73.35,319.57 -235.24,532.59 -305.99,900.22 -50.5,262.47 -25.91,842.31 143.23,1002.05 223.35,39.49 298.47,-83.23 360.57,-247.03 24.59,-64.87 122.19,-382.1 122.96,-409.43 25.08,145.73 31.71,227.05 153.11,264.96 135.29,42.23 211.99,-14.55 240.08,-114.75z"/>
   <path class="fil1" d="M3373.14 19430.65c30.47,-125.78 15.22,-197.12 10.47,-333.67 -6.23,-178.43 65.94,-171.83 81.35,-307.81 12.24,-107.93 -44.3,-507.81 -48.3,-667.52 -25.96,-1039.42 69.7,-1683.97 -18.95,-2878.74 -35.49,-478.16 78.88,-900.97 96.01,-1376.91 35.25,-979.82 47.36,-2239.83 10.39,-3207.36 -7.49,-195.99 14.47,-183.32 -120.25,-263.19 -574.36,-340.54 -1128.21,-549.2 -1876.82,-536.61 -205.12,1630.59 332.78,2532.58 629.51,3912.98 266.09,1237.99 -311.28,1781.64 465.36,4137.43 64.73,196.42 140.58,434.59 54.9,648.01 -116.06,289.23 -20.94,298.63 -240.16,561.07 -148.23,177.47 -299.3,342.9 142.54,345.51 253.53,1.5 582.31,1.34 813.95,-33.18z"/>
   <path class="fil1" d="M3825.61 19417.76c89.97,61.91 913.13,58.48 1048.77,11.49 61.56,-203.62 -64.68,-182.43 -239.14,-444.9 -25.4,-38.18 -159.64,-518.52 -162.94,-585.83 -16.48,-337.21 221.98,-817.39 294.01,-1173.67 293.56,-1452.4 209.76,-1224.76 169.01,-2632.89 -18.69,-645.67 342.02,-1761.93 516.8,-2407.42 188.18,-694.8 281.69,-1197.94 243.32,-1925.04 -18.63,-353.4 82.21,-421.62 -296.08,-400.57 -563.89,31.33 -1040.23,217.79 -1476.62,449.97 -239.75,127.56 -254.87,155.56 -261.9,299.68 -42.61,871.7 -29.1,2580.32 10.98,3382.27 23.73,474.86 118,795.46 85.46,1300.2 -71.47,1108.67 11.73,1859.39 -11.33,2855.59 -2.82,121.81 -51.95,635.66 -36.19,692.65 37.24,134.83 87.23,93.7 69.16,275.03 -16.4,164.34 -60.54,232.48 46.69,303.41z"/>
   <path class="fil1" d="M2130.83 6590.51c-48.76,431.53 77.67,957.03 -103.96,1386.19 -94.96,224.45 -396.47,946.48 -371.93,1168.48 1961.82,231.24 1922.46,201.15 3847.5,1.77 23.81,-269.72 -262.47,-899.01 -355.15,-1140.37 -147.1,-383.23 -134.78,-977.19 -101.67,-1412.02 -344.65,89.11 -516.5,141.33 -872.59,11.52 -396.47,-144.5 -456.98,-422.62 -605.05,-404.9 -110.67,13.26 -243.24,279.57 -585.96,405.19 -258.39,94.72 -636.76,104.52 -851.19,-15.87z"/>
   <path class="fil1" d="M222.19 11463.5c116.01,-8.62 141.11,-55.2 186.33,-160.23 127.18,-295.52 104.84,-731.24 335.49,-733.68 81,101.35 -71.85,528.26 148.44,499.37l66.26 -195.91c31.12,-231.08 130.37,-499.54 90.16,-707.5 -67.34,-348.22 -177.04,-71.12 109.65,-842.31 373.51,-1004.66 617.99,-1492.24 742.43,-2538.19 24.19,-203.27 85.43,-270.23 -12.99,-429.52 -86.16,-139.42 -121.19,-259.41 -125.27,-430.64 -8.75,-365.94 126.8,-547.54 264.91,-826.79 42.1,-85.08 25.85,-863.14 43.25,-1057.09 -348.14,67.09 -597.56,263.54 -750.27,495 -361.97,548.67 -210.95,2055.79 -488.02,3041.14 -313.1,1113.39 -209.25,930.61 -366.91,1976.93 -76.09,504.83 -410.13,813.2 -341.45,1401.36 12.78,109.43 51.49,434.32 98,508.05z"/>
   <path class="fil1" d="M6264.52 11076.73c255.3,-51.04 63.71,-345.88 137.62,-491.08 159.48,-139.1 239.46,349.35 259.14,417.17 53.16,183.27 75.2,448.82 298.95,463.59 28.19,-87.87 65.48,-394.69 80.81,-506.11 75.34,-547.78 -270.31,-956.41 -341.86,-1416.1 -158.14,-1016.25 -84.06,-924.6 -374.64,-1995.3 -272.64,-1004.68 -134.86,-2527.27 -487.59,-3016.65 -151.64,-210.33 -510.79,-514.89 -759.64,-474.59 131.34,193.2 -23.65,740.44 35.52,982.56 15.87,64.92 139.66,263.76 179.67,358.61 125.54,297.69 164.42,601.67 17.29,897.4 -119.98,241.12 -96.76,156.2 -56.97,466.16 151.21,1177.75 384.41,1496.41 746.4,2556.83 214.3,627.74 228.75,382.59 113.38,852.78 -32.62,133.01 93.22,821.44 151.91,904.75z"/>
   <path class="fil1" d="M4170.13 3058.19c-7.38,1.45 -16.89,4.13 -21.88,5.42l-126.16 33.67c-78.83,22.58 -43.71,11.22 -85.51,26.85 -416.31,155.77 -776.45,-38.26 -969.51,-93.14 29.18,169.3 30.98,514.84 -132.01,664.73 -493.15,453.57 -652.46,-100.84 -541.71,1077.41 23.79,253.18 16.06,225.74 371.23,459.88 173.71,114.51 389.16,207.86 533.82,321.37 363.28,285.05 248.64,385.51 392.17,448.61 63.93,-53.62 77,-144.68 152.47,-238.3 189.57,-235.24 482.49,-373.89 752.39,-526.68 338.93,-191.88 361.08,-257.45 372.09,-462.27 14.82,-275.97 17.34,-523.99 2.9,-800.02 -332.08,-84.97 -655.74,-264.08 -669.75,-578.95l-30.53 -338.58z"/>
   <path class="fil1" d="M2967.07 3030.99c193.06,54.88 553.21,248.91 969.51,93.14 41.8,-15.63 6.69,-4.27 85.51,-26.85l126.16 -33.67c4.99,-1.29 14.5,-3.97 21.88,-5.42 192.64,-51.44 341.83,-301.69 436.58,-547.59 99.98,-259.51 152.15,-554.2 155.1,-849.5 -495.7,-226.49 -694.21,-741.44 -783,-840.53 -142.16,136.84 -321.35,325 -503.97,445.65 -585.21,386.59 -794.11,420.71 -1051.45,579.65 -19.04,419.29 243.89,1120.67 543.67,1185.13z"/>
  </g>
 </g>
</svg>
