<?xml version="1.0" encoding="UTF-8"?>
<!DOCTYPE svg PUBLIC "-//W3C//DTD SVG 1.1//EN" "http://www.w3.org/Graphics/SVG/1.1/DTD/svg11.dtd">
<!-- Creator: CorelDRAW -->
<svg xmlns="http://www.w3.org/2000/svg" xml:space="preserve" width="23.8229mm" height="74.4392mm" version="1.1" style="shape-rendering:geometricPrecision; text-rendering:geometricPrecision; image-rendering:optimizeQuality; fill-rule:evenodd; clip-rule:evenodd"
viewBox="0 0 408.6 1276.75"
 xmlns:xlink="http://www.w3.org/1999/xlink"
 xmlns:xodm="http://www.corel.com/coreldraw/odm/2003">
 <defs>
  <style type="text/css">
   <![CDATA[
    .fil0 {fill:#DE0000}
    .fil1 {fill:#E5BC9E}
   ]]>
  </style>
 </defs>
 <g id="Capa_x0020_1">
  <metadata id="CorelCorpID_0Corel-Layer"/>
  <g id="_105553379788160">
   <path class="fil0" d="M103.56 643.16c37.87,-6.59 81.07,19.09 85.97,27.36 3.78,6.38 2.48,58.5 2.29,66.66 -1.38,57.7 -5.66,121.58 -3.37,179.84 0.58,14.61 1.89,29.59 1.72,44.37 -0.17,15.2 -3.69,26.82 -3.68,42.51 0.04,29.42 3.59,58.64 4.13,88.17 0.57,31.12 -0.45,62.17 0.09,93.22 0.13,7.41 2.53,40.1 1.7,43.49 -4.95,20.23 -5.12,-3.14 -1.26,27.21 1.97,15.46 -5.61,13.7 -45.67,13.66 -25.33,-0.03 -21.56,-7.04 -10.47,-21.38 11.63,-15.03 7.93,-14.94 13.21,-34.15 15.17,-55.19 -19.56,-115 -16.54,-218.41 0.81,-27.9 1.7,-66.3 -3.13,-92.66 -4.88,-26.65 -9.52,-55.56 -13.81,-82.57 -8.92,-56.27 -20.31,-118.65 -11.2,-177.32zm116.24 623.27c-4.29,-4.56 -1.4,-11.72 -0.28,-18.65 1.93,-11.89 0.1,-8.83 -2.81,-17.56 -1.51,-4.55 1.42,-34.4 1.64,-43.31 0.74,-30.35 -0.38,-61.04 0.04,-91.5 0.4,-29.14 3.49,-57.94 4.14,-86.63 0.37,-16.32 -2.96,-27.11 -3.47,-42.45 -0.52,-15.44 0.58,-31.41 1.06,-46.89 2.39,-77.67 -4.96,-154.9 -2.76,-226.07 0.69,-22.34 -1.7,-22.1 13.83,-32.15 21.54,-13.93 42.64,-20.91 74.3,-18.42 13.01,145.75 -34.94,217.11 -28.49,352.37 4.1,85.95 -15.02,113 -19.62,171.07 -5.86,73.86 24.63,84.27 24.09,95.93 -0.57,12.33 -35.83,6.93 -50.88,6.47 -5.84,-0.18 -7.25,0.68 -10.78,-2.21zm-82.88 -850.75c49.68,12.76 56.73,-12.5 67.49,-12.3 11.57,0.21 17.48,25.66 67.9,11.98 -1.6,28.91 -3.27,73.99 2.31,101.66 5.71,28.29 18.85,47.59 23.85,79.87 -82.63,8.45 -83.15,15.83 -167.65,3.39l-16.57 -3.27c-3.06,-1.07 -2.47,-0.96 -3.75,-1.69 6.17,-35.79 13.78,-41.06 20.31,-65.36 9.54,-35.54 7.9,-76.78 6.11,-114.27zm146.79 -154.1c41.97,9.49 46.68,66.45 49.92,101.64 4.23,46.04 5.43,89.67 19.62,130.81 14.34,41.53 16.24,81.63 27.3,123.2 7.59,28.56 25.67,57.87 21.24,90.26 -1.42,10.37 -1.52,27.37 -5.88,33.75 -10.82,-1.44 -12.22,-15.63 -15.22,-27.72 -2.43,-9.81 -3.19,-27.86 -12.27,-30.98 -3.32,10.76 4.74,28.76 -6.87,33.16 -5.82,-3.64 -4.62,-12.58 -6.42,-25.61 -1.53,-11.07 -5.52,-19.67 -3.93,-31.07 1.46,-10.48 6.73,-13.93 4.07,-26.43 -5.13,-24.12 -34.86,-98 -43.37,-126.59 -11.07,-37.18 -10.96,-77.2 -18.43,-117.26 -1.85,-9.9 -0.67,-20.8 -1.98,-30.66 -1.34,-10.09 -5.82,-20.74 -6.55,-27.69 -1.97,-18.59 -0.43,-48.39 -1.22,-68.84zm-270.68 479.71c-3.62,-5.47 -5.16,-25.48 -5.92,-33.26 -3.73,-38.4 14.06,-57.86 21.03,-91.06 9.05,-43.08 14.3,-84.28 27.9,-124.16 12.87,-37.75 15.88,-90.63 19.73,-132.41 4.5,-48.82 7.34,-80.89 49.16,-99.28 1.9,13.68 -0.4,43.73 -0.55,62.99 -0.08,9.83 -4.1,18.24 -6.22,28.21 -2.46,11.57 -1.31,20.53 -2.29,32.01 -1.68,19.67 -6.11,40.01 -8.31,60.62 -2.34,21.91 -3.57,36.55 -9.69,56.94 -4.97,16.53 -12.64,33.56 -18.61,50.05 -6.05,16.7 -11.78,34.92 -17.01,51.77 -14.11,45.45 -9.12,28.11 -4.94,53.82 1.47,9.03 -5.22,52.4 -8.57,58.27 -14.59,-1.58 -4.22,-21.91 -7.88,-31.92 -11.29,-4.5 -12.07,17.89 -13.43,27.01 -1.93,12.99 -3.79,28.28 -14.39,30.42zm221.72 -544.14c-0.86,13.13 -3.34,38.49 5.05,45.8 8.53,7.43 21.94,8.62 32.38,15.16 1.48,10.71 5.05,62.22 -2.11,70.96 -9.89,12.07 -32.43,25.27 -43.29,35.23 -17.63,16.18 -19.31,39.72 -29.79,19.59 -4.86,-9.34 -9.77,-15.4 -17.49,-21.9 -32.64,-27.55 -42.41,-21.09 -44.59,-56.28 -0.52,-8.43 -2.07,-44.86 4,-48.54l15.56 -6.54c25.43,-11.1 18.27,-12.36 20.53,-52.42 -18.73,-2.65 -37.3,-51.73 -35.71,-78.45 8.53,-5.51 16.66,-8.39 25.2,-13.74 23.84,-14.94 44.64,-30.1 61.39,-52.85 3.47,4.23 6.75,13.21 10.03,18.78 21.85,37.14 36.76,25.28 34.17,47.88 -2.03,17.7 -3.67,32.66 -10,47.29 -4.67,10.8 -15.62,28.5 -25.33,30.04zm-223.36 550.61c18.04,0.46 19.48,-18.71 22.36,-35.44l2.73 3.03c11.22,13.18 19.04,7.91 22.02,-10.87 2.05,-12.94 7.64,-36.79 5.52,-48.62 -1.37,-7.65 -5.38,-11.89 -4.13,-20.45 3.52,-24.07 38.58,-113.4 46.8,-141.03 4.36,-14.65 6.05,-30.17 7.27,-46.92 1.18,-16.28 4.42,-31.84 6.05,-47.33 4.24,2.49 1.13,0.18 4.67,3.5 4.24,3.97 5.08,7.92 5.71,13.75 2.41,22.46 0.94,57.49 -0.21,79.93 -1.9,37.09 -24.82,66.25 -31.21,126.19l-4.24 46.93c-5.04,109.41 29.58,197.42 30.7,287.71 0.43,34.81 -1.99,70.09 2.05,104.52 4.4,37.48 24.02,108.92 17.1,141.39 -11.37,53.34 -22.63,39.82 -23.77,56.5 -0.65,9.46 3.17,13.88 10.82,15.17 10.12,1.7 40.89,0.9 51.75,-0.15 24.25,-2.34 10.99,-20.28 12.07,-34.61 0.55,-7.34 4.88,-9.24 4.22,-21.26 -0.45,-8.26 -1.91,-17.13 -2.26,-26.22 -1.38,-35.38 0.43,-71.45 -0.46,-107.04 -0.73,-29.17 -6.69,-74.41 -2.47,-100.67 4.88,-30.37 0.36,-70.67 0.56,-102.8l3.25 -156.89c0.19,-16.23 -1.73,-38.47 -0.4,-53.51l12.79 -0.03 0.75 105.89c1.43,34.19 2.42,68.55 2.58,102.91 0.15,32.53 -3.96,72.06 0.26,102.85 3.91,28.58 -1.09,72.12 -2.32,102.64 -1.41,34.93 0.96,70.28 -0.67,105.02 -0.4,8.57 -1.23,16.37 -2,24.55 -1.51,16.02 2.69,14.26 4.16,23.41 2.08,12.96 -13.79,33.33 11.97,35.73 10.73,1 40.16,1.95 50.41,0.46 7.57,-1.1 12.46,-6.15 12.63,-13.9 0.29,-12.74 -15.22,-18.07 -18.88,-35.81 -5.57,-26.94 -10.13,-39.58 -4.05,-73.2 5.49,-30.39 12.05,-58.3 15.6,-90.38 4,-36.17 1.98,-68.31 2.51,-104.56 1.91,-132.23 54.46,-207.63 17.59,-380.99 -10.48,-49.28 -26.13,-42.22 -24.12,-135.5 0.39,-18.2 0.13,-32.79 10.81,-42.44 4.95,10.24 8.97,73.82 13.24,93 4.56,20.54 30.02,87.28 40.25,118.36 6.61,20.05 10.34,20.78 4.54,41.12 -3.11,10.91 3.47,63.46 10.03,68.63 7.4,5.82 13.4,-0.93 17.02,-5.35 8.86,13.05 2.99,34.34 26.93,32.65 6.19,-9.99 5.27,-9.48 6.51,-22.14 3.05,-31.31 4.67,-45.26 -7.63,-77.43 -8.73,-22.83 -8.17,-11.09 -14.8,-45.68 -3.33,-17.35 -5.75,-34.12 -9.32,-51.15 -3.55,-16.96 -6.23,-31.98 -11.37,-47.44 -21.91,-65.92 -18.12,-83.51 -24.73,-156.74 -1.49,-16.52 -4.61,-34.53 -10.06,-48.7 -4.42,-11.49 -11.58,-23.91 -20.73,-31.79 -1.21,-1.04 -4.77,-3.39 -4.83,-3.45 -4.62,-4.64 -2.22,-15.83 -1.82,-27.31 1.87,-54.5 5.55,-146.32 -18.74,-190.5 -13.33,-24.25 -37.04,-45.1 -76.29,-45.28 -78.63,-0.35 -100.59,62.71 -101.9,139.36 -0.34,20.16 -0.55,40.31 -0.5,60.47 0.03,12.11 2.88,52.39 1.53,60.46 -1.04,6.23 -9.05,10.53 -13.54,16.5 -26.7,35.55 -24.11,126.43 -31.87,178.93 -3.27,22.12 -18.45,53.6 -25.74,95.12 -7.18,40.87 -9.46,60.12 -23.86,97.26 -5.12,13.21 -10.75,34.5 -10.2,50.22 0.57,16.11 -0.68,41.35 11.35,49.44z"/>
   <path class="fil1" d="M103.56 643.16c-9.11,58.67 2.27,121.05 11.2,177.32 4.28,27.01 8.92,55.92 13.81,82.57 4.83,26.36 3.94,64.76 3.13,92.66 -3.02,103.41 31.71,163.22 16.54,218.41 -5.28,19.21 -1.58,19.12 -13.21,34.15 -11.09,14.34 -14.86,21.35 10.47,21.38 40.07,0.04 47.64,1.8 45.67,-13.66 -3.86,-30.36 -3.69,-6.99 1.26,-27.21 0.83,-3.39 -1.57,-36.09 -1.7,-43.49 -0.55,-31.04 0.47,-62.1 -0.09,-93.22 -0.54,-29.53 -4.1,-58.75 -4.13,-88.17 -0.02,-15.69 3.5,-27.31 3.68,-42.51 0.17,-14.79 -1.15,-29.77 -1.72,-44.37 -2.3,-58.26 1.99,-122.13 3.37,-179.84 0.2,-8.16 1.49,-60.28 -2.29,-66.66 -4.9,-8.27 -48.11,-33.96 -85.97,-27.36z"/>
   <path class="fil1" d="M219.8 1266.43c3.53,2.89 4.94,2.03 10.78,2.21 15.05,0.46 50.3,5.86 50.88,-6.47 0.54,-11.65 -29.94,-22.07 -24.09,-95.93 4.6,-58.07 23.72,-85.12 19.62,-171.07 -6.45,-135.26 41.51,-206.62 28.49,-352.37 -31.66,-2.49 -52.76,4.49 -74.3,18.42 -15.53,10.04 -13.14,9.81 -13.83,32.15 -2.2,71.17 5.15,148.4 2.76,226.07 -0.48,15.48 -1.57,31.46 -1.06,46.89 0.51,15.34 3.84,26.13 3.47,42.45 -0.65,28.69 -3.74,57.49 -4.14,86.63 -0.42,30.46 0.69,61.16 -0.04,91.5 -0.22,8.91 -3.15,38.76 -1.64,43.31 2.91,8.73 4.74,5.66 2.81,17.56 -1.12,6.92 -4.02,14.08 0.28,18.65z"/>
   <path class="fil1" d="M136.92 415.69c1.79,37.49 3.43,78.73 -6.11,114.27 -6.52,24.31 -14.14,29.58 -20.31,65.36 1.28,0.73 0.69,0.62 3.75,1.69l16.57 3.27c84.5,12.44 85.03,5.06 167.65,-3.39 -4.99,-32.28 -18.14,-51.58 -23.85,-79.87 -5.58,-27.67 -3.91,-72.75 -2.31,-101.66 -50.42,13.68 -56.33,-11.77 -67.9,-11.98 -10.76,-0.19 -17.8,25.07 -67.49,12.3z"/>
   <path class="fil1" d="M291.48 358.11c1.31,9.86 0.13,20.76 1.98,30.66 7.47,40.05 7.36,80.07 18.43,117.26 8.52,28.59 38.24,102.47 43.37,126.59 2.66,12.5 -2.61,15.95 -4.07,26.43 -1.59,11.4 2.4,20 3.93,31.07 1.8,13.03 0.6,21.97 6.42,25.61 11.61,-4.4 3.54,-22.4 6.87,-33.16 9.08,3.12 9.84,21.17 12.27,30.98 3,12.09 4.4,26.28 15.22,27.72 4.36,-6.38 4.46,-23.38 5.88,-33.75 4.43,-32.39 -13.64,-61.7 -21.24,-90.26 -11.06,-41.57 -12.96,-81.67 -27.3,-123.2 -14.2,-41.14 -15.39,-84.77 -19.62,-130.81 -3.23,-35.19 -7.94,-92.15 -49.92,-101.64 0.79,20.46 -0.75,50.25 1.22,68.84 0.74,6.94 5.21,17.6 6.55,27.69z"/>
   <path class="fil1" d="M13.03 741.29c10.6,-2.14 12.46,-17.43 14.39,-30.42 1.35,-9.11 2.13,-31.51 13.43,-27.01 3.66,10.01 -6.72,30.34 7.88,31.92 3.35,-5.87 10.04,-49.24 8.57,-58.27 -4.18,-25.71 -9.16,-8.37 4.94,-53.82 5.23,-16.85 10.97,-35.06 17.01,-51.77 5.97,-16.49 13.64,-33.52 18.61,-50.05 6.12,-20.38 7.35,-35.03 9.69,-56.94 2.2,-20.6 6.63,-40.94 8.31,-60.62 0.98,-11.47 -0.17,-20.44 2.29,-32.01 2.13,-9.97 6.15,-18.38 6.22,-28.21 0.15,-19.26 2.45,-49.31 0.55,-62.99 -41.82,18.39 -44.66,50.47 -49.16,99.28 -3.85,41.78 -6.87,94.66 -19.73,132.41 -13.59,39.89 -18.85,81.08 -27.9,124.16 -6.97,33.2 -24.76,52.66 -21.03,91.06 0.76,7.78 2.3,27.79 5.92,33.26z"/>
   <path class="fil1" d="M175 198.2c-2.26,40.06 4.9,41.32 -20.53,52.42l-15.56 6.54c-6.07,3.69 -4.52,40.11 -4,48.54 2.18,35.19 11.94,28.73 44.59,56.28 7.71,6.51 12.63,12.57 17.49,21.9 10.48,20.13 12.15,-3.41 29.79,-19.59 10.86,-9.96 33.39,-23.16 43.29,-35.23 7.17,-8.74 3.59,-60.25 2.11,-70.96 -10.45,-6.55 -23.85,-7.73 -32.38,-15.16 -8.38,-7.3 -5.9,-32.67 -5.05,-45.8l-13.18 6.01c-25.68,10.97 -31.99,-3.96 -46.56,-4.97z"/>
   <path class="fil1" d="M175 198.2c14.57,1.01 20.88,15.94 46.56,4.97l13.18 -6.01c9.71,-1.54 20.67,-19.24 25.33,-30.04 6.32,-14.63 7.97,-29.6 10,-47.29 2.58,-22.59 -12.33,-10.74 -34.17,-47.88 -3.28,-5.57 -6.55,-14.55 -10.03,-18.78 -16.74,22.75 -37.55,37.91 -61.39,52.85 -8.54,5.35 -16.66,8.23 -25.2,13.74 -1.59,26.72 16.98,75.8 35.71,78.45z"/>
  </g>
 </g>
</svg>
