<?xml version="1.0" encoding="UTF-8"?>
<!DOCTYPE svg PUBLIC "-//W3C//DTD SVG 1.1//EN" "http://www.w3.org/Graphics/SVG/1.1/DTD/svg11.dtd">
<!-- Creator: CorelDRAW -->
<svg xmlns="http://www.w3.org/2000/svg" xml:space="preserve" width="23.9894mm" height="72.8725mm" version="1.1" style="shape-rendering:geometricPrecision; text-rendering:geometricPrecision; image-rendering:optimizeQuality; fill-rule:evenodd; clip-rule:evenodd"
viewBox="0 0 740.76 2250.19"
 xmlns:xlink="http://www.w3.org/1999/xlink"
 xmlns:xodm="http://www.corel.com/coreldraw/odm/2003">
 <defs>
  <style type="text/css">
   <![CDATA[
    .fil1 {fill:#D2D4D5}
    .fil0 {fill:#96989B}
   ]]>
  </style>
 </defs>
 <g id="Capa_x0020_1">
  <metadata id="CorelCorpID_0Corel-Layer"/>
  <g id="_105553380294560">
   <path class="fil0" d="M172.56 1131.96c47.26,6.28 76.03,-1.26 137.27,30.68 62.09,32.39 52.63,26.27 51.84,114.52 -0.94,106.04 -4.47,211.24 -5.87,322.7 -0.66,52.71 -10.95,103.39 -11.72,155.54 -0.8,54.13 3.29,107.65 6.34,161.28 3.18,55.95 3.41,108.28 3.2,164.27l5.25 77.77c-0.66,16.44 -8.96,13.1 -8.71,34.4 0.17,14.61 4.9,26.91 -2.24,40.27 -15.17,5.98 -96.66,7.15 -111.35,-0.43 -3.9,-14.43 2.04,-19.38 8.49,-27.29 18.79,-23.06 29.26,-54.05 33.46,-84.72 8.03,-58.67 -59.68,-205.18 -51,-423.24 4.94,-124.14 -9.86,-157.9 -29.64,-278.83 -17.73,-108.39 -38.68,-167.15 -25.31,-286.92zm221.45 1102.25c-7.36,-10.66 -4.72,-19.1 -3.67,-33.58 1.8,-24.77 -1.62,-16.51 -6.93,-34.45 -1.77,-5.98 3.87,-64.62 3.93,-79.47 0.21,-56.51 -0.68,-110.01 3.01,-166.58 3.44,-52.84 7.07,-105.82 6.49,-158.97 -0.59,-53.78 -10.31,-103.69 -10.8,-158.42 -0.5,-55.6 -2.21,-108.94 -4.13,-164.27l-1.74 -238.73c6.47,-25.6 115.5,-71.76 189.2,-66.15l5.29 51.45c-3.55,120.83 -8.94,125.65 -35.41,251.97 -2.56,12.22 -4.76,24.35 -6.29,36.84l-5.34 31.77c-4.95,22.56 -9.44,54.73 -12.07,77.77 -3.03,26.58 -7.87,51.34 -4.59,77.36 27.19,215.93 -62.94,403.42 -45.87,470.02 7.36,28.71 8.8,45.33 23.69,65.64 12.89,17.58 39.38,41.39 -11.07,41.76 -19.92,0.15 -68.26,0.28 -83.7,-3.96zm155.8 -1184.65c-23.97,12.7 -143.48,19.83 -178.85,19.79 -67.38,-0.09 -117.24,-10.12 -180.61,-17.92 9.76,-47.73 41.34,-91.28 58.05,-135.99 17.02,-45.55 -0.04,-129.02 -11.35,-174.54 42.33,11.78 102.59,1.71 121.11,-28.95 26.63,-1.77 21.49,-0.36 36.12,11.95 8.5,7.15 18.21,11.52 30.73,15.34 30.28,9.23 47.55,9.81 78.82,1.58 -8.32,45.89 -29.65,124.97 -12.58,171.17 17.02,46.06 45.35,90.15 58.57,137.57zm-27.27 -586.78c33.95,5.54 63.81,33.86 77.09,58.42 26.82,49.6 26.68,181.62 28.28,243.16 2.66,102.38 33.75,121.64 47.62,222.57l16.45 113.16c14.59,63.87 42.29,88.69 35.82,159.79l-5.02 47.13c-1.85,8.42 -1.86,6.68 -6.11,11.33 -34.56,-10.93 -23.66,-108.13 -51.75,-102.62 -14.39,12.26 9.72,48.76 -14.51,57.38 -9.4,-7.38 -19.93,-88.8 -18.88,-99.01 4.48,-43.46 21.63,-7.76 -8.64,-97 -56.28,-165.91 -68.2,-177.71 -83.97,-342.41 -3.1,-32.39 2.65,-28.21 7.04,-54.4 7.63,-45.49 -10.48,-65.86 -20.48,-99.28 -2.91,-9.74 -0.41,-94.21 -2.95,-118.2zm-501.34 855.98c-27.17,-127.61 15,-144.58 28.58,-221.63 14.48,-82.12 17.51,-150.61 44.8,-226.18 25.59,-70.87 20.69,-165.07 24.68,-244.98 3.96,-79.24 24.09,-146.49 98.93,-163.32 -1.46,19.89 -2.73,39.48 -2.94,59.7 -0.13,12.87 2.82,47.82 1.14,56.48 -2.01,10.37 -13.09,28.53 -17,42.8 -16.55,60.48 6.13,67.75 2.39,108.56 -6.6,71.99 -2.98,82.69 -22.88,159.25 -15.88,61.1 -39.56,125.94 -59.9,184.88 -29.03,84.13 -17.43,55.35 -10.33,93.7 2.57,13.86 -8.43,96.72 -15.83,104.36 -11.06,-0.31 -13.05,-8.78 -13.67,-20.91 -0.39,-7.63 0.77,-13.72 0.89,-20.55 0.25,-14.55 -0.87,-12.06 -2.95,-15.41 -19.27,-3.6 -22.24,33.77 -25.48,50.59 -4.63,24.08 -9.55,49.24 -30.43,52.66zm406.43 -970.73c0.16,14.63 0.55,7.73 -0.1,21.58 -3.25,69.12 18.07,42.35 74.01,88.52 2.86,30.45 3.9,56.65 2.13,87.34 -2.08,36.01 -13.88,37.71 -35.46,53.89 -27.32,20.48 -79.78,45.68 -87.86,90.26l-18.03 -0.75c-15.28,-27.98 -16.41,-37.01 -38.18,-53.57 -97.09,-73.88 -85.22,-38.79 -87.94,-141.66 -0.24,-9.24 1.7,-19.6 3.58,-36.19l56.87 -35.35c12.12,-8.29 15.84,-9.08 16.87,-29.24 0.62,-12.29 1.27,-33.05 0.27,-44.72 -11.25,-1.85 -21.68,-13.67 -28.12,-22.8 -23.63,-33.49 -44.35,-99.73 -33.64,-114.97 6.45,-4.84 38.06,-20.19 47.08,-24.84l61.87 -41.92 53.05 -50.88c20.81,65.6 75.99,95.32 77.69,98.31 3.65,24.5 -7.1,74.96 -15.26,96.91 -4.68,12.57 -12.57,26.8 -19.5,35.12 -8.11,9.73 -17.78,22.47 -29.35,24.97zm-239.22 112.68c-68.18,33.72 -77.41,95.29 -81.66,186.8 -5.06,108.91 2.54,143.09 -29.35,238.29 -24.42,72.9 -26.32,148.2 -42.71,224.95 -4.13,19.32 -12.16,31.47 -18.18,48.28 -18.07,50.52 -25.19,134.88 -1.05,169.95 24.8,2.73 31.11,-7.21 38.15,-26.54 5.94,-16.31 8.84,-33.09 13.36,-50.36 2.79,14.48 2.86,25.86 14.1,30.51 18.72,7.73 25.45,-2.62 27.94,-17.05 3.43,-19.89 12.41,-66.58 12.39,-83.51 -0.06,-44.82 -17.4,-20.26 -0.31,-77 6.94,-23.04 14.83,-47.66 23.76,-71.38 17.35,-46.12 30.61,-92.62 45.77,-141.41 16.35,-52.6 17.57,-110.06 23.92,-166.8 15.53,11.53 23.25,73.47 25.89,96.82 5.46,48.16 6.82,68.38 -11.73,108.26 -31.98,68.74 -53.08,103.3 -64.97,189.51 -10.33,74.92 -9.96,150.11 8.37,229.31 16.38,70.76 26.72,145.7 38.73,217.54 15.63,93.5 -1.53,148.79 4.13,243.34 4.59,76.67 23.27,146.24 38.88,218.07 7.29,33.53 19.93,72.19 7.67,107.5 -7.3,21.02 -1.86,30.26 -15.12,48.18 -9.24,12.49 -57.13,65.32 14.96,66.12 20.5,0.23 41.36,0.04 61.84,-0.69 24.84,-0.88 37.25,0.13 39.91,-24.33 3.54,-32.63 -8.2,-24.71 7.28,-57.51 30.84,70.93 -41.28,82.67 101.45,82.61 65.69,-0.03 49.96,-30.16 25.61,-62.36 -15.61,-20.64 -9.55,-21.93 -16.68,-46.68 -13.04,-45.31 -2.94,-68.46 6.15,-111.46 36.21,-171.26 44.27,-170.6 37.53,-344.64 -3.59,-92.69 20.57,-241.24 42.67,-329.7 18.64,-74.59 23.48,-154.84 13.4,-227.44 -9.9,-71.33 -37.18,-133.74 -65.98,-190.11 -21.19,-41.48 -18.2,-60.44 -13.91,-110.05 3.38,-39.14 6.72,-72.7 24.87,-102.72 10.05,40.5 0.94,75.76 24.97,165.19 12.79,47.62 29.45,98.43 45.85,144.27 56.29,157.33 21.6,89.09 23.38,150.42 0.43,14.82 8.81,65.52 12.36,81.37 7.53,33.62 44.49,16.9 42.29,-13.44 9.31,35.03 9.85,81.25 51.13,76.09 11.8,-19.05 10.22,-25.91 12.55,-52.54 2.09,-23.92 4.7,-40.05 0.35,-64.05 -3.57,-19.7 -7.58,-34.7 -13.57,-52.69 -6.56,-19.69 -13.72,-26.44 -18.58,-50.31 -15.23,-74.72 -19.07,-160.55 -43.6,-227.53 -32.56,-88.92 -21.6,-137.35 -28.52,-241.52 -2.96,-44.59 -3.04,-79.7 -19.77,-116.43 -17.88,-39.27 -35.11,-44.62 -68.51,-67.77 -4.86,-140.54 56.78,-456.06 -180.65,-456.08 -96.65,-0.01 -153,65.29 -169.31,151.45 -20.18,106.63 -2.74,270.03 -7.49,309.27z"/>
   <path class="fil1" d="M394.01 2234.21c15.44,4.25 63.77,4.11 83.7,3.96 50.45,-0.38 23.96,-24.18 11.07,-41.76 -14.89,-20.3 -16.33,-36.92 -23.69,-65.64 -17.08,-66.6 73.06,-254.09 45.87,-470.02 -3.28,-26.02 1.56,-50.78 4.59,-77.36 2.63,-23.05 7.12,-55.22 12.07,-77.77l5.34 -31.77c1.53,-12.49 3.73,-24.62 6.29,-36.84 26.47,-126.31 31.86,-131.13 35.41,-251.97l-5.29 -51.45c-73.7,-5.62 -182.74,40.55 -189.2,66.15l1.74 238.73c1.91,55.33 3.63,108.67 4.13,164.27 0.49,54.73 10.22,104.64 10.8,158.42 0.58,53.14 -3.05,106.12 -6.49,158.97 -3.68,56.57 -2.8,110.07 -3.01,166.58 -0.06,14.86 -5.7,73.49 -3.93,79.47 5.31,17.94 8.74,9.68 6.93,34.45 -1.05,14.48 -3.7,22.91 3.67,33.58z"/>
   <path class="fil1" d="M172.56 1131.96c-13.37,119.77 7.58,178.53 25.31,286.92 19.78,120.93 34.58,154.69 29.64,278.83 -8.68,218.06 59.03,364.57 51,423.24 -4.2,30.67 -14.66,61.66 -33.46,84.72 -6.44,7.91 -12.39,12.86 -8.49,27.29 14.69,7.57 96.18,6.4 111.35,0.43 7.14,-13.35 2.41,-25.66 2.24,-40.27 -0.25,-21.3 8.05,-17.96 8.71,-34.4l-5.25 -77.77c0.22,-55.98 -0.02,-108.32 -3.2,-164.27 -3.05,-53.63 -7.14,-107.15 -6.34,-161.28 0.77,-52.15 11.05,-102.83 11.72,-155.54 1.4,-111.46 4.94,-216.66 5.87,-322.7 0.78,-88.25 10.25,-82.14 -51.84,-114.52 -61.24,-31.94 -90.01,-24.4 -137.27,-30.68z"/>
   <path class="fil1" d="M549.81 1049.56c-13.22,-47.42 -41.55,-91.51 -58.57,-137.57 -17.07,-46.19 4.26,-125.27 12.58,-171.17 -31.26,8.23 -48.54,7.65 -78.82,-1.58 -12.52,-3.82 -22.24,-8.19 -30.73,-15.34 -14.63,-12.31 -9.49,-13.72 -36.12,-11.95 -18.51,30.66 -78.78,40.73 -121.11,28.95 11.31,45.51 28.37,128.99 11.35,174.54 -16.71,44.71 -48.28,88.26 -58.05,135.99 63.37,7.8 113.23,17.83 180.61,17.92 35.37,0.05 154.88,-7.08 178.85,-19.79z"/>
   <path class="fil1" d="M627.92 764.36c-1.6,-61.53 -1.46,-193.56 -28.28,-243.16 -13.28,-24.56 -43.13,-52.88 -77.09,-58.42 2.53,23.99 0.03,108.47 2.95,118.2 9.99,33.42 28.1,53.8 20.48,99.28 -4.39,26.18 -10.14,22.01 -7.04,54.4 15.77,164.7 27.69,176.5 83.97,342.41 30.27,89.24 13.13,53.54 8.64,97 -1.06,10.21 9.47,91.63 18.88,99.01 24.23,-8.62 0.12,-45.11 14.51,-57.38 28.1,-5.51 17.2,91.7 51.75,102.62 4.26,-4.65 4.27,-2.9 6.11,-11.33l5.02 -47.13c6.47,-71.1 -21.23,-95.92 -35.82,-159.79l-16.45 -113.16c-13.87,-100.93 -44.96,-120.19 -47.62,-222.57z"/>
   <path class="fil1" d="M21.2 1318.77c20.87,-3.42 25.8,-28.58 30.43,-52.66 3.23,-16.81 6.21,-54.18 25.48,-50.59 2.08,3.34 3.2,0.86 2.95,15.41 -0.12,6.83 -1.28,12.92 -0.89,20.55 0.62,12.14 2.61,20.61 13.67,20.91 7.4,-7.65 18.39,-90.5 15.83,-104.36 -7.1,-38.36 -18.7,-9.58 10.33,-93.7 20.34,-58.94 44.02,-123.78 59.9,-184.88 19.91,-76.56 16.29,-87.26 22.88,-159.25 3.74,-40.81 -18.94,-48.08 -2.39,-108.56 3.91,-14.27 14.99,-32.43 17,-42.8 1.68,-8.66 -1.27,-43.61 -1.14,-56.48 0.21,-20.22 1.48,-39.81 2.94,-59.7 -74.84,16.83 -94.97,84.08 -98.93,163.32 -4,79.91 0.9,174.11 -24.68,244.98 -27.28,75.58 -30.32,144.07 -44.8,226.18 -13.58,77.05 -55.75,94.02 -28.58,221.63z"/>
   <path class="fil1" d="M427.63 348.04c-14.38,0.3 -5.19,0.01 -14.21,5.84 -19.38,12.54 -53.55,13.34 -73.39,5.22l-26.22 -10.94c1,11.67 0.35,32.43 -0.27,44.72 -1.03,20.16 -4.75,20.95 -16.87,29.24l-56.87 35.35c-1.88,16.59 -3.82,26.95 -3.58,36.19 2.71,102.87 -9.15,67.78 87.94,141.66 21.77,16.56 22.89,25.6 38.18,53.57l18.03 0.75c8.08,-44.58 60.54,-69.77 87.86,-90.26 21.58,-16.18 33.38,-17.88 35.46,-53.89 1.77,-30.69 0.73,-56.88 -2.13,-87.34 -55.94,-46.17 -77.25,-19.39 -74.01,-88.52 0.65,-13.85 0.26,-6.95 0.1,-21.58z"/>
   <path class="fil1" d="M313.8 348.15l26.22 10.94c19.84,8.13 54.02,7.32 73.39,-5.22 9.02,-5.83 -0.17,-5.54 14.21,-5.84 11.57,-2.5 21.24,-15.24 29.35,-24.97 6.93,-8.32 14.82,-22.54 19.5,-35.12 8.16,-21.94 18.9,-72.41 15.26,-96.91 -1.7,-2.99 -56.88,-32.71 -77.69,-98.31l-53.05 50.88 -61.87 41.92c-9.02,4.65 -40.63,20 -47.08,24.84 -10.71,15.24 10.01,81.48 33.64,114.97 6.44,9.13 16.88,20.95 28.12,22.8z"/>
  </g>
 </g>
</svg>
