<?xml version="1.0" encoding="UTF-8"?>
<!DOCTYPE svg PUBLIC "-//W3C//DTD SVG 1.1//EN" "http://www.w3.org/Graphics/SVG/1.1/DTD/svg11.dtd">
<!-- Creator: CorelDRAW -->
<svg xmlns="http://www.w3.org/2000/svg" xml:space="preserve" width="27.254mm" height="74.4924mm" version="1.1" style="shape-rendering:geometricPrecision; text-rendering:geometricPrecision; image-rendering:optimizeQuality; fill-rule:evenodd; clip-rule:evenodd"
viewBox="0 0 11190.5 30586.6"
 xmlns:xlink="http://www.w3.org/1999/xlink"
 xmlns:xodm="http://www.corel.com/coreldraw/odm/2003">
 <defs>
  <style type="text/css">
   <![CDATA[
    .fil0 {fill:#DE0000}
    .fil1 {fill:#E5BC9E}
   ]]>
  </style>
 </defs>
 <g id="Capa_x0020_1">
  <metadata id="CorelCorpID_0Corel-Layer"/>
  <g id="_105553379916416">
   <path class="fil0" d="M5459.38 21667.25c-26.77,743.72 -205.51,1404.42 -150.03,2151.59 138.54,1866.96 -10.96,2874.12 29.65,4498.37 6.24,249.6 94.56,874.46 75.43,1043.09 -24.06,212.49 -136.85,202.14 -127.12,480.98 7.43,213.39 31.29,324.87 -16.34,521.42 -361.99,53.91 -875.73,54.2 -1271.88,51.86 -690.42,-4.11 -454.37,-262.58 -222.75,-539.9 342.52,-410.11 193.89,-424.81 375.29,-876.75 133.86,-333.49 15.36,-705.66 -85.82,-1012.58 -1213.61,-3681.2 -311.36,-4530.69 -727.17,-6465.23 -463.65,-2157.05 -1304.19,-3566.51 -983.72,-6114.49 1169.84,-19.67 2035.26,306.39 2932.75,838.49 210.56,124.86 176.23,105.03 187.93,411.3 57.81,1511.87 38.84,3480.78 -16.22,5011.87zm518.63 8675.28c-167.57,-110.86 -98.63,-217.33 -73,-474.12 28.29,-283.31 -49.85,-219.06 -108.07,-429.78 -24.59,-89.02 52.19,-891.99 56.58,-1082.34 36.01,-1556.67 -93.99,-2729.75 17.7,-4462.2 50.83,-788.68 -96.45,-1289.7 -133.53,-2031.69 -62.62,-1253.15 -83.72,-3923.08 -17.16,-5285.25 11,-225.17 34.65,-268.94 409.29,-468.29 681.88,-362.81 1426.22,-654.13 2307.37,-703.11 591.1,-32.89 433.55,73.7 462.66,625.92 59.95,1136.21 -86.18,1922.39 -380.22,3008.14 -273.13,1008.64 -836.76,2752.91 -807.57,3761.84 63.68,2200.37 194.62,1844.66 -264.1,4114.21 -112.55,556.73 -485.17,1307.06 -459.42,1833.99 5.13,105.2 214.95,855.77 254.61,915.43 272.64,410.15 469.85,377.05 373.69,695.19 -211.99,73.46 -1498.24,78.84 -1638.83,-17.94zm-2648.33 -20044.11c335.09,188.14 926.36,172.82 1330.1,24.84 535.55,-196.35 742.73,-612.45 915.64,-633.19 231.37,-27.72 325.93,406.9 945.45,632.69 556.4,202.84 824.98,121.21 1363.52,-18.03 -51.69,679.5 -70.99,1607.66 158.9,2206.48 144.82,377.18 592.17,1360.48 554.97,1781.96 -3008.1,311.52 -2946.63,358.58 -6012.17,-2.75 -38.35,-346.92 432.77,-1475.2 581.2,-1825.94 283.77,-670.59 86.23,-1491.75 162.39,-2166.08zm-2982.44 7614.62c-72.68,-115.17 -133.2,-622.88 -153.15,-793.85 -107.33,-919.09 414.71,-1400.97 533.57,-2189.81 246.36,-1635.01 84.05,-1349.36 573.32,-3089.19 432.98,-1539.75 196.96,-3894.79 762.61,-4752.12 238.64,-361.7 628.34,-668.7 1172.39,-773.49 -27.18,303.02 -1.81,1518.85 -67.58,1651.8 -215.85,436.34 -427.64,720.11 -413.97,1291.91 6.41,267.59 61.14,455.11 195.77,672.97 153.77,248.91 58.1,353.53 20.28,671.17 -194.46,1634.44 -576.48,2396.34 -1160.11,3966.23 -448.01,1205.07 -276.58,772.05 -171.38,1316.22 62.86,324.95 -92.26,744.46 -140.84,1105.54l-103.59 306.14c-344.21,45.12 -105.36,-621.94 -231.91,-780.35 -360.42,3.78 -325.52,684.68 -524.3,1146.44 -70.62,164.16 -109.88,236.92 -291.12,250.38zm9441.88 -604.36c-91.73,-130.16 -288.36,-1205.93 -237.41,-1413.78 180.25,-734.73 157.67,-351.68 -177.17,-1332.56 -565.64,-1657.06 -930.05,-2154.99 -1166.31,-3995.35 -62.16,-484.34 -98.5,-351.68 88.98,-728.45 229.9,-462.09 169.21,-937.11 -27.02,-1402.32 -62.49,-148.23 -255.93,-458.89 -280.73,-560.35 -92.47,-378.37 149.7,-1233.44 -55.51,-1535.36 388.88,-62.99 950.09,412.94 1187,741.63 551.23,764.7 335.91,3143.92 761.95,4713.85 454.04,1673.07 338.33,1529.9 585.43,3117.89 111.77,718.3 651.87,1356.87 534.15,2212.81 -23.94,174.14 -82.24,653.59 -126.3,790.9 -349.59,-23.08 -384.03,-438.03 -467.14,-724.42 -30.71,-105.98 -155.7,-869.24 -404.89,-651.87 -115.5,226.86 183.87,687.59 -215.03,767.37zm-3272.77 -12529.92l47.71 529.1c21.88,491.98 527.62,771.85 1046.58,904.63 22.54,431.38 18.6,818.9 -4.56,1250.11 -17.2,320.1 -51.82,422.55 -581.41,722.37 -421.77,238.76 -879.46,455.4 -1175.75,823.01 -117.88,146.3 -138.33,288.61 -238.23,372.37 -224.27,-98.59 -45.12,-255.6 -612.78,-700.98 -226.08,-177.38 -562.77,-323.27 -834.18,-502.21 -555.01,-365.89 -542.94,-323.02 -580.1,-718.63 -173.07,-1841.17 75.92,-974.81 846.49,-1683.54 254.7,-234.25 251.86,-774.19 206.29,-1038.74 -468.45,-100.72 -879.3,-1196.74 -849.57,-1851.93 402.14,-248.33 728.57,-301.67 1643.02,-905.78 285.37,-188.51 565.36,-482.54 787.49,-696.38 138.78,154.88 448.99,959.53 1223.55,1313.43 -4.6,461.47 -86.14,921.96 -242.38,1327.47 -148.02,384.28 -381.16,775.3 -682.17,855.69zm-4886.1 12487.63c419.47,-1495.78 -40.57,-1590.58 114.35,-2012.84l981.09 -2679.66c124.29,-331.35 458.97,-1615.88 420.58,-1923.87 44.22,345.27 5.46,1236.11 -81.18,1568.49 -100.88,386.95 -339.77,841.36 -477.04,1249.95 -251.94,749.88 -475.31,2051.19 -488.16,2875.31 -32.23,2065.98 802.48,3713.51 1145.66,5607.49 244.92,1351.78 -485.41,2848.99 600.95,5957.28 310.99,889.81 177.01,717.73 40.73,1363.15 -63.19,299.37 -131.19,374.63 -291.9,559.4 -125.15,143.92 -319.49,319 -197.75,552.54 123.14,236.26 442.87,192.33 733.91,191.87 291.73,-0.41 593.81,0.7 884.39,-15.85 829.41,-47.3 237,-526.35 587.24,-1116.55 292.59,664.72 -189.41,1066.49 563.22,1116.09 2835.85,186.91 1242.56,-620.7 1137.81,-1264.07 -93.41,-573.94 -300.44,-436.96 34.86,-1380.56 301.54,-848.55 484.47,-1816.62 587.2,-2761.98 148.02,-1362.37 -153.73,-2361.49 5.67,-3124.63 375,-1795.72 1150.17,-3734.24 1153.17,-5527.01 4.89,-2959.36 -1179.61,-3761.3 -1041.2,-5565.11 128.03,239.17 140.47,667.23 218.15,948.9 273.99,993.57 1107.39,2989.42 1214.47,3453.07 69.68,301.71 -194.5,498.43 -99.16,983.14 38.68,196.6 133.12,808.06 190.85,958.42 105.28,274.2 517.44,278.59 599.97,-174.51 102.36,140.22 149.21,475.8 230.22,643.94 106.84,221.6 198.03,367.98 558.17,310.17 381.24,-541.38 245.29,-1699.88 -43.2,-2374.42 -107.54,-251.37 -194.99,-345.23 -253.46,-669.48 -285.33,-1582.37 -61.1,-1246.58 -583.55,-3158.05 -575.5,-2105.48 118.01,-5159.52 -1844.7,-5624.73 83.93,-1021.66 155.95,-3356.21 -118.17,-4267.57 -213.88,-711.08 -411.91,-1003.96 -870.64,-1410.04 -863,-763.96 -3606.3,-1114.49 -4284.94,1509.49 -265.25,1025.52 -149.54,3086.89 -86.14,4193.67 -1052.2,406.04 -1266.09,1182.08 -1368,2455.39 -89.31,1116.13 -123.22,2238.02 -431.71,3279.34 -148.43,501.06 -273.5,989.01 -343.3,1534.41 -67.67,528.52 -101.42,1066.82 -214.13,1557.94 -114.64,499.37 -367.61,832.25 -478.14,1406.72 -78.92,410.15 -40.49,1316.22 223.78,1565.86 349.05,61.67 466.44,-130.08 563.47,-386.05 38.43,-101.38 190.93,-597.05 192.12,-639.76 39.21,227.68 49.56,354.76 239.3,414.01 211.38,65.98 331.23,-22.75 375.12,-179.31z"/>
   <path class="fil1" d="M5270.96 30362.7c47.63,-196.55 23.77,-308.03 16.34,-521.42 -9.73,-278.84 103.06,-268.49 127.12,-480.98 19.13,-168.63 -69.19,-793.48 -75.43,-1043.09 -40.61,-1624.25 108.89,-2631.41 -29.65,-4498.37 -55.47,-747.17 123.26,-1407.87 150.03,-2151.59 55.06,-1531.09 74.03,-3500 16.22,-5011.87 -11.7,-306.27 22.62,-286.43 -187.93,-411.3 -897.49,-532.1 -1762.91,-858.15 -2932.75,-838.49 -320.47,2547.98 520.07,3957.45 983.72,6114.49 415.81,1934.54 -486.44,2784.03 727.17,6465.23 101.17,306.92 219.67,679.09 85.82,1012.58 -181.4,451.95 -32.77,466.65 -375.29,876.75 -231.62,277.32 -467.67,535.79 222.75,539.9 396.15,2.34 909.89,2.05 1271.88,-51.86z"/>
   <path class="fil1" d="M5978.01 30342.53c140.59,96.78 1426.84,91.4 1638.83,17.94 96.16,-318.13 -101.05,-285.04 -373.69,-695.19 -39.66,-59.66 -249.48,-810.24 -254.61,-915.43 -25.74,-526.92 346.88,-1277.25 459.42,-1833.99 458.72,-2269.55 327.78,-1913.85 264.1,-4114.21 -29.19,-1008.93 534.44,-2753.2 807.57,-3761.84 294.03,-1085.75 440.16,-1871.93 380.22,-3008.14 -29.11,-552.22 128.44,-658.81 -462.66,-625.92 -881.15,48.98 -1625.48,340.31 -2307.37,703.11 -374.63,199.35 -398.28,243.12 -409.29,468.29 -66.56,1362.17 -45.45,4032.09 17.16,5285.25 37.08,742 184.36,1243.01 133.53,2031.69 -111.68,1732.45 18.31,2905.53 -17.7,4462.2 -4.39,190.35 -81.18,993.32 -56.58,1082.34 58.22,210.72 136.36,146.46 108.07,429.78 -25.62,256.79 -94.56,363.26 73,474.12z"/>
   <path class="fil1" d="M3329.68 10298.43c-76.17,674.33 121.37,1495.49 -162.39,2166.08 -148.43,350.73 -619.55,1479.02 -581.2,1825.94 3065.54,361.33 3004.07,314.27 6012.17,2.75 37.2,-421.48 -410.15,-1404.79 -554.97,-1781.96 -229.9,-598.82 -210.6,-1526.98 -158.9,-2206.48 -538.54,139.23 -807.12,220.86 -1363.52,18.03 -619.51,-225.79 -714.07,-660.41 -945.45,-632.69 -172.9,20.74 -380.09,436.84 -915.64,633.19 -403.74,147.98 -995.01,163.3 -1330.1,-24.84z"/>
   <path class="fil1" d="M347.24 17913.05c181.24,-13.47 220.49,-86.23 291.12,-250.38 198.77,-461.76 163.87,-1142.66 524.3,-1146.44 126.55,158.41 -112.3,825.47 231.91,780.35l103.59 -306.14c48.57,-361.08 203.7,-780.59 140.84,-1105.54 -105.2,-544.17 -276.62,-111.15 171.38,-1316.22 583.63,-1569.89 965.65,-2331.8 1160.11,-3966.23 37.82,-317.64 133.49,-422.26 -20.28,-671.17 -134.64,-217.86 -189.37,-405.39 -195.77,-672.97 -13.67,-571.8 198.11,-855.57 413.97,-1291.91 65.78,-132.95 40.4,-1348.78 67.58,-1651.8 -544.05,104.79 -933.75,411.79 -1172.39,773.49 -565.64,857.33 -329.63,3212.37 -762.61,4752.12 -489.27,1739.84 -326.96,1454.18 -573.32,3089.19 -118.87,788.85 -640.91,1270.73 -533.57,2189.81 19.96,170.97 80.48,678.68 153.15,793.85z"/>
   <path class="fil1" d="M9789.12 17308.69c398.9,-79.78 99.53,-540.51 215.03,-767.37 249.19,-217.37 374.18,545.89 404.89,651.87 83.11,286.39 117.55,701.35 467.14,724.42 44.06,-137.3 102.36,-616.76 126.3,-790.9 117.72,-855.94 -422.38,-1494.5 -534.15,-2212.81 -247.1,-1588 -131.39,-1444.82 -585.43,-3117.89 -426.04,-1569.93 -210.72,-3949.15 -761.95,-4713.85 -236.92,-328.69 -798.12,-804.61 -1187,-741.63 205.22,301.91 -36.95,1156.99 55.51,1535.36 24.8,101.46 218.23,412.12 280.73,560.35 196.23,465.21 256.91,940.23 27.02,1402.32 -187.48,376.77 -151.14,244.1 -88.98,728.45 236.26,1840.35 600.67,2338.29 1166.31,3995.35 334.84,980.88 357.43,597.83 177.17,1332.56 -50.96,207.85 145.68,1283.62 237.41,1413.78z"/>
   <path class="fil1" d="M6516.35 4778.77c-11.54,2.26 -26.4,6.45 -34.2,8.46l-197.13 52.6c-123.18,35.31 -68.32,17.53 -133.65,41.96 -650.51,243.4 -1213.24,-59.74 -1514.95,-145.52 45.58,264.55 48.41,804.49 -206.29,1038.74 -770.57,708.74 -1019.56,-157.63 -846.49,1683.54 37.16,395.61 25.09,352.75 580.1,718.63 271.41,178.94 608.1,324.83 834.18,502.21 567.65,445.38 388.51,602.39 612.78,700.98 99.9,-83.76 120.35,-226.08 238.23,-372.37 296.29,-367.61 753.99,-584.24 1175.75,-823.01 529.59,-299.82 564.21,-402.27 581.41,-722.37 23.16,-431.21 27.1,-818.74 4.56,-1250.11 -518.96,-132.79 -1024.69,-412.65 -1046.58,-904.63l-47.71 -529.1z"/>
   <path class="fil1" d="M4636.42 4736.27c301.71,85.77 864.44,388.92 1514.95,145.52 65.33,-24.43 10.47,-6.65 133.65,-41.96l197.13 -52.6c7.8,-2.01 22.67,-6.2 34.2,-8.46 301.01,-80.4 534.15,-471.41 682.17,-855.69 156.23,-405.51 237.78,-866 242.38,-1327.47 -774.56,-353.9 -1084.76,-1158.55 -1223.55,-1313.43 -222.13,213.84 -502.12,507.87 -787.49,696.38 -914.45,604.12 -1240.87,657.45 -1643.02,905.78 -29.73,655.19 381.12,1751.21 849.57,1851.93z"/>
  </g>
 </g>
</svg>
